<svg width="1363" height="163" viewBox="0 0 1363 163" fill="none" xmlns="http://www.w3.org/2000/svg">
<path d="M0 15C0 6.71573 6.71573 0 15 0H37V163H15C6.71573 163 0 156.284 0 148V15Z" fill="#73B4C6"/>
<rect width="1097" height="163" transform="translate(37)" fill="#F0F0F0"/>
<path d="M101.906 53.9219L94.3945 51.2383V48.0859L104.602 52.375V54.6367L101.906 53.9219ZM94.3945 56.1719L101.918 53.4297L104.602 52.7852V55.0352L94.3945 59.3242V56.1719ZM113.074 57.4375L117.094 43.9375H121.008L115.066 61H112.488L113.074 57.4375ZM109.371 43.9375L113.379 57.4375L113.988 61H111.387L105.48 43.9375H109.371ZM127.711 61.2344C126.727 61.2344 125.844 61.0781 125.062 60.7656C124.281 60.4453 123.617 60.0039 123.07 59.4414C122.531 58.8789 122.117 58.2266 121.828 57.4844C121.539 56.7344 121.395 55.9375 121.395 55.0938V54.625C121.395 53.6641 121.531 52.7852 121.805 51.9883C122.078 51.1914 122.469 50.5 122.977 49.9141C123.492 49.3281 124.117 48.8789 124.852 48.5664C125.586 48.2461 126.414 48.0859 127.336 48.0859C128.234 48.0859 129.031 48.2344 129.727 48.5312C130.422 48.8281 131.004 49.25 131.473 49.7969C131.949 50.3438 132.309 51 132.551 51.7656C132.793 52.5234 132.914 53.3672 132.914 54.2969V55.7031H122.836V53.4531H129.598V53.1953C129.598 52.7266 129.512 52.3086 129.34 51.9414C129.176 51.5664 128.926 51.2695 128.59 51.0508C128.254 50.832 127.824 50.7227 127.301 50.7227C126.855 50.7227 126.473 50.8203 126.152 51.0156C125.832 51.2109 125.57 51.4844 125.367 51.8359C125.172 52.1875 125.023 52.6016 124.922 53.0781C124.828 53.5469 124.781 54.0625 124.781 54.625V55.0938C124.781 55.6016 124.852 56.0703 124.992 56.5C125.141 56.9297 125.348 57.3008 125.613 57.6133C125.887 57.9258 126.215 58.168 126.598 58.3398C126.988 58.5117 127.43 58.5977 127.922 58.5977C128.531 58.5977 129.098 58.4805 129.621 58.2461C130.152 58.0039 130.609 57.6406 130.992 57.1562L132.633 58.9375C132.367 59.3203 132.004 59.6875 131.543 60.0391C131.09 60.3906 130.543 60.6797 129.902 60.9062C129.262 61.125 128.531 61.2344 127.711 61.2344ZM138.211 51.0859V61H134.836V48.3203H138.012L138.211 51.0859ZM142.031 48.2383L141.973 51.3672C141.809 51.3438 141.609 51.3242 141.375 51.3086C141.148 51.2852 140.941 51.2734 140.754 51.2734C140.277 51.2734 139.863 51.3359 139.512 51.4609C139.168 51.5781 138.879 51.7539 138.645 51.9883C138.418 52.2227 138.246 52.5078 138.129 52.8438C138.02 53.1797 137.957 53.5625 137.941 53.9922L137.262 53.7812C137.262 52.9609 137.344 52.207 137.508 51.5195C137.672 50.8242 137.91 50.2188 138.223 49.7031C138.543 49.1875 138.934 48.7891 139.395 48.5078C139.855 48.2266 140.383 48.0859 140.977 48.0859C141.164 48.0859 141.355 48.1016 141.551 48.1328C141.746 48.1562 141.906 48.1914 142.031 48.2383ZM143.625 43H147V58.0938L146.66 61H143.625V43ZM155.027 54.5312V54.7773C155.027 55.7227 154.926 56.5898 154.723 57.3789C154.527 58.168 154.223 58.8516 153.809 59.4297C153.395 60 152.879 60.4453 152.262 60.7656C151.652 61.0781 150.934 61.2344 150.105 61.2344C149.332 61.2344 148.66 61.0781 148.09 60.7656C147.527 60.4531 147.055 60.0117 146.672 59.4414C146.289 58.8711 145.98 58.2031 145.746 57.4375C145.512 56.6719 145.336 55.8359 145.219 54.9297V54.3906C145.336 53.4844 145.512 52.6484 145.746 51.8828C145.98 51.1172 146.289 50.4492 146.672 49.8789C147.055 49.3086 147.527 48.8672 148.09 48.5547C148.652 48.2422 149.316 48.0859 150.082 48.0859C150.918 48.0859 151.645 48.2461 152.262 48.5664C152.887 48.8789 153.402 49.3242 153.809 49.9023C154.223 50.4727 154.527 51.1523 154.723 51.9414C154.926 52.7227 155.027 53.5859 155.027 54.5312ZM151.652 54.7773V54.5312C151.652 54.0156 151.613 53.5312 151.535 53.0781C151.465 52.6172 151.34 52.2148 151.16 51.8711C150.98 51.5195 150.734 51.2422 150.422 51.0391C150.117 50.8359 149.723 50.7344 149.238 50.7344C148.777 50.7344 148.387 50.8125 148.066 50.9688C147.746 51.125 147.48 51.3438 147.27 51.625C147.066 51.9062 146.914 52.2422 146.812 52.6328C146.711 53.0156 146.648 53.4375 146.625 53.8984V55.4336C146.648 56.0508 146.75 56.5977 146.93 57.0742C147.117 57.543 147.398 57.9141 147.773 58.1875C148.156 58.4531 148.652 58.5859 149.262 58.5859C149.738 58.5859 150.133 58.4922 150.445 58.3047C150.758 58.1172 151 57.8516 151.172 57.5078C151.352 57.1641 151.477 56.7617 151.547 56.3008C151.617 55.832 151.652 55.3242 151.652 54.7773ZM163.969 58.1406V52.4922C163.969 52.0859 163.902 51.7383 163.77 51.4492C163.637 51.1523 163.43 50.9219 163.148 50.7578C162.875 50.5938 162.52 50.5117 162.082 50.5117C161.707 50.5117 161.383 50.5781 161.109 50.7109C160.836 50.8359 160.625 51.0195 160.477 51.2617C160.328 51.4961 160.254 51.7734 160.254 52.0938H156.879C156.879 51.5547 157.004 51.043 157.254 50.5586C157.504 50.0742 157.867 49.6484 158.344 49.2812C158.82 48.9062 159.387 48.6133 160.043 48.4023C160.707 48.1914 161.449 48.0859 162.27 48.0859C163.254 48.0859 164.129 48.25 164.895 48.5781C165.66 48.9062 166.262 49.3984 166.699 50.0547C167.145 50.7109 167.367 51.5312 167.367 52.5156V57.9414C167.367 58.6367 167.41 59.207 167.496 59.6523C167.582 60.0898 167.707 60.4727 167.871 60.8008V61H164.461C164.297 60.6562 164.172 60.2266 164.086 59.7109C164.008 59.1875 163.969 58.6641 163.969 58.1406ZM164.414 53.2773L164.438 55.1875H162.551C162.105 55.1875 161.719 55.2383 161.391 55.3398C161.062 55.4414 160.793 55.5859 160.582 55.7734C160.371 55.9531 160.215 56.1641 160.113 56.4062C160.02 56.6484 159.973 56.9141 159.973 57.2031C159.973 57.4922 160.039 57.7539 160.172 57.9883C160.305 58.2148 160.496 58.3945 160.746 58.5273C160.996 58.6523 161.289 58.7148 161.625 58.7148C162.133 58.7148 162.574 58.6133 162.949 58.4102C163.324 58.207 163.613 57.957 163.816 57.6602C164.027 57.3633 164.137 57.082 164.145 56.8164L165.035 58.2461C164.91 58.5664 164.738 58.8984 164.52 59.2422C164.309 59.5859 164.039 59.9102 163.711 60.2148C163.383 60.5117 162.988 60.7578 162.527 60.9531C162.066 61.1406 161.52 61.2344 160.887 61.2344C160.082 61.2344 159.352 61.0742 158.695 60.7539C158.047 60.4258 157.531 59.9766 157.148 59.4062C156.773 58.8281 156.586 58.1719 156.586 57.4375C156.586 56.7734 156.711 56.1836 156.961 55.668C157.211 55.1523 157.578 54.7188 158.062 54.3672C158.555 54.0078 159.168 53.7383 159.902 53.5586C160.637 53.3711 161.488 53.2773 162.457 53.2773H164.414ZM173.531 43V61H170.145V43H173.531ZM183.211 53.5117H178.828L178.805 51.0977H182.484C183.133 51.0977 183.664 51.0156 184.078 50.8516C184.492 50.6797 184.801 50.4336 185.004 50.1133C185.215 49.7852 185.32 49.3867 185.32 48.918C185.32 48.3867 185.219 47.957 185.016 47.6289C184.82 47.3008 184.512 47.0625 184.09 46.9141C183.676 46.7656 183.141 46.6914 182.484 46.6914H180.047V61H176.531V43.9375H182.484C183.477 43.9375 184.363 44.0312 185.145 44.2188C185.934 44.4062 186.602 44.6914 187.148 45.0742C187.695 45.457 188.113 45.9414 188.402 46.5273C188.691 47.1055 188.836 47.793 188.836 48.5898C188.836 49.293 188.676 49.9414 188.355 50.5352C188.043 51.1289 187.547 51.6133 186.867 51.9883C186.195 52.3633 185.316 52.5703 184.23 52.6094L183.211 53.5117ZM183.059 61H177.867L179.238 58.2578H183.059C183.676 58.2578 184.18 58.1602 184.57 57.9648C184.961 57.7617 185.25 57.4883 185.438 57.1445C185.625 56.8008 185.719 56.4062 185.719 55.9609C185.719 55.4609 185.633 55.0273 185.461 54.6602C185.297 54.293 185.031 54.0117 184.664 53.8164C184.297 53.6133 183.812 53.5117 183.211 53.5117H179.824L179.848 51.0977H184.066L184.875 52.0469C185.914 52.0312 186.75 52.2148 187.383 52.5977C188.023 52.9727 188.488 53.4609 188.777 54.0625C189.074 54.6641 189.223 55.3086 189.223 55.9961C189.223 57.0898 188.984 58.0117 188.508 58.7617C188.031 59.5039 187.332 60.0625 186.41 60.4375C185.496 60.8125 184.379 61 183.059 61ZM191.109 54.7891V54.543C191.109 53.6133 191.242 52.7578 191.508 51.9766C191.773 51.1875 192.16 50.5039 192.668 49.9258C193.176 49.3477 193.801 48.8984 194.543 48.5781C195.285 48.25 196.137 48.0859 197.098 48.0859C198.059 48.0859 198.914 48.25 199.664 48.5781C200.414 48.8984 201.043 49.3477 201.551 49.9258C202.066 50.5039 202.457 51.1875 202.723 51.9766C202.988 52.7578 203.121 53.6133 203.121 54.543V54.7891C203.121 55.7109 202.988 56.5664 202.723 57.3555C202.457 58.1367 202.066 58.8203 201.551 59.4062C201.043 59.9844 200.418 60.4336 199.676 60.7539C198.934 61.0742 198.082 61.2344 197.121 61.2344C196.16 61.2344 195.305 61.0742 194.555 60.7539C193.812 60.4336 193.184 59.9844 192.668 59.4062C192.16 58.8203 191.773 58.1367 191.508 57.3555C191.242 56.5664 191.109 55.7109 191.109 54.7891ZM194.484 54.543V54.7891C194.484 55.3203 194.531 55.8164 194.625 56.2773C194.719 56.7383 194.867 57.1445 195.07 57.4961C195.281 57.8398 195.555 58.1094 195.891 58.3047C196.227 58.5 196.637 58.5977 197.121 58.5977C197.59 58.5977 197.992 58.5 198.328 58.3047C198.664 58.1094 198.934 57.8398 199.137 57.4961C199.34 57.1445 199.488 56.7383 199.582 56.2773C199.684 55.8164 199.734 55.3203 199.734 54.7891V54.543C199.734 54.0273 199.684 53.543 199.582 53.0898C199.488 52.6289 199.336 52.2227 199.125 51.8711C198.922 51.5117 198.652 51.2305 198.316 51.0273C197.98 50.8242 197.574 50.7227 197.098 50.7227C196.621 50.7227 196.215 50.8242 195.879 51.0273C195.551 51.2305 195.281 51.5117 195.07 51.8711C194.867 52.2227 194.719 52.6289 194.625 53.0898C194.531 53.543 194.484 54.0273 194.484 54.543ZM211.406 48.3203V50.7109H204.023V48.3203H211.406ZM205.852 45.1914H209.227V57.1797C209.227 57.5469 209.273 57.8281 209.367 58.0234C209.469 58.2188 209.617 58.3555 209.812 58.4336C210.008 58.5039 210.254 58.5391 210.551 58.5391C210.762 58.5391 210.949 58.5312 211.113 58.5156C211.285 58.4922 211.43 58.4688 211.547 58.4453L211.559 60.9297C211.27 61.0234 210.957 61.0977 210.621 61.1523C210.285 61.207 209.914 61.2344 209.508 61.2344C208.766 61.2344 208.117 61.1133 207.562 60.8711C207.016 60.6211 206.594 60.2227 206.297 59.6758C206 59.1289 205.852 58.4102 205.852 57.5195V45.1914ZM216.891 48.3203V61H213.504V48.3203H216.891ZM213.293 45.0156C213.293 44.5234 213.465 44.1172 213.809 43.7969C214.152 43.4766 214.613 43.3164 215.191 43.3164C215.762 43.3164 216.219 43.4766 216.562 43.7969C216.914 44.1172 217.09 44.5234 217.09 45.0156C217.09 45.5078 216.914 45.9141 216.562 46.2344C216.219 46.5547 215.762 46.7148 215.191 46.7148C214.613 46.7148 214.152 46.5547 213.809 46.2344C213.465 45.9141 213.293 45.5078 213.293 45.0156ZM224.918 58.5977C225.332 58.5977 225.699 58.5195 226.02 58.3633C226.34 58.1992 226.59 57.9727 226.77 57.6836C226.957 57.3867 227.055 57.0391 227.062 56.6406H230.238C230.23 57.5312 229.992 58.3242 229.523 59.0195C229.055 59.707 228.426 60.25 227.637 60.6484C226.848 61.0391 225.965 61.2344 224.988 61.2344C224.004 61.2344 223.145 61.0703 222.41 60.7422C221.684 60.4141 221.078 59.9609 220.594 59.3828C220.109 58.7969 219.746 58.1172 219.504 57.3438C219.262 56.5625 219.141 55.7266 219.141 54.8359V54.4961C219.141 53.5977 219.262 52.7617 219.504 51.9883C219.746 51.207 220.109 50.5273 220.594 49.9492C221.078 49.3633 221.684 48.9062 222.41 48.5781C223.137 48.25 223.988 48.0859 224.965 48.0859C226.004 48.0859 226.914 48.2852 227.695 48.6836C228.484 49.082 229.102 49.6523 229.547 50.3945C230 51.1289 230.23 52 230.238 53.0078H227.062C227.055 52.5859 226.965 52.2031 226.793 51.8594C226.629 51.5156 226.387 51.2422 226.066 51.0391C225.754 50.8281 225.367 50.7227 224.906 50.7227C224.414 50.7227 224.012 50.8281 223.699 51.0391C223.387 51.2422 223.145 51.5234 222.973 51.8828C222.801 52.2344 222.68 52.6367 222.609 53.0898C222.547 53.5352 222.516 54.0039 222.516 54.4961V54.8359C222.516 55.3281 222.547 55.8008 222.609 56.2539C222.672 56.707 222.789 57.1094 222.961 57.4609C223.141 57.8125 223.387 58.0898 223.699 58.293C224.012 58.4961 224.418 58.5977 224.918 58.5977Z" fill="#888888"/>
<path d="M104.344 84.875V119H96.1406V84.875H104.344ZM117.727 99.0078V119H109.828V93.6406H117.234L117.727 99.0078ZM116.766 105.453L114.961 105.5C114.961 103.719 115.172 102.078 115.594 100.578C116.016 99.0781 116.641 97.7734 117.469 96.6641C118.297 95.5547 119.312 94.6953 120.516 94.0859C121.734 93.4766 123.141 93.1719 124.734 93.1719C125.844 93.1719 126.852 93.3438 127.758 93.6875C128.664 94.0156 129.445 94.5391 130.102 95.2578C130.758 95.9609 131.258 96.8828 131.602 98.0234C131.961 99.1484 132.141 100.5 132.141 102.078V119H124.242V103.086C124.242 102.008 124.117 101.195 123.867 100.648C123.633 100.102 123.289 99.7344 122.836 99.5469C122.383 99.3594 121.828 99.2656 121.172 99.2656C120.484 99.2656 119.867 99.4219 119.32 99.7344C118.773 100.047 118.305 100.484 117.914 101.047C117.539 101.594 117.25 102.242 117.047 102.992C116.859 103.742 116.766 104.562 116.766 105.453ZM131.25 105.453L129.047 105.5C129.047 103.719 129.242 102.078 129.633 100.578C130.039 99.0781 130.641 97.7734 131.438 96.6641C132.25 95.5547 133.258 94.6953 134.461 94.0859C135.664 93.4766 137.062 93.1719 138.656 93.1719C139.812 93.1719 140.875 93.3438 141.844 93.6875C142.812 94.0312 143.648 94.5859 144.352 95.3516C145.055 96.1172 145.602 97.1328 145.992 98.3984C146.383 99.6484 146.578 101.195 146.578 103.039V119H138.656V103.039C138.656 101.992 138.531 101.203 138.281 100.672C138.047 100.125 137.703 99.7578 137.25 99.5703C136.797 99.3672 136.258 99.2656 135.633 99.2656C134.883 99.2656 134.234 99.4219 133.688 99.7344C133.141 100.047 132.68 100.484 132.305 101.047C131.945 101.594 131.68 102.242 131.508 102.992C131.336 103.742 131.25 104.562 131.25 105.453ZM159.07 98.5156V128.75H151.172V93.6406H158.531L159.07 98.5156ZM174.633 106.016V106.508C174.633 108.352 174.422 110.062 174 111.641C173.578 113.219 172.953 114.594 172.125 115.766C171.297 116.938 170.266 117.852 169.031 118.508C167.812 119.148 166.398 119.469 164.789 119.469C163.273 119.469 161.969 119.133 160.875 118.461C159.781 117.789 158.867 116.859 158.133 115.672C157.398 114.484 156.805 113.125 156.352 111.594C155.898 110.062 155.539 108.445 155.273 106.742V106.109C155.539 104.281 155.898 102.586 156.352 101.023C156.805 99.4453 157.398 98.0703 158.133 96.8984C158.867 95.7266 159.773 94.8125 160.852 94.1562C161.945 93.5 163.25 93.1719 164.766 93.1719C166.375 93.1719 167.789 93.4766 169.008 94.0859C170.242 94.6953 171.273 95.5703 172.102 96.7109C172.945 97.8359 173.578 99.1875 174 100.766C174.422 102.344 174.633 104.094 174.633 106.016ZM166.734 106.508V106.016C166.734 105.031 166.664 104.133 166.523 103.32C166.383 102.492 166.156 101.773 165.844 101.164C165.547 100.555 165.148 100.086 164.648 99.7578C164.148 99.4297 163.531 99.2656 162.797 99.2656C161.953 99.2656 161.242 99.3984 160.664 99.6641C160.102 99.9141 159.648 100.305 159.305 100.836C158.977 101.352 158.742 102 158.602 102.781C158.477 103.547 158.422 104.445 158.438 105.477V107.398C158.406 108.586 158.523 109.633 158.789 110.539C159.055 111.43 159.516 112.125 160.172 112.625C160.828 113.125 161.719 113.375 162.844 113.375C163.594 113.375 164.219 113.203 164.719 112.859C165.219 112.5 165.617 112.008 165.914 111.383C166.211 110.742 166.422 110.008 166.547 109.18C166.672 108.352 166.734 107.461 166.734 106.508ZM186.492 83V119H178.57V83H186.492ZM203.648 119.469C201.586 119.469 199.742 119.148 198.117 118.508C196.492 117.852 195.117 116.953 193.992 115.812C192.883 114.672 192.031 113.359 191.438 111.875C190.859 110.391 190.57 108.82 190.57 107.164V106.273C190.57 104.414 190.828 102.695 191.344 101.117C191.859 99.5234 192.625 98.1328 193.641 96.9453C194.656 95.7578 195.93 94.8359 197.461 94.1797C198.992 93.5078 200.773 93.1719 202.805 93.1719C204.602 93.1719 206.211 93.4609 207.633 94.0391C209.055 94.6172 210.258 95.4453 211.242 96.5234C212.242 97.6016 213 98.9062 213.516 100.438C214.047 101.969 214.312 103.688 214.312 105.594V108.805H193.594V103.859H206.602V103.25C206.617 102.406 206.469 101.688 206.156 101.094C205.859 100.5 205.422 100.047 204.844 99.7344C204.266 99.4219 203.562 99.2656 202.734 99.2656C201.875 99.2656 201.164 99.4531 200.602 99.8281C200.055 100.203 199.625 100.719 199.312 101.375C199.016 102.016 198.805 102.758 198.68 103.602C198.555 104.445 198.492 105.336 198.492 106.273V107.164C198.492 108.102 198.617 108.953 198.867 109.719C199.133 110.484 199.508 111.141 199.992 111.688C200.492 112.219 201.086 112.633 201.773 112.93C202.477 113.227 203.273 113.375 204.164 113.375C205.242 113.375 206.305 113.172 207.352 112.766C208.398 112.359 209.297 111.688 210.047 110.75L213.633 115.016C213.117 115.75 212.383 116.461 211.43 117.148C210.492 117.836 209.367 118.398 208.055 118.836C206.742 119.258 205.273 119.469 203.648 119.469ZM225.492 99.0078V119H217.594V93.6406H225L225.492 99.0078ZM224.531 105.453L222.727 105.5C222.727 103.719 222.938 102.078 223.359 100.578C223.781 99.0781 224.406 97.7734 225.234 96.6641C226.062 95.5547 227.078 94.6953 228.281 94.0859C229.5 93.4766 230.906 93.1719 232.5 93.1719C233.609 93.1719 234.617 93.3438 235.523 93.6875C236.43 94.0156 237.211 94.5391 237.867 95.2578C238.523 95.9609 239.023 96.8828 239.367 98.0234C239.727 99.1484 239.906 100.5 239.906 102.078V119H232.008V103.086C232.008 102.008 231.883 101.195 231.633 100.648C231.398 100.102 231.055 99.7344 230.602 99.5469C230.148 99.3594 229.594 99.2656 228.938 99.2656C228.25 99.2656 227.633 99.4219 227.086 99.7344C226.539 100.047 226.07 100.484 225.68 101.047C225.305 101.594 225.016 102.242 224.812 102.992C224.625 103.742 224.531 104.562 224.531 105.453ZM239.016 105.453L236.812 105.5C236.812 103.719 237.008 102.078 237.398 100.578C237.805 99.0781 238.406 97.7734 239.203 96.6641C240.016 95.5547 241.023 94.6953 242.227 94.0859C243.43 93.4766 244.828 93.1719 246.422 93.1719C247.578 93.1719 248.641 93.3438 249.609 93.6875C250.578 94.0312 251.414 94.5859 252.117 95.3516C252.82 96.1172 253.367 97.1328 253.758 98.3984C254.148 99.6484 254.344 101.195 254.344 103.039V119H246.422V103.039C246.422 101.992 246.297 101.203 246.047 100.672C245.812 100.125 245.469 99.7578 245.016 99.5703C244.562 99.3672 244.023 99.2656 243.398 99.2656C242.648 99.2656 242 99.4219 241.453 99.7344C240.906 100.047 240.445 100.484 240.07 101.047C239.711 101.594 239.445 102.242 239.273 102.992C239.102 103.742 239.016 104.562 239.016 105.453ZM271.148 119.469C269.086 119.469 267.242 119.148 265.617 118.508C263.992 117.852 262.617 116.953 261.492 115.812C260.383 114.672 259.531 113.359 258.938 111.875C258.359 110.391 258.07 108.82 258.07 107.164V106.273C258.07 104.414 258.328 102.695 258.844 101.117C259.359 99.5234 260.125 98.1328 261.141 96.9453C262.156 95.7578 263.43 94.8359 264.961 94.1797C266.492 93.5078 268.273 93.1719 270.305 93.1719C272.102 93.1719 273.711 93.4609 275.133 94.0391C276.555 94.6172 277.758 95.4453 278.742 96.5234C279.742 97.6016 280.5 98.9062 281.016 100.438C281.547 101.969 281.812 103.688 281.812 105.594V108.805H261.094V103.859H274.102V103.25C274.117 102.406 273.969 101.688 273.656 101.094C273.359 100.5 272.922 100.047 272.344 99.7344C271.766 99.4219 271.062 99.2656 270.234 99.2656C269.375 99.2656 268.664 99.4531 268.102 99.8281C267.555 100.203 267.125 100.719 266.812 101.375C266.516 102.016 266.305 102.758 266.18 103.602C266.055 104.445 265.992 105.336 265.992 106.273V107.164C265.992 108.102 266.117 108.953 266.367 109.719C266.633 110.484 267.008 111.141 267.492 111.688C267.992 112.219 268.586 112.633 269.273 112.93C269.977 113.227 270.773 113.375 271.664 113.375C272.742 113.375 273.805 113.172 274.852 112.766C275.898 112.359 276.797 111.688 277.547 110.75L281.133 115.016C280.617 115.75 279.883 116.461 278.93 117.148C277.992 117.836 276.867 118.398 275.555 118.836C274.242 119.258 272.773 119.469 271.148 119.469ZM292.781 99.0547V119H284.883V93.6406H292.289L292.781 99.0547ZM291.844 105.453L289.992 105.5C289.992 103.562 290.227 101.836 290.695 100.32C291.164 98.7891 291.828 97.4922 292.688 96.4297C293.547 95.3672 294.57 94.5625 295.758 94.0156C296.961 93.4531 298.297 93.1719 299.766 93.1719C300.938 93.1719 302.008 93.3438 302.977 93.6875C303.961 94.0312 304.805 94.5859 305.508 95.3516C306.227 96.1172 306.773 97.1328 307.148 98.3984C307.539 99.6484 307.734 101.195 307.734 103.039V119H299.789V103.016C299.789 102 299.648 101.227 299.367 100.695C299.086 100.148 298.68 99.7734 298.148 99.5703C297.617 99.3672 296.969 99.2656 296.203 99.2656C295.391 99.2656 294.703 99.4219 294.141 99.7344C293.578 100.047 293.125 100.484 292.781 101.047C292.453 101.594 292.211 102.242 292.055 102.992C291.914 103.742 291.844 104.562 291.844 105.453ZM325.477 93.6406V99.125H310.195V93.6406H325.477ZM313.406 87.3359H321.305V110.727C321.305 111.398 321.383 111.922 321.539 112.297C321.695 112.656 321.961 112.914 322.336 113.07C322.727 113.211 323.242 113.281 323.883 113.281C324.336 113.281 324.711 113.273 325.008 113.258C325.305 113.227 325.586 113.188 325.852 113.141V118.789C325.18 119.008 324.477 119.172 323.742 119.281C323.008 119.406 322.227 119.469 321.398 119.469C319.711 119.469 318.266 119.203 317.062 118.672C315.875 118.141 314.969 117.305 314.344 116.164C313.719 115.023 313.406 113.539 313.406 111.711V87.3359ZM341.789 112.625V102.172C341.789 101.453 341.688 100.836 341.484 100.32C341.281 99.8047 340.961 99.4062 340.523 99.125C340.086 98.8281 339.5 98.6797 338.766 98.6797C338.172 98.6797 337.664 98.7812 337.242 98.9844C336.82 99.1875 336.5 99.4922 336.281 99.8984C336.062 100.305 335.953 100.82 335.953 101.445H328.055C328.055 100.273 328.312 99.1875 328.828 98.1875C329.359 97.1719 330.109 96.2891 331.078 95.5391C332.062 94.7891 333.234 94.2109 334.594 93.8047C335.969 93.3828 337.5 93.1719 339.188 93.1719C341.203 93.1719 343 93.5078 344.578 94.1797C346.172 94.8516 347.43 95.8594 348.352 97.2031C349.273 98.5312 349.734 100.203 349.734 102.219V112.602C349.734 114.258 349.828 115.516 350.016 116.375C350.203 117.219 350.469 117.961 350.812 118.602V119H342.891C342.516 118.219 342.234 117.266 342.047 116.141C341.875 115 341.789 113.828 341.789 112.625ZM342.75 103.508L342.797 107.727H339.305C338.57 107.727 337.945 107.828 337.43 108.031C336.93 108.234 336.523 108.516 336.211 108.875C335.914 109.219 335.695 109.609 335.555 110.047C335.43 110.484 335.367 110.945 335.367 111.43C335.367 111.898 335.477 112.32 335.695 112.695C335.93 113.055 336.242 113.336 336.633 113.539C337.023 113.742 337.461 113.844 337.945 113.844C338.82 113.844 339.562 113.68 340.172 113.352C340.797 113.008 341.273 112.594 341.602 112.109C341.93 111.625 342.094 111.172 342.094 110.75L343.828 113.984C343.516 114.609 343.156 115.242 342.75 115.883C342.359 116.523 341.867 117.117 341.273 117.664C340.695 118.195 339.984 118.633 339.141 118.977C338.297 119.305 337.273 119.469 336.07 119.469C334.508 119.469 333.07 119.148 331.758 118.508C330.461 117.867 329.422 116.977 328.641 115.836C327.859 114.68 327.469 113.352 327.469 111.852C327.469 110.539 327.703 109.367 328.172 108.336C328.656 107.305 329.383 106.43 330.352 105.711C331.32 104.992 332.555 104.445 334.055 104.07C335.555 103.695 337.32 103.508 339.352 103.508H342.75ZM367.477 93.6406V99.125H352.195V93.6406H367.477ZM355.406 87.3359H363.305V110.727C363.305 111.398 363.383 111.922 363.539 112.297C363.695 112.656 363.961 112.914 364.336 113.07C364.727 113.211 365.242 113.281 365.883 113.281C366.336 113.281 366.711 113.273 367.008 113.258C367.305 113.227 367.586 113.188 367.852 113.141V118.789C367.18 119.008 366.477 119.172 365.742 119.281C365.008 119.406 364.227 119.469 363.398 119.469C361.711 119.469 360.266 119.203 359.062 118.672C357.875 118.141 356.969 117.305 356.344 116.164C355.719 115.023 355.406 113.539 355.406 111.711V87.3359ZM378.961 93.6406V119H371.039V93.6406H378.961ZM370.57 87.1016C370.57 85.9766 370.977 85.0547 371.789 84.3359C372.602 83.6172 373.656 83.2578 374.953 83.2578C376.25 83.2578 377.305 83.6172 378.117 84.3359C378.93 85.0547 379.336 85.9766 379.336 87.1016C379.336 88.2266 378.93 89.1484 378.117 89.8672C377.305 90.5859 376.25 90.9453 374.953 90.9453C373.656 90.9453 372.602 90.5859 371.789 89.8672C370.977 89.1484 370.57 88.2266 370.57 87.1016ZM382.852 106.578V106.086C382.852 104.227 383.117 102.516 383.648 100.953C384.18 99.375 384.961 98.0078 385.992 96.8516C387.023 95.6953 388.297 94.7969 389.812 94.1562C391.328 93.5 393.078 93.1719 395.062 93.1719C397.062 93.1719 398.82 93.5 400.336 94.1562C401.867 94.7969 403.148 95.6953 404.18 96.8516C405.211 98.0078 405.992 99.375 406.523 100.953C407.055 102.516 407.32 104.227 407.32 106.086V106.578C407.32 108.422 407.055 110.133 406.523 111.711C405.992 113.273 405.211 114.641 404.18 115.812C403.148 116.969 401.875 117.867 400.359 118.508C398.844 119.148 397.094 119.469 395.109 119.469C393.125 119.469 391.367 119.148 389.836 118.508C388.305 117.867 387.023 116.969 385.992 115.812C384.961 114.641 384.18 113.273 383.648 111.711C383.117 110.133 382.852 108.422 382.852 106.578ZM390.75 106.086V106.578C390.75 107.531 390.82 108.422 390.961 109.25C391.102 110.078 391.336 110.805 391.664 111.43C391.992 112.039 392.438 112.516 393 112.859C393.562 113.203 394.266 113.375 395.109 113.375C395.938 113.375 396.625 113.203 397.172 112.859C397.734 112.516 398.18 112.039 398.508 111.43C398.836 110.805 399.07 110.078 399.211 109.25C399.352 108.422 399.422 107.531 399.422 106.578V106.086C399.422 105.164 399.352 104.297 399.211 103.484C399.07 102.656 398.836 101.93 398.508 101.305C398.18 100.664 397.734 100.164 397.172 99.8047C396.609 99.4453 395.906 99.2656 395.062 99.2656C394.234 99.2656 393.539 99.4453 392.977 99.8047C392.43 100.164 391.992 100.664 391.664 101.305C391.336 101.93 391.102 102.656 390.961 103.484C390.82 104.297 390.75 105.164 390.75 106.086ZM418.594 99.0547V119H410.695V93.6406H418.102L418.594 99.0547ZM417.656 105.453L415.805 105.5C415.805 103.562 416.039 101.836 416.508 100.32C416.977 98.7891 417.641 97.4922 418.5 96.4297C419.359 95.3672 420.383 94.5625 421.57 94.0156C422.773 93.4531 424.109 93.1719 425.578 93.1719C426.75 93.1719 427.82 93.3438 428.789 93.6875C429.773 94.0312 430.617 94.5859 431.32 95.3516C432.039 96.1172 432.586 97.1328 432.961 98.3984C433.352 99.6484 433.547 101.195 433.547 103.039V119H425.602V103.016C425.602 102 425.461 101.227 425.18 100.695C424.898 100.148 424.492 99.7734 423.961 99.5703C423.43 99.3672 422.781 99.2656 422.016 99.2656C421.203 99.2656 420.516 99.4219 419.953 99.7344C419.391 100.047 418.938 100.484 418.594 101.047C418.266 101.594 418.023 102.242 417.867 102.992C417.727 103.742 417.656 104.562 417.656 105.453Z" fill="black"/>
<path d="M1134 0H1348C1356.28 0 1363 6.71573 1363 15V148C1363 156.284 1356.28 163 1348 163H1134V0Z" fill="#FFE4C4"/>
<path d="M1280.07 47.5H1216.93L1214.5 49.9286V113.071L1216.93 115.5H1280.07L1282.5 113.071V49.9286L1280.07 47.5ZM1277.64 110.643H1233.93V100.929H1245.1C1246.56 103.843 1249.96 105.786 1253.36 105.786C1258.7 105.786 1263.07 101.414 1263.07 96.0714C1263.07 90.7286 1258.7 86.3571 1253.36 86.3571C1248.01 86.3571 1243.64 90.7286 1243.64 96.0714H1229.07V110.643H1219.36V52.3571H1229.07V63.5286C1226.16 64.9857 1224.21 68.3857 1224.21 71.7857C1224.21 77.1286 1228.59 81.5 1233.93 81.5C1239.27 81.5 1243.64 77.1286 1243.64 71.7857H1253.36C1253.36 77.1286 1257.73 81.5 1263.07 81.5C1268.41 81.5 1272.79 77.1286 1272.79 71.7857C1272.79 66.4429 1268.41 62.0714 1263.07 62.0714C1259.67 62.0714 1256.27 64.0143 1254.81 66.9286H1242.19C1240.73 64.0143 1237.33 62.0714 1233.93 62.0714V52.3571H1277.64V110.643ZM1248.5 96.0714C1248.5 93.1571 1250.44 91.2143 1253.36 91.2143C1256.27 91.2143 1258.21 93.1571 1258.21 96.0714C1258.21 98.9857 1256.27 100.929 1253.36 100.929C1250.44 100.929 1248.5 98.9857 1248.5 96.0714ZM1233.93 66.9286C1236.84 66.9286 1238.79 68.8714 1238.79 71.7857C1238.79 74.7 1236.84 76.6429 1233.93 76.6429C1231.01 76.6429 1229.07 74.7 1229.07 71.7857C1229.07 68.8714 1231.01 66.9286 1233.93 66.9286ZM1263.07 66.9286C1265.99 66.9286 1267.93 68.8714 1267.93 71.7857C1267.93 74.7 1265.99 76.6429 1263.07 76.6429C1260.16 76.6429 1258.21 74.7 1258.21 71.7857C1258.21 68.8714 1260.16 66.9286 1263.07 66.9286Z" fill="#73B4C6"/>
</svg>
