<svg width="1363" height="163" viewBox="0 0 1363 163" fill="none" xmlns="http://www.w3.org/2000/svg">
<path d="M0 15C0 6.71573 6.71573 0 15 0H37V163H15C6.71573 163 0 156.284 0 148V15Z" fill="#424242"/>
<rect width="1097" height="163" transform="translate(37)" fill="#F0F0F0"/>
<path d="M101.906 53.9219L94.3945 51.2383V48.0859L104.602 52.375V54.6367L101.906 53.9219ZM94.3945 56.1719L101.918 53.4297L104.602 52.7852V55.0352L94.3945 59.3242V56.1719ZM119.051 57.4375L123.07 43.9375H126.984L121.043 61H118.465L119.051 57.4375ZM115.348 43.9375L119.355 57.4375L119.965 61H117.363L111.457 43.9375H115.348ZM133.688 61.2344C132.703 61.2344 131.82 61.0781 131.039 60.7656C130.258 60.4453 129.594 60.0039 129.047 59.4414C128.508 58.8789 128.094 58.2266 127.805 57.4844C127.516 56.7344 127.371 55.9375 127.371 55.0938V54.625C127.371 53.6641 127.508 52.7852 127.781 51.9883C128.055 51.1914 128.445 50.5 128.953 49.9141C129.469 49.3281 130.094 48.8789 130.828 48.5664C131.562 48.2461 132.391 48.0859 133.312 48.0859C134.211 48.0859 135.008 48.2344 135.703 48.5312C136.398 48.8281 136.98 49.25 137.449 49.7969C137.926 50.3438 138.285 51 138.527 51.7656C138.77 52.5234 138.891 53.3672 138.891 54.2969V55.7031H128.812V53.4531H135.574V53.1953C135.574 52.7266 135.488 52.3086 135.316 51.9414C135.152 51.5664 134.902 51.2695 134.566 51.0508C134.23 50.832 133.801 50.7227 133.277 50.7227C132.832 50.7227 132.449 50.8203 132.129 51.0156C131.809 51.2109 131.547 51.4844 131.344 51.8359C131.148 52.1875 131 52.6016 130.898 53.0781C130.805 53.5469 130.758 54.0625 130.758 54.625V55.0938C130.758 55.6016 130.828 56.0703 130.969 56.5C131.117 56.9297 131.324 57.3008 131.59 57.6133C131.863 57.9258 132.191 58.168 132.574 58.3398C132.965 58.5117 133.406 58.5977 133.898 58.5977C134.508 58.5977 135.074 58.4805 135.598 58.2461C136.129 58.0039 136.586 57.6406 136.969 57.1562L138.609 58.9375C138.344 59.3203 137.98 59.6875 137.52 60.0391C137.066 60.3906 136.52 60.6797 135.879 60.9062C135.238 61.125 134.508 61.2344 133.688 61.2344ZM144.188 51.0859V61H140.812V48.3203H143.988L144.188 51.0859ZM148.008 48.2383L147.949 51.3672C147.785 51.3438 147.586 51.3242 147.352 51.3086C147.125 51.2852 146.918 51.2734 146.73 51.2734C146.254 51.2734 145.84 51.3359 145.488 51.4609C145.145 51.5781 144.855 51.7539 144.621 51.9883C144.395 52.2227 144.223 52.5078 144.105 52.8438C143.996 53.1797 143.934 53.5625 143.918 53.9922L143.238 53.7812C143.238 52.9609 143.32 52.207 143.484 51.5195C143.648 50.8242 143.887 50.2188 144.199 49.7031C144.52 49.1875 144.91 48.7891 145.371 48.5078C145.832 48.2266 146.359 48.0859 146.953 48.0859C147.141 48.0859 147.332 48.1016 147.527 48.1328C147.723 48.1562 147.883 48.1914 148.008 48.2383ZM149.602 43H152.977V58.0938L152.637 61H149.602V43ZM161.004 54.5312V54.7773C161.004 55.7227 160.902 56.5898 160.699 57.3789C160.504 58.168 160.199 58.8516 159.785 59.4297C159.371 60 158.855 60.4453 158.238 60.7656C157.629 61.0781 156.91 61.2344 156.082 61.2344C155.309 61.2344 154.637 61.0781 154.066 60.7656C153.504 60.4531 153.031 60.0117 152.648 59.4414C152.266 58.8711 151.957 58.2031 151.723 57.4375C151.488 56.6719 151.312 55.8359 151.195 54.9297V54.3906C151.312 53.4844 151.488 52.6484 151.723 51.8828C151.957 51.1172 152.266 50.4492 152.648 49.8789C153.031 49.3086 153.504 48.8672 154.066 48.5547C154.629 48.2422 155.293 48.0859 156.059 48.0859C156.895 48.0859 157.621 48.2461 158.238 48.5664C158.863 48.8789 159.379 49.3242 159.785 49.9023C160.199 50.4727 160.504 51.1523 160.699 51.9414C160.902 52.7227 161.004 53.5859 161.004 54.5312ZM157.629 54.7773V54.5312C157.629 54.0156 157.59 53.5312 157.512 53.0781C157.441 52.6172 157.316 52.2148 157.137 51.8711C156.957 51.5195 156.711 51.2422 156.398 51.0391C156.094 50.8359 155.699 50.7344 155.215 50.7344C154.754 50.7344 154.363 50.8125 154.043 50.9688C153.723 51.125 153.457 51.3438 153.246 51.625C153.043 51.9062 152.891 52.2422 152.789 52.6328C152.688 53.0156 152.625 53.4375 152.602 53.8984V55.4336C152.625 56.0508 152.727 56.5977 152.906 57.0742C153.094 57.543 153.375 57.9141 153.75 58.1875C154.133 58.4531 154.629 58.5859 155.238 58.5859C155.715 58.5859 156.109 58.4922 156.422 58.3047C156.734 58.1172 156.977 57.8516 157.148 57.5078C157.328 57.1641 157.453 56.7617 157.523 56.3008C157.594 55.832 157.629 55.3242 157.629 54.7773ZM169.945 58.1406V52.4922C169.945 52.0859 169.879 51.7383 169.746 51.4492C169.613 51.1523 169.406 50.9219 169.125 50.7578C168.852 50.5938 168.496 50.5117 168.059 50.5117C167.684 50.5117 167.359 50.5781 167.086 50.7109C166.812 50.8359 166.602 51.0195 166.453 51.2617C166.305 51.4961 166.23 51.7734 166.23 52.0938H162.855C162.855 51.5547 162.98 51.043 163.23 50.5586C163.48 50.0742 163.844 49.6484 164.32 49.2812C164.797 48.9062 165.363 48.6133 166.02 48.4023C166.684 48.1914 167.426 48.0859 168.246 48.0859C169.23 48.0859 170.105 48.25 170.871 48.5781C171.637 48.9062 172.238 49.3984 172.676 50.0547C173.121 50.7109 173.344 51.5312 173.344 52.5156V57.9414C173.344 58.6367 173.387 59.207 173.473 59.6523C173.559 60.0898 173.684 60.4727 173.848 60.8008V61H170.438C170.273 60.6562 170.148 60.2266 170.062 59.7109C169.984 59.1875 169.945 58.6641 169.945 58.1406ZM170.391 53.2773L170.414 55.1875H168.527C168.082 55.1875 167.695 55.2383 167.367 55.3398C167.039 55.4414 166.77 55.5859 166.559 55.7734C166.348 55.9531 166.191 56.1641 166.09 56.4062C165.996 56.6484 165.949 56.9141 165.949 57.2031C165.949 57.4922 166.016 57.7539 166.148 57.9883C166.281 58.2148 166.473 58.3945 166.723 58.5273C166.973 58.6523 167.266 58.7148 167.602 58.7148C168.109 58.7148 168.551 58.6133 168.926 58.4102C169.301 58.207 169.59 57.957 169.793 57.6602C170.004 57.3633 170.113 57.082 170.121 56.8164L171.012 58.2461C170.887 58.5664 170.715 58.8984 170.496 59.2422C170.285 59.5859 170.016 59.9102 169.688 60.2148C169.359 60.5117 168.965 60.7578 168.504 60.9531C168.043 61.1406 167.496 61.2344 166.863 61.2344C166.059 61.2344 165.328 61.0742 164.672 60.7539C164.023 60.4258 163.508 59.9766 163.125 59.4062C162.75 58.8281 162.562 58.1719 162.562 57.4375C162.562 56.7734 162.688 56.1836 162.938 55.668C163.188 55.1523 163.555 54.7188 164.039 54.3672C164.531 54.0078 165.145 53.7383 165.879 53.5586C166.613 53.3711 167.465 53.2773 168.434 53.2773H170.391ZM179.508 43V61H176.121V43H179.508ZM189.188 53.5117H184.805L184.781 51.0977H188.461C189.109 51.0977 189.641 51.0156 190.055 50.8516C190.469 50.6797 190.777 50.4336 190.98 50.1133C191.191 49.7852 191.297 49.3867 191.297 48.918C191.297 48.3867 191.195 47.957 190.992 47.6289C190.797 47.3008 190.488 47.0625 190.066 46.9141C189.652 46.7656 189.117 46.6914 188.461 46.6914H186.023V61H182.508V43.9375H188.461C189.453 43.9375 190.34 44.0312 191.121 44.2188C191.91 44.4062 192.578 44.6914 193.125 45.0742C193.672 45.457 194.09 45.9414 194.379 46.5273C194.668 47.1055 194.812 47.793 194.812 48.5898C194.812 49.293 194.652 49.9414 194.332 50.5352C194.02 51.1289 193.523 51.6133 192.844 51.9883C192.172 52.3633 191.293 52.5703 190.207 52.6094L189.188 53.5117ZM189.035 61H183.844L185.215 58.2578H189.035C189.652 58.2578 190.156 58.1602 190.547 57.9648C190.938 57.7617 191.227 57.4883 191.414 57.1445C191.602 56.8008 191.695 56.4062 191.695 55.9609C191.695 55.4609 191.609 55.0273 191.438 54.6602C191.273 54.293 191.008 54.0117 190.641 53.8164C190.273 53.6133 189.789 53.5117 189.188 53.5117H185.801L185.824 51.0977H190.043L190.852 52.0469C191.891 52.0312 192.727 52.2148 193.359 52.5977C194 52.9727 194.465 53.4609 194.754 54.0625C195.051 54.6641 195.199 55.3086 195.199 55.9961C195.199 57.0898 194.961 58.0117 194.484 58.7617C194.008 59.5039 193.309 60.0625 192.387 60.4375C191.473 60.8125 190.355 61 189.035 61ZM197.086 54.7891V54.543C197.086 53.6133 197.219 52.7578 197.484 51.9766C197.75 51.1875 198.137 50.5039 198.645 49.9258C199.152 49.3477 199.777 48.8984 200.52 48.5781C201.262 48.25 202.113 48.0859 203.074 48.0859C204.035 48.0859 204.891 48.25 205.641 48.5781C206.391 48.8984 207.02 49.3477 207.527 49.9258C208.043 50.5039 208.434 51.1875 208.699 51.9766C208.965 52.7578 209.098 53.6133 209.098 54.543V54.7891C209.098 55.7109 208.965 56.5664 208.699 57.3555C208.434 58.1367 208.043 58.8203 207.527 59.4062C207.02 59.9844 206.395 60.4336 205.652 60.7539C204.91 61.0742 204.059 61.2344 203.098 61.2344C202.137 61.2344 201.281 61.0742 200.531 60.7539C199.789 60.4336 199.16 59.9844 198.645 59.4062C198.137 58.8203 197.75 58.1367 197.484 57.3555C197.219 56.5664 197.086 55.7109 197.086 54.7891ZM200.461 54.543V54.7891C200.461 55.3203 200.508 55.8164 200.602 56.2773C200.695 56.7383 200.844 57.1445 201.047 57.4961C201.258 57.8398 201.531 58.1094 201.867 58.3047C202.203 58.5 202.613 58.5977 203.098 58.5977C203.566 58.5977 203.969 58.5 204.305 58.3047C204.641 58.1094 204.91 57.8398 205.113 57.4961C205.316 57.1445 205.465 56.7383 205.559 56.2773C205.66 55.8164 205.711 55.3203 205.711 54.7891V54.543C205.711 54.0273 205.66 53.543 205.559 53.0898C205.465 52.6289 205.312 52.2227 205.102 51.8711C204.898 51.5117 204.629 51.2305 204.293 51.0273C203.957 50.8242 203.551 50.7227 203.074 50.7227C202.598 50.7227 202.191 50.8242 201.855 51.0273C201.527 51.2305 201.258 51.5117 201.047 51.8711C200.844 52.2227 200.695 52.6289 200.602 53.0898C200.508 53.543 200.461 54.0273 200.461 54.543ZM217.383 48.3203V50.7109H210V48.3203H217.383ZM211.828 45.1914H215.203V57.1797C215.203 57.5469 215.25 57.8281 215.344 58.0234C215.445 58.2188 215.594 58.3555 215.789 58.4336C215.984 58.5039 216.23 58.5391 216.527 58.5391C216.738 58.5391 216.926 58.5312 217.09 58.5156C217.262 58.4922 217.406 58.4688 217.523 58.4453L217.535 60.9297C217.246 61.0234 216.934 61.0977 216.598 61.1523C216.262 61.207 215.891 61.2344 215.484 61.2344C214.742 61.2344 214.094 61.1133 213.539 60.8711C212.992 60.6211 212.57 60.2227 212.273 59.6758C211.977 59.1289 211.828 58.4102 211.828 57.5195V45.1914ZM222.867 48.3203V61H219.48V48.3203H222.867ZM219.27 45.0156C219.27 44.5234 219.441 44.1172 219.785 43.7969C220.129 43.4766 220.59 43.3164 221.168 43.3164C221.738 43.3164 222.195 43.4766 222.539 43.7969C222.891 44.1172 223.066 44.5234 223.066 45.0156C223.066 45.5078 222.891 45.9141 222.539 46.2344C222.195 46.5547 221.738 46.7148 221.168 46.7148C220.59 46.7148 220.129 46.5547 219.785 46.2344C219.441 45.9141 219.27 45.5078 219.27 45.0156ZM230.895 58.5977C231.309 58.5977 231.676 58.5195 231.996 58.3633C232.316 58.1992 232.566 57.9727 232.746 57.6836C232.934 57.3867 233.031 57.0391 233.039 56.6406H236.215C236.207 57.5312 235.969 58.3242 235.5 59.0195C235.031 59.707 234.402 60.25 233.613 60.6484C232.824 61.0391 231.941 61.2344 230.965 61.2344C229.98 61.2344 229.121 61.0703 228.387 60.7422C227.66 60.4141 227.055 59.9609 226.57 59.3828C226.086 58.7969 225.723 58.1172 225.48 57.3438C225.238 56.5625 225.117 55.7266 225.117 54.8359V54.4961C225.117 53.5977 225.238 52.7617 225.48 51.9883C225.723 51.207 226.086 50.5273 226.57 49.9492C227.055 49.3633 227.66 48.9062 228.387 48.5781C229.113 48.25 229.965 48.0859 230.941 48.0859C231.98 48.0859 232.891 48.2852 233.672 48.6836C234.461 49.082 235.078 49.6523 235.523 50.3945C235.977 51.1289 236.207 52 236.215 53.0078H233.039C233.031 52.5859 232.941 52.2031 232.77 51.8594C232.605 51.5156 232.363 51.2422 232.043 51.0391C231.73 50.8281 231.344 50.7227 230.883 50.7227C230.391 50.7227 229.988 50.8281 229.676 51.0391C229.363 51.2422 229.121 51.5234 228.949 51.8828C228.777 52.2344 228.656 52.6367 228.586 53.0898C228.523 53.5352 228.492 54.0039 228.492 54.4961V54.8359C228.492 55.3281 228.523 55.8008 228.586 56.2539C228.648 56.707 228.766 57.1094 228.938 57.4609C229.117 57.8125 229.363 58.0898 229.676 58.293C229.988 58.4961 230.395 58.5977 230.895 58.5977Z" fill="#888888"/>
<path d="M114.117 84.875H122.344V107.164C122.344 109.82 121.789 112.07 120.68 113.914C119.57 115.742 118.016 117.125 116.016 118.062C114.016 119 111.664 119.469 108.961 119.469C106.289 119.469 103.938 119 101.906 118.062C99.8906 117.125 98.3125 115.742 97.1719 113.914C96.0469 112.07 95.4844 109.82 95.4844 107.164V84.875H103.734V107.164C103.734 108.57 103.938 109.719 104.344 110.609C104.75 111.484 105.344 112.125 106.125 112.531C106.906 112.938 107.852 113.141 108.961 113.141C110.086 113.141 111.031 112.938 111.797 112.531C112.562 112.125 113.141 111.484 113.531 110.609C113.922 109.719 114.117 108.57 114.117 107.164V84.875ZM134.906 99.0547V119H127.008V93.6406H134.414L134.906 99.0547ZM133.969 105.453L132.117 105.5C132.117 103.562 132.352 101.836 132.82 100.32C133.289 98.7891 133.953 97.4922 134.812 96.4297C135.672 95.3672 136.695 94.5625 137.883 94.0156C139.086 93.4531 140.422 93.1719 141.891 93.1719C143.062 93.1719 144.133 93.3438 145.102 93.6875C146.086 94.0312 146.93 94.5859 147.633 95.3516C148.352 96.1172 148.898 97.1328 149.273 98.3984C149.664 99.6484 149.859 101.195 149.859 103.039V119H141.914V103.016C141.914 102 141.773 101.227 141.492 100.695C141.211 100.148 140.805 99.7734 140.273 99.5703C139.742 99.3672 139.094 99.2656 138.328 99.2656C137.516 99.2656 136.828 99.4219 136.266 99.7344C135.703 100.047 135.25 100.484 134.906 101.047C134.578 101.594 134.336 102.242 134.18 102.992C134.039 103.742 133.969 104.562 133.969 105.453ZM162.586 93.6406V119H154.664V93.6406H162.586ZM154.195 87.1016C154.195 85.9766 154.602 85.0547 155.414 84.3359C156.227 83.6172 157.281 83.2578 158.578 83.2578C159.875 83.2578 160.93 83.6172 161.742 84.3359C162.555 85.0547 162.961 85.9766 162.961 87.1016C162.961 88.2266 162.555 89.1484 161.742 89.8672C160.93 90.5859 159.875 90.9453 158.578 90.9453C157.281 90.9453 156.227 90.5859 155.414 89.8672C154.602 89.1484 154.195 88.2266 154.195 87.1016ZM180.82 93.6406V99.125H165.539V93.6406H180.82ZM168.75 87.3359H176.648V110.727C176.648 111.398 176.727 111.922 176.883 112.297C177.039 112.656 177.305 112.914 177.68 113.07C178.07 113.211 178.586 113.281 179.227 113.281C179.68 113.281 180.055 113.273 180.352 113.258C180.648 113.227 180.93 113.188 181.195 113.141V118.789C180.523 119.008 179.82 119.172 179.086 119.281C178.352 119.406 177.57 119.469 176.742 119.469C175.055 119.469 173.609 119.203 172.406 118.672C171.219 118.141 170.312 117.305 169.688 116.164C169.062 115.023 168.75 113.539 168.75 111.711V87.3359ZM211.406 84.875V119H203.18V84.875H211.406ZM221.672 84.875V91.2266H193.148V84.875H221.672ZM234.961 119.469C232.898 119.469 231.055 119.148 229.43 118.508C227.805 117.852 226.43 116.953 225.305 115.812C224.195 114.672 223.344 113.359 222.75 111.875C222.172 110.391 221.883 108.82 221.883 107.164V106.273C221.883 104.414 222.141 102.695 222.656 101.117C223.172 99.5234 223.938 98.1328 224.953 96.9453C225.969 95.7578 227.242 94.8359 228.773 94.1797C230.305 93.5078 232.086 93.1719 234.117 93.1719C235.914 93.1719 237.523 93.4609 238.945 94.0391C240.367 94.6172 241.57 95.4453 242.555 96.5234C243.555 97.6016 244.312 98.9062 244.828 100.438C245.359 101.969 245.625 103.688 245.625 105.594V108.805H224.906V103.859H237.914V103.25C237.93 102.406 237.781 101.688 237.469 101.094C237.172 100.5 236.734 100.047 236.156 99.7344C235.578 99.4219 234.875 99.2656 234.047 99.2656C233.188 99.2656 232.477 99.4531 231.914 99.8281C231.367 100.203 230.938 100.719 230.625 101.375C230.328 102.016 230.117 102.758 229.992 103.602C229.867 104.445 229.805 105.336 229.805 106.273V107.164C229.805 108.102 229.93 108.953 230.18 109.719C230.445 110.484 230.82 111.141 231.305 111.688C231.805 112.219 232.398 112.633 233.086 112.93C233.789 113.227 234.586 113.375 235.477 113.375C236.555 113.375 237.617 113.172 238.664 112.766C239.711 112.359 240.609 111.688 241.359 110.75L244.945 115.016C244.43 115.75 243.695 116.461 242.742 117.148C241.805 117.836 240.68 118.398 239.367 118.836C238.055 119.258 236.586 119.469 234.961 119.469ZM262.125 111.875C262.125 111.438 261.977 111.062 261.68 110.75C261.398 110.422 260.898 110.125 260.18 109.859C259.461 109.578 258.453 109.297 257.156 109.016C255.922 108.75 254.758 108.398 253.664 107.961C252.586 107.523 251.641 106.992 250.828 106.367C250.016 105.742 249.375 105 248.906 104.141C248.453 103.281 248.227 102.297 248.227 101.188C248.227 100.109 248.453 99.0938 248.906 98.1406C249.375 97.1719 250.055 96.3203 250.945 95.5859C251.852 94.8359 252.953 94.25 254.25 93.8281C255.547 93.3906 257.023 93.1719 258.68 93.1719C260.961 93.1719 262.93 93.5234 264.586 94.2266C266.242 94.9141 267.516 95.8828 268.406 97.1328C269.312 98.3672 269.766 99.7969 269.766 101.422H261.867C261.867 100.781 261.758 100.234 261.539 99.7812C261.336 99.3281 261 98.9844 260.531 98.75C260.062 98.5 259.438 98.375 258.656 98.375C258.109 98.375 257.609 98.4766 257.156 98.6797C256.719 98.8828 256.367 99.1641 256.102 99.5234C255.836 99.8828 255.703 100.305 255.703 100.789C255.703 101.133 255.781 101.445 255.938 101.727C256.109 101.992 256.367 102.242 256.711 102.477C257.055 102.695 257.492 102.898 258.023 103.086C258.555 103.258 259.195 103.414 259.945 103.555C261.648 103.867 263.242 104.312 264.727 104.891C266.211 105.469 267.414 106.289 268.336 107.352C269.273 108.414 269.742 109.844 269.742 111.641C269.742 112.766 269.484 113.805 268.969 114.758C268.453 115.695 267.711 116.523 266.742 117.242C265.773 117.945 264.609 118.492 263.25 118.883C261.891 119.273 260.359 119.469 258.656 119.469C256.234 119.469 254.188 119.039 252.516 118.18C250.844 117.305 249.578 116.211 248.719 114.898C247.875 113.57 247.453 112.227 247.453 110.867H254.812C254.844 111.648 255.031 112.289 255.375 112.789C255.734 113.289 256.211 113.656 256.805 113.891C257.398 114.125 258.086 114.242 258.867 114.242C259.586 114.242 260.18 114.141 260.648 113.938C261.133 113.734 261.5 113.461 261.75 113.117C262 112.758 262.125 112.344 262.125 111.875ZM286.805 93.6406V99.125H271.523V93.6406H286.805ZM274.734 87.3359H282.633V110.727C282.633 111.398 282.711 111.922 282.867 112.297C283.023 112.656 283.289 112.914 283.664 113.07C284.055 113.211 284.57 113.281 285.211 113.281C285.664 113.281 286.039 113.273 286.336 113.258C286.633 113.227 286.914 113.188 287.18 113.141V118.789C286.508 119.008 285.805 119.172 285.07 119.281C284.336 119.406 283.555 119.469 282.727 119.469C281.039 119.469 279.594 119.203 278.391 118.672C277.203 118.141 276.297 117.305 275.672 116.164C275.047 115.023 274.734 113.539 274.734 111.711V87.3359ZM298.289 93.6406V119H290.367V93.6406H298.289ZM289.898 87.1016C289.898 85.9766 290.305 85.0547 291.117 84.3359C291.93 83.6172 292.984 83.2578 294.281 83.2578C295.578 83.2578 296.633 83.6172 297.445 84.3359C298.258 85.0547 298.664 85.9766 298.664 87.1016C298.664 88.2266 298.258 89.1484 297.445 89.8672C296.633 90.5859 295.578 90.9453 294.281 90.9453C292.984 90.9453 291.93 90.5859 291.117 89.8672C290.305 89.1484 289.898 88.2266 289.898 87.1016ZM310.922 99.0547V119H303.023V93.6406H310.43L310.922 99.0547ZM309.984 105.453L308.133 105.5C308.133 103.562 308.367 101.836 308.836 100.32C309.305 98.7891 309.969 97.4922 310.828 96.4297C311.688 95.3672 312.711 94.5625 313.898 94.0156C315.102 93.4531 316.438 93.1719 317.906 93.1719C319.078 93.1719 320.148 93.3438 321.117 93.6875C322.102 94.0312 322.945 94.5859 323.648 95.3516C324.367 96.1172 324.914 97.1328 325.289 98.3984C325.68 99.6484 325.875 101.195 325.875 103.039V119H317.93V103.016C317.93 102 317.789 101.227 317.508 100.695C317.227 100.148 316.82 99.7734 316.289 99.5703C315.758 99.3672 315.109 99.2656 314.344 99.2656C313.531 99.2656 312.844 99.4219 312.281 99.7344C311.719 100.047 311.266 100.484 310.922 101.047C310.594 101.594 310.352 102.242 310.195 102.992C310.055 103.742 309.984 104.562 309.984 105.453ZM346.195 93.6406H353.367V118.016C353.367 120.359 352.828 122.344 351.75 123.969C350.672 125.609 349.164 126.852 347.227 127.695C345.305 128.555 343.055 128.984 340.477 128.984C339.336 128.984 338.172 128.836 336.984 128.539C335.797 128.258 334.688 127.836 333.656 127.273C332.625 126.711 331.758 126.016 331.055 125.188L334.359 120.547C335 121.266 335.805 121.875 336.773 122.375C337.742 122.891 338.883 123.148 340.195 123.148C341.336 123.148 342.289 122.945 343.055 122.539C343.836 122.133 344.43 121.539 344.836 120.758C345.242 119.992 345.445 119.062 345.445 117.969V99.6406L346.195 93.6406ZM329.344 106.625V106.133C329.344 104.211 329.578 102.461 330.047 100.883C330.531 99.2891 331.219 97.9219 332.109 96.7812C333.016 95.625 334.109 94.7344 335.391 94.1094C336.672 93.4844 338.117 93.1719 339.727 93.1719C341.461 93.1719 342.883 93.5078 343.992 94.1797C345.117 94.8359 346.016 95.7578 346.688 96.9453C347.375 98.1328 347.906 99.5234 348.281 101.117C348.672 102.695 349 104.398 349.266 106.227V106.812C349 108.531 348.633 110.156 348.164 111.688C347.711 113.203 347.117 114.547 346.383 115.719C345.648 116.891 344.727 117.812 343.617 118.484C342.523 119.141 341.211 119.469 339.68 119.469C338.086 119.469 336.648 119.148 335.367 118.508C334.102 117.867 333.016 116.969 332.109 115.812C331.219 114.656 330.531 113.297 330.047 111.734C329.578 110.172 329.344 108.469 329.344 106.625ZM337.242 106.133V106.625C337.242 107.578 337.328 108.461 337.5 109.273C337.688 110.086 337.969 110.805 338.344 111.43C338.719 112.039 339.18 112.516 339.727 112.859C340.289 113.203 340.945 113.375 341.695 113.375C342.836 113.375 343.758 113.133 344.461 112.648C345.164 112.164 345.672 111.477 345.984 110.586C346.297 109.695 346.43 108.648 346.383 107.445V105.594C346.414 104.562 346.344 103.656 346.172 102.875C346 102.078 345.727 101.414 345.352 100.883C344.992 100.352 344.508 99.9531 343.898 99.6875C343.305 99.4062 342.586 99.2656 341.742 99.2656C341.008 99.2656 340.359 99.4375 339.797 99.7812C339.234 100.125 338.766 100.609 338.391 101.234C338.016 101.844 337.727 102.57 337.523 103.414C337.336 104.242 337.242 105.148 337.242 106.133Z" fill="black"/>
<path d="M1134 0H1348C1356.28 0 1363 6.71573 1363 15V148C1363 156.284 1356.28 163 1348 163H1134V0Z" fill="#FFE4C4"/>
<path d="M1210.62 43.625H1286.38V119.375H1210.62V43.625Z" fill="white" fill-opacity="0.01"/>
<path d="M1276.91 72.0312V105.172C1276.91 107.787 1274.79 109.906 1272.17 109.906H1224.83C1222.21 109.906 1220.09 107.787 1220.09 105.172V57.8281C1220.09 55.2134 1222.21 53.0938 1224.83 53.0938H1261.12" stroke="white" stroke-width="7.24" stroke-linecap="round" stroke-linejoin="round"/>
<path d="M1232.72 75.1875L1248.5 87.8125L1276.91 53.0938" stroke="white" stroke-width="7.24" stroke-linecap="round" stroke-linejoin="round"/>
</svg>
