<svg width="1363" height="163" viewBox="0 0 1363 163" fill="none" xmlns="http://www.w3.org/2000/svg">
<path d="M0 15C0 6.71573 6.71573 0 15 0H37V163H15C6.71573 163 0 156.284 0 148V15Z" fill="#424242"/>
<rect width="1097" height="163" transform="translate(37)" fill="#F0F0F0"/>
<path d="M101.906 53.9219L94.3945 51.2383V48.0859L104.602 52.375V54.6367L101.906 53.9219ZM94.3945 56.1719L101.918 53.4297L104.602 52.7852V55.0352L94.3945 59.3242V56.1719ZM119.051 57.4375L123.07 43.9375H126.984L121.043 61H118.465L119.051 57.4375ZM115.348 43.9375L119.355 57.4375L119.965 61H117.363L111.457 43.9375H115.348ZM133.688 61.2344C132.703 61.2344 131.82 61.0781 131.039 60.7656C130.258 60.4453 129.594 60.0039 129.047 59.4414C128.508 58.8789 128.094 58.2266 127.805 57.4844C127.516 56.7344 127.371 55.9375 127.371 55.0938V54.625C127.371 53.6641 127.508 52.7852 127.781 51.9883C128.055 51.1914 128.445 50.5 128.953 49.9141C129.469 49.3281 130.094 48.8789 130.828 48.5664C131.562 48.2461 132.391 48.0859 133.312 48.0859C134.211 48.0859 135.008 48.2344 135.703 48.5312C136.398 48.8281 136.98 49.25 137.449 49.7969C137.926 50.3438 138.285 51 138.527 51.7656C138.77 52.5234 138.891 53.3672 138.891 54.2969V55.7031H128.812V53.4531H135.574V53.1953C135.574 52.7266 135.488 52.3086 135.316 51.9414C135.152 51.5664 134.902 51.2695 134.566 51.0508C134.23 50.832 133.801 50.7227 133.277 50.7227C132.832 50.7227 132.449 50.8203 132.129 51.0156C131.809 51.2109 131.547 51.4844 131.344 51.8359C131.148 52.1875 131 52.6016 130.898 53.0781C130.805 53.5469 130.758 54.0625 130.758 54.625V55.0938C130.758 55.6016 130.828 56.0703 130.969 56.5C131.117 56.9297 131.324 57.3008 131.59 57.6133C131.863 57.9258 132.191 58.168 132.574 58.3398C132.965 58.5117 133.406 58.5977 133.898 58.5977C134.508 58.5977 135.074 58.4805 135.598 58.2461C136.129 58.0039 136.586 57.6406 136.969 57.1562L138.609 58.9375C138.344 59.3203 137.98 59.6875 137.52 60.0391C137.066 60.3906 136.52 60.6797 135.879 60.9062C135.238 61.125 134.508 61.2344 133.688 61.2344ZM144.188 51.0859V61H140.812V48.3203H143.988L144.188 51.0859ZM148.008 48.2383L147.949 51.3672C147.785 51.3438 147.586 51.3242 147.352 51.3086C147.125 51.2852 146.918 51.2734 146.73 51.2734C146.254 51.2734 145.84 51.3359 145.488 51.4609C145.145 51.5781 144.855 51.7539 144.621 51.9883C144.395 52.2227 144.223 52.5078 144.105 52.8438C143.996 53.1797 143.934 53.5625 143.918 53.9922L143.238 53.7812C143.238 52.9609 143.32 52.207 143.484 51.5195C143.648 50.8242 143.887 50.2188 144.199 49.7031C144.52 49.1875 144.91 48.7891 145.371 48.5078C145.832 48.2266 146.359 48.0859 146.953 48.0859C147.141 48.0859 147.332 48.1016 147.527 48.1328C147.723 48.1562 147.883 48.1914 148.008 48.2383ZM149.602 43H152.977V58.0938L152.637 61H149.602V43ZM161.004 54.5312V54.7773C161.004 55.7227 160.902 56.5898 160.699 57.3789C160.504 58.168 160.199 58.8516 159.785 59.4297C159.371 60 158.855 60.4453 158.238 60.7656C157.629 61.0781 156.91 61.2344 156.082 61.2344C155.309 61.2344 154.637 61.0781 154.066 60.7656C153.504 60.4531 153.031 60.0117 152.648 59.4414C152.266 58.8711 151.957 58.2031 151.723 57.4375C151.488 56.6719 151.312 55.8359 151.195 54.9297V54.3906C151.312 53.4844 151.488 52.6484 151.723 51.8828C151.957 51.1172 152.266 50.4492 152.648 49.8789C153.031 49.3086 153.504 48.8672 154.066 48.5547C154.629 48.2422 155.293 48.0859 156.059 48.0859C156.895 48.0859 157.621 48.2461 158.238 48.5664C158.863 48.8789 159.379 49.3242 159.785 49.9023C160.199 50.4727 160.504 51.1523 160.699 51.9414C160.902 52.7227 161.004 53.5859 161.004 54.5312ZM157.629 54.7773V54.5312C157.629 54.0156 157.59 53.5312 157.512 53.0781C157.441 52.6172 157.316 52.2148 157.137 51.8711C156.957 51.5195 156.711 51.2422 156.398 51.0391C156.094 50.8359 155.699 50.7344 155.215 50.7344C154.754 50.7344 154.363 50.8125 154.043 50.9688C153.723 51.125 153.457 51.3438 153.246 51.625C153.043 51.9062 152.891 52.2422 152.789 52.6328C152.688 53.0156 152.625 53.4375 152.602 53.8984V55.4336C152.625 56.0508 152.727 56.5977 152.906 57.0742C153.094 57.543 153.375 57.9141 153.75 58.1875C154.133 58.4531 154.629 58.5859 155.238 58.5859C155.715 58.5859 156.109 58.4922 156.422 58.3047C156.734 58.1172 156.977 57.8516 157.148 57.5078C157.328 57.1641 157.453 56.7617 157.523 56.3008C157.594 55.832 157.629 55.3242 157.629 54.7773ZM169.945 58.1406V52.4922C169.945 52.0859 169.879 51.7383 169.746 51.4492C169.613 51.1523 169.406 50.9219 169.125 50.7578C168.852 50.5938 168.496 50.5117 168.059 50.5117C167.684 50.5117 167.359 50.5781 167.086 50.7109C166.812 50.8359 166.602 51.0195 166.453 51.2617C166.305 51.4961 166.23 51.7734 166.23 52.0938H162.855C162.855 51.5547 162.98 51.043 163.23 50.5586C163.48 50.0742 163.844 49.6484 164.32 49.2812C164.797 48.9062 165.363 48.6133 166.02 48.4023C166.684 48.1914 167.426 48.0859 168.246 48.0859C169.23 48.0859 170.105 48.25 170.871 48.5781C171.637 48.9062 172.238 49.3984 172.676 50.0547C173.121 50.7109 173.344 51.5312 173.344 52.5156V57.9414C173.344 58.6367 173.387 59.207 173.473 59.6523C173.559 60.0898 173.684 60.4727 173.848 60.8008V61H170.438C170.273 60.6562 170.148 60.2266 170.062 59.7109C169.984 59.1875 169.945 58.6641 169.945 58.1406ZM170.391 53.2773L170.414 55.1875H168.527C168.082 55.1875 167.695 55.2383 167.367 55.3398C167.039 55.4414 166.77 55.5859 166.559 55.7734C166.348 55.9531 166.191 56.1641 166.09 56.4062C165.996 56.6484 165.949 56.9141 165.949 57.2031C165.949 57.4922 166.016 57.7539 166.148 57.9883C166.281 58.2148 166.473 58.3945 166.723 58.5273C166.973 58.6523 167.266 58.7148 167.602 58.7148C168.109 58.7148 168.551 58.6133 168.926 58.4102C169.301 58.207 169.59 57.957 169.793 57.6602C170.004 57.3633 170.113 57.082 170.121 56.8164L171.012 58.2461C170.887 58.5664 170.715 58.8984 170.496 59.2422C170.285 59.5859 170.016 59.9102 169.688 60.2148C169.359 60.5117 168.965 60.7578 168.504 60.9531C168.043 61.1406 167.496 61.2344 166.863 61.2344C166.059 61.2344 165.328 61.0742 164.672 60.7539C164.023 60.4258 163.508 59.9766 163.125 59.4062C162.75 58.8281 162.562 58.1719 162.562 57.4375C162.562 56.7734 162.688 56.1836 162.938 55.668C163.188 55.1523 163.555 54.7188 164.039 54.3672C164.531 54.0078 165.145 53.7383 165.879 53.5586C166.613 53.3711 167.465 53.2773 168.434 53.2773H170.391ZM179.508 43V61H176.121V43H179.508ZM189.188 53.5117H184.805L184.781 51.0977H188.461C189.109 51.0977 189.641 51.0156 190.055 50.8516C190.469 50.6797 190.777 50.4336 190.98 50.1133C191.191 49.7852 191.297 49.3867 191.297 48.918C191.297 48.3867 191.195 47.957 190.992 47.6289C190.797 47.3008 190.488 47.0625 190.066 46.9141C189.652 46.7656 189.117 46.6914 188.461 46.6914H186.023V61H182.508V43.9375H188.461C189.453 43.9375 190.34 44.0312 191.121 44.2188C191.91 44.4062 192.578 44.6914 193.125 45.0742C193.672 45.457 194.09 45.9414 194.379 46.5273C194.668 47.1055 194.812 47.793 194.812 48.5898C194.812 49.293 194.652 49.9414 194.332 50.5352C194.02 51.1289 193.523 51.6133 192.844 51.9883C192.172 52.3633 191.293 52.5703 190.207 52.6094L189.188 53.5117ZM189.035 61H183.844L185.215 58.2578H189.035C189.652 58.2578 190.156 58.1602 190.547 57.9648C190.938 57.7617 191.227 57.4883 191.414 57.1445C191.602 56.8008 191.695 56.4062 191.695 55.9609C191.695 55.4609 191.609 55.0273 191.438 54.6602C191.273 54.293 191.008 54.0117 190.641 53.8164C190.273 53.6133 189.789 53.5117 189.188 53.5117H185.801L185.824 51.0977H190.043L190.852 52.0469C191.891 52.0312 192.727 52.2148 193.359 52.5977C194 52.9727 194.465 53.4609 194.754 54.0625C195.051 54.6641 195.199 55.3086 195.199 55.9961C195.199 57.0898 194.961 58.0117 194.484 58.7617C194.008 59.5039 193.309 60.0625 192.387 60.4375C191.473 60.8125 190.355 61 189.035 61ZM197.086 54.7891V54.543C197.086 53.6133 197.219 52.7578 197.484 51.9766C197.75 51.1875 198.137 50.5039 198.645 49.9258C199.152 49.3477 199.777 48.8984 200.52 48.5781C201.262 48.25 202.113 48.0859 203.074 48.0859C204.035 48.0859 204.891 48.25 205.641 48.5781C206.391 48.8984 207.02 49.3477 207.527 49.9258C208.043 50.5039 208.434 51.1875 208.699 51.9766C208.965 52.7578 209.098 53.6133 209.098 54.543V54.7891C209.098 55.7109 208.965 56.5664 208.699 57.3555C208.434 58.1367 208.043 58.8203 207.527 59.4062C207.02 59.9844 206.395 60.4336 205.652 60.7539C204.91 61.0742 204.059 61.2344 203.098 61.2344C202.137 61.2344 201.281 61.0742 200.531 60.7539C199.789 60.4336 199.16 59.9844 198.645 59.4062C198.137 58.8203 197.75 58.1367 197.484 57.3555C197.219 56.5664 197.086 55.7109 197.086 54.7891ZM200.461 54.543V54.7891C200.461 55.3203 200.508 55.8164 200.602 56.2773C200.695 56.7383 200.844 57.1445 201.047 57.4961C201.258 57.8398 201.531 58.1094 201.867 58.3047C202.203 58.5 202.613 58.5977 203.098 58.5977C203.566 58.5977 203.969 58.5 204.305 58.3047C204.641 58.1094 204.91 57.8398 205.113 57.4961C205.316 57.1445 205.465 56.7383 205.559 56.2773C205.66 55.8164 205.711 55.3203 205.711 54.7891V54.543C205.711 54.0273 205.66 53.543 205.559 53.0898C205.465 52.6289 205.312 52.2227 205.102 51.8711C204.898 51.5117 204.629 51.2305 204.293 51.0273C203.957 50.8242 203.551 50.7227 203.074 50.7227C202.598 50.7227 202.191 50.8242 201.855 51.0273C201.527 51.2305 201.258 51.5117 201.047 51.8711C200.844 52.2227 200.695 52.6289 200.602 53.0898C200.508 53.543 200.461 54.0273 200.461 54.543ZM217.383 48.3203V50.7109H210V48.3203H217.383ZM211.828 45.1914H215.203V57.1797C215.203 57.5469 215.25 57.8281 215.344 58.0234C215.445 58.2188 215.594 58.3555 215.789 58.4336C215.984 58.5039 216.23 58.5391 216.527 58.5391C216.738 58.5391 216.926 58.5312 217.09 58.5156C217.262 58.4922 217.406 58.4688 217.523 58.4453L217.535 60.9297C217.246 61.0234 216.934 61.0977 216.598 61.1523C216.262 61.207 215.891 61.2344 215.484 61.2344C214.742 61.2344 214.094 61.1133 213.539 60.8711C212.992 60.6211 212.57 60.2227 212.273 59.6758C211.977 59.1289 211.828 58.4102 211.828 57.5195V45.1914ZM222.867 48.3203V61H219.48V48.3203H222.867ZM219.27 45.0156C219.27 44.5234 219.441 44.1172 219.785 43.7969C220.129 43.4766 220.59 43.3164 221.168 43.3164C221.738 43.3164 222.195 43.4766 222.539 43.7969C222.891 44.1172 223.066 44.5234 223.066 45.0156C223.066 45.5078 222.891 45.9141 222.539 46.2344C222.195 46.5547 221.738 46.7148 221.168 46.7148C220.59 46.7148 220.129 46.5547 219.785 46.2344C219.441 45.9141 219.27 45.5078 219.27 45.0156ZM230.895 58.5977C231.309 58.5977 231.676 58.5195 231.996 58.3633C232.316 58.1992 232.566 57.9727 232.746 57.6836C232.934 57.3867 233.031 57.0391 233.039 56.6406H236.215C236.207 57.5312 235.969 58.3242 235.5 59.0195C235.031 59.707 234.402 60.25 233.613 60.6484C232.824 61.0391 231.941 61.2344 230.965 61.2344C229.98 61.2344 229.121 61.0703 228.387 60.7422C227.66 60.4141 227.055 59.9609 226.57 59.3828C226.086 58.7969 225.723 58.1172 225.48 57.3438C225.238 56.5625 225.117 55.7266 225.117 54.8359V54.4961C225.117 53.5977 225.238 52.7617 225.48 51.9883C225.723 51.207 226.086 50.5273 226.57 49.9492C227.055 49.3633 227.66 48.9062 228.387 48.5781C229.113 48.25 229.965 48.0859 230.941 48.0859C231.98 48.0859 232.891 48.2852 233.672 48.6836C234.461 49.082 235.078 49.6523 235.523 50.3945C235.977 51.1289 236.207 52 236.215 53.0078H233.039C233.031 52.5859 232.941 52.2031 232.77 51.8594C232.605 51.5156 232.363 51.2422 232.043 51.0391C231.73 50.8281 231.344 50.7227 230.883 50.7227C230.391 50.7227 229.988 50.8281 229.676 51.0391C229.363 51.2422 229.121 51.5234 228.949 51.8828C228.777 52.2344 228.656 52.6367 228.586 53.0898C228.523 53.5352 228.492 54.0039 228.492 54.4961V54.8359C228.492 55.3281 228.523 55.8008 228.586 56.2539C228.648 56.707 228.766 57.1094 228.938 57.4609C229.117 57.8125 229.363 58.0898 229.676 58.293C229.988 58.4961 230.395 58.5977 230.895 58.5977Z" fill="#888888"/>
<path d="M110.062 92.0469L101.742 119H92.9062L105.445 84.875H111.047L110.062 92.0469ZM116.953 119L108.609 92.0469L107.531 84.875H113.203L125.812 119H116.953ZM116.625 106.273V112.625H99.1172V106.273H116.625ZM135.258 115.906L142.055 84.875H146.109L148.312 87.5234L141.07 119H136.594L135.258 115.906ZM133.453 84.875L139.195 116.141L137.719 119H132.539L125.297 84.875H133.453ZM152.039 115.977L157.734 84.875H165.867L158.625 119H153.469L152.039 115.977ZM149.039 84.875L156 116.094L154.594 119H150.117L142.711 87.4766L145.008 84.875H149.039ZM186.68 109.93C186.68 109.398 186.602 108.922 186.445 108.5C186.289 108.062 186 107.656 185.578 107.281C185.156 106.906 184.547 106.531 183.75 106.156C182.969 105.766 181.938 105.359 180.656 104.938C179.156 104.438 177.711 103.875 176.32 103.25C174.93 102.609 173.688 101.867 172.594 101.023C171.5 100.164 170.633 99.1641 169.992 98.0234C169.352 96.8672 169.031 95.5234 169.031 93.9922C169.031 92.5234 169.359 91.2031 170.016 90.0312C170.672 88.8438 171.586 87.8359 172.758 87.0078C173.945 86.1641 175.336 85.5234 176.93 85.0859C178.523 84.6328 180.266 84.4062 182.156 84.4062C184.656 84.4062 186.859 84.8438 188.766 85.7188C190.688 86.5781 192.188 87.8047 193.266 89.3984C194.359 90.9766 194.906 92.8438 194.906 95H186.727C186.727 94.1406 186.547 93.3828 186.188 92.7266C185.844 92.0703 185.32 91.5547 184.617 91.1797C183.914 90.8047 183.031 90.6172 181.969 90.6172C180.938 90.6172 180.07 90.7734 179.367 91.0859C178.664 91.3984 178.133 91.8203 177.773 92.3516C177.414 92.8672 177.234 93.4375 177.234 94.0625C177.234 94.5781 177.375 95.0469 177.656 95.4688C177.953 95.875 178.367 96.2578 178.898 96.6172C179.445 96.9766 180.102 97.3203 180.867 97.6484C181.648 97.9766 182.523 98.2969 183.492 98.6094C185.305 99.1875 186.914 99.8359 188.32 100.555C189.742 101.258 190.938 102.062 191.906 102.969C192.891 103.859 193.633 104.875 194.133 106.016C194.648 107.156 194.906 108.445 194.906 109.883C194.906 111.414 194.609 112.773 194.016 113.961C193.422 115.148 192.57 116.156 191.461 116.984C190.352 117.797 189.023 118.414 187.477 118.836C185.93 119.258 184.203 119.469 182.297 119.469C180.547 119.469 178.82 119.25 177.117 118.812C175.43 118.359 173.898 117.672 172.523 116.75C171.148 115.812 170.047 114.617 169.219 113.164C168.406 111.695 168 109.953 168 107.938H176.25C176.25 108.938 176.383 109.781 176.648 110.469C176.914 111.156 177.305 111.711 177.82 112.133C178.336 112.539 178.969 112.836 179.719 113.023C180.469 113.195 181.328 113.281 182.297 113.281C183.344 113.281 184.188 113.133 184.828 112.836C185.469 112.523 185.938 112.117 186.234 111.617C186.531 111.102 186.68 110.539 186.68 109.93ZM222.188 119H214.617L214.664 112.672H222.188C223.75 112.672 225.07 112.297 226.148 111.547C227.242 110.797 228.07 109.68 228.633 108.195C229.211 106.695 229.5 104.852 229.5 102.664V101.188C229.5 99.5469 229.336 98.1094 229.008 96.875C228.695 95.625 228.227 94.5859 227.602 93.7578C226.977 92.9141 226.195 92.2812 225.258 91.8594C224.336 91.4375 223.273 91.2266 222.07 91.2266H214.477V84.875H222.07C224.383 84.875 226.5 85.2734 228.422 86.0703C230.359 86.8516 232.031 87.9766 233.438 89.4453C234.859 90.8984 235.953 92.625 236.719 94.625C237.5 96.6094 237.891 98.8125 237.891 101.234V102.664C237.891 105.07 237.5 107.273 236.719 109.273C235.953 111.273 234.867 113 233.461 114.453C232.055 115.906 230.391 117.031 228.469 117.828C226.562 118.609 224.469 119 222.188 119ZM219.328 84.875V119H211.102V84.875H219.328ZM254.086 119.469C252.023 119.469 250.18 119.148 248.555 118.508C246.93 117.852 245.555 116.953 244.43 115.812C243.32 114.672 242.469 113.359 241.875 111.875C241.297 110.391 241.008 108.82 241.008 107.164V106.273C241.008 104.414 241.266 102.695 241.781 101.117C242.297 99.5234 243.062 98.1328 244.078 96.9453C245.094 95.7578 246.367 94.8359 247.898 94.1797C249.43 93.5078 251.211 93.1719 253.242 93.1719C255.039 93.1719 256.648 93.4609 258.07 94.0391C259.492 94.6172 260.695 95.4453 261.68 96.5234C262.68 97.6016 263.438 98.9062 263.953 100.438C264.484 101.969 264.75 103.688 264.75 105.594V108.805H244.031V103.859H257.039V103.25C257.055 102.406 256.906 101.688 256.594 101.094C256.297 100.5 255.859 100.047 255.281 99.7344C254.703 99.4219 254 99.2656 253.172 99.2656C252.312 99.2656 251.602 99.4531 251.039 99.8281C250.492 100.203 250.062 100.719 249.75 101.375C249.453 102.016 249.242 102.758 249.117 103.602C248.992 104.445 248.93 105.336 248.93 106.273V107.164C248.93 108.102 249.055 108.953 249.305 109.719C249.57 110.484 249.945 111.141 250.43 111.688C250.93 112.219 251.523 112.633 252.211 112.93C252.914 113.227 253.711 113.375 254.602 113.375C255.68 113.375 256.742 113.172 257.789 112.766C258.836 112.359 259.734 111.688 260.484 110.75L264.07 115.016C263.555 115.75 262.82 116.461 261.867 117.148C260.93 117.836 259.805 118.398 258.492 118.836C257.18 119.258 255.711 119.469 254.086 119.469ZM275.93 98.5156V128.75H268.031V93.6406H275.391L275.93 98.5156ZM291.492 106.016V106.508C291.492 108.352 291.281 110.062 290.859 111.641C290.438 113.219 289.812 114.594 288.984 115.766C288.156 116.938 287.125 117.852 285.891 118.508C284.672 119.148 283.258 119.469 281.648 119.469C280.133 119.469 278.828 119.133 277.734 118.461C276.641 117.789 275.727 116.859 274.992 115.672C274.258 114.484 273.664 113.125 273.211 111.594C272.758 110.062 272.398 108.445 272.133 106.742V106.109C272.398 104.281 272.758 102.586 273.211 101.023C273.664 99.4453 274.258 98.0703 274.992 96.8984C275.727 95.7266 276.633 94.8125 277.711 94.1562C278.805 93.5 280.109 93.1719 281.625 93.1719C283.234 93.1719 284.648 93.4766 285.867 94.0859C287.102 94.6953 288.133 95.5703 288.961 96.7109C289.805 97.8359 290.438 99.1875 290.859 100.766C291.281 102.344 291.492 104.094 291.492 106.016ZM283.594 106.508V106.016C283.594 105.031 283.523 104.133 283.383 103.32C283.242 102.492 283.016 101.773 282.703 101.164C282.406 100.555 282.008 100.086 281.508 99.7578C281.008 99.4297 280.391 99.2656 279.656 99.2656C278.812 99.2656 278.102 99.3984 277.523 99.6641C276.961 99.9141 276.508 100.305 276.164 100.836C275.836 101.352 275.602 102 275.461 102.781C275.336 103.547 275.281 104.445 275.297 105.477V107.398C275.266 108.586 275.383 109.633 275.648 110.539C275.914 111.43 276.375 112.125 277.031 112.625C277.688 113.125 278.578 113.375 279.703 113.375C280.453 113.375 281.078 113.203 281.578 112.859C282.078 112.5 282.477 112.008 282.773 111.383C283.07 110.742 283.281 110.008 283.406 109.18C283.531 108.352 283.594 107.461 283.594 106.508ZM303.352 83V119H295.43V83H303.352ZM307.242 106.578V106.086C307.242 104.227 307.508 102.516 308.039 100.953C308.57 99.375 309.352 98.0078 310.383 96.8516C311.414 95.6953 312.688 94.7969 314.203 94.1562C315.719 93.5 317.469 93.1719 319.453 93.1719C321.453 93.1719 323.211 93.5 324.727 94.1562C326.258 94.7969 327.539 95.6953 328.57 96.8516C329.602 98.0078 330.383 99.375 330.914 100.953C331.445 102.516 331.711 104.227 331.711 106.086V106.578C331.711 108.422 331.445 110.133 330.914 111.711C330.383 113.273 329.602 114.641 328.57 115.812C327.539 116.969 326.266 117.867 324.75 118.508C323.234 119.148 321.484 119.469 319.5 119.469C317.516 119.469 315.758 119.148 314.227 118.508C312.695 117.867 311.414 116.969 310.383 115.812C309.352 114.641 308.57 113.273 308.039 111.711C307.508 110.133 307.242 108.422 307.242 106.578ZM315.141 106.086V106.578C315.141 107.531 315.211 108.422 315.352 109.25C315.492 110.078 315.727 110.805 316.055 111.43C316.383 112.039 316.828 112.516 317.391 112.859C317.953 113.203 318.656 113.375 319.5 113.375C320.328 113.375 321.016 113.203 321.562 112.859C322.125 112.516 322.57 112.039 322.898 111.43C323.227 110.805 323.461 110.078 323.602 109.25C323.742 108.422 323.812 107.531 323.812 106.578V106.086C323.812 105.164 323.742 104.297 323.602 103.484C323.461 102.656 323.227 101.93 322.898 101.305C322.57 100.664 322.125 100.164 321.562 99.8047C321 99.4453 320.297 99.2656 319.453 99.2656C318.625 99.2656 317.93 99.4453 317.367 99.8047C316.82 100.164 316.383 100.664 316.055 101.305C315.727 101.93 315.492 102.656 315.352 103.484C315.211 104.297 315.141 105.164 315.141 106.086ZM342.633 116.023L349.195 93.6406H357.68L347.484 122.773C347.266 123.414 346.977 124.102 346.617 124.836C346.258 125.586 345.766 126.297 345.141 126.969C344.516 127.641 343.711 128.188 342.727 128.609C341.758 129.031 340.555 129.242 339.117 129.242C338.352 129.242 337.789 129.203 337.43 129.125C337.086 129.062 336.555 128.945 335.836 128.773V123.125C336.039 123.125 336.211 123.125 336.352 123.125C336.508 123.125 336.68 123.125 336.867 123.125C337.711 123.125 338.383 123.039 338.883 122.867C339.398 122.695 339.789 122.445 340.055 122.117C340.336 121.789 340.555 121.391 340.711 120.922L342.633 116.023ZM340.969 93.6406L345.961 111.383L346.828 119.75H341.531L332.508 93.6406H340.969ZM367.711 99.0078V119H359.812V93.6406H367.219L367.711 99.0078ZM366.75 105.453L364.945 105.5C364.945 103.719 365.156 102.078 365.578 100.578C366 99.0781 366.625 97.7734 367.453 96.6641C368.281 95.5547 369.297 94.6953 370.5 94.0859C371.719 93.4766 373.125 93.1719 374.719 93.1719C375.828 93.1719 376.836 93.3438 377.742 93.6875C378.648 94.0156 379.43 94.5391 380.086 95.2578C380.742 95.9609 381.242 96.8828 381.586 98.0234C381.945 99.1484 382.125 100.5 382.125 102.078V119H374.227V103.086C374.227 102.008 374.102 101.195 373.852 100.648C373.617 100.102 373.273 99.7344 372.82 99.5469C372.367 99.3594 371.812 99.2656 371.156 99.2656C370.469 99.2656 369.852 99.4219 369.305 99.7344C368.758 100.047 368.289 100.484 367.898 101.047C367.523 101.594 367.234 102.242 367.031 102.992C366.844 103.742 366.75 104.562 366.75 105.453ZM381.234 105.453L379.031 105.5C379.031 103.719 379.227 102.078 379.617 100.578C380.023 99.0781 380.625 97.7734 381.422 96.6641C382.234 95.5547 383.242 94.6953 384.445 94.0859C385.648 93.4766 387.047 93.1719 388.641 93.1719C389.797 93.1719 390.859 93.3438 391.828 93.6875C392.797 94.0312 393.633 94.5859 394.336 95.3516C395.039 96.1172 395.586 97.1328 395.977 98.3984C396.367 99.6484 396.562 101.195 396.562 103.039V119H388.641V103.039C388.641 101.992 388.516 101.203 388.266 100.672C388.031 100.125 387.688 99.7578 387.234 99.5703C386.781 99.3672 386.242 99.2656 385.617 99.2656C384.867 99.2656 384.219 99.4219 383.672 99.7344C383.125 100.047 382.664 100.484 382.289 101.047C381.93 101.594 381.664 102.242 381.492 102.992C381.32 103.742 381.234 104.562 381.234 105.453ZM413.367 119.469C411.305 119.469 409.461 119.148 407.836 118.508C406.211 117.852 404.836 116.953 403.711 115.812C402.602 114.672 401.75 113.359 401.156 111.875C400.578 110.391 400.289 108.82 400.289 107.164V106.273C400.289 104.414 400.547 102.695 401.062 101.117C401.578 99.5234 402.344 98.1328 403.359 96.9453C404.375 95.7578 405.648 94.8359 407.18 94.1797C408.711 93.5078 410.492 93.1719 412.523 93.1719C414.32 93.1719 415.93 93.4609 417.352 94.0391C418.773 94.6172 419.977 95.4453 420.961 96.5234C421.961 97.6016 422.719 98.9062 423.234 100.438C423.766 101.969 424.031 103.688 424.031 105.594V108.805H403.312V103.859H416.32V103.25C416.336 102.406 416.188 101.688 415.875 101.094C415.578 100.5 415.141 100.047 414.562 99.7344C413.984 99.4219 413.281 99.2656 412.453 99.2656C411.594 99.2656 410.883 99.4531 410.32 99.8281C409.773 100.203 409.344 100.719 409.031 101.375C408.734 102.016 408.523 102.758 408.398 103.602C408.273 104.445 408.211 105.336 408.211 106.273V107.164C408.211 108.102 408.336 108.953 408.586 109.719C408.852 110.484 409.227 111.141 409.711 111.688C410.211 112.219 410.805 112.633 411.492 112.93C412.195 113.227 412.992 113.375 413.883 113.375C414.961 113.375 416.023 113.172 417.07 112.766C418.117 112.359 419.016 111.688 419.766 110.75L423.352 115.016C422.836 115.75 422.102 116.461 421.148 117.148C420.211 117.836 419.086 118.398 417.773 118.836C416.461 119.258 414.992 119.469 413.367 119.469ZM435 99.0547V119H427.102V93.6406H434.508L435 99.0547ZM434.062 105.453L432.211 105.5C432.211 103.562 432.445 101.836 432.914 100.32C433.383 98.7891 434.047 97.4922 434.906 96.4297C435.766 95.3672 436.789 94.5625 437.977 94.0156C439.18 93.4531 440.516 93.1719 441.984 93.1719C443.156 93.1719 444.227 93.3438 445.195 93.6875C446.18 94.0312 447.023 94.5859 447.727 95.3516C448.445 96.1172 448.992 97.1328 449.367 98.3984C449.758 99.6484 449.953 101.195 449.953 103.039V119H442.008V103.016C442.008 102 441.867 101.227 441.586 100.695C441.305 100.148 440.898 99.7734 440.367 99.5703C439.836 99.3672 439.188 99.2656 438.422 99.2656C437.609 99.2656 436.922 99.4219 436.359 99.7344C435.797 100.047 435.344 100.484 435 101.047C434.672 101.594 434.43 102.242 434.273 102.992C434.133 103.742 434.062 104.562 434.062 105.453ZM467.695 93.6406V99.125H452.414V93.6406H467.695ZM455.625 87.3359H463.523V110.727C463.523 111.398 463.602 111.922 463.758 112.297C463.914 112.656 464.18 112.914 464.555 113.07C464.945 113.211 465.461 113.281 466.102 113.281C466.555 113.281 466.93 113.273 467.227 113.258C467.523 113.227 467.805 113.188 468.07 113.141V118.789C467.398 119.008 466.695 119.172 465.961 119.281C465.227 119.406 464.445 119.469 463.617 119.469C461.93 119.469 460.484 119.203 459.281 118.672C458.094 118.141 457.188 117.305 456.562 116.164C455.938 115.023 455.625 113.539 455.625 111.711V87.3359Z" fill="black"/>
<path d="M1134 0H1348C1356.28 0 1363 6.71573 1363 15V148C1363 156.284 1356.28 163 1348 163H1134V0Z" fill="#FFE4C4"/>
<path d="M1212.5 117.5L1212.5 45.5L1284.5 45.5L1284.5 117.5L1212.5 117.5Z" fill="white" fill-opacity="0.01"/>
<path d="M1221.5 81.5125L1221.5 108.5L1275.5 108.5L1275.5 81.5" stroke="white" stroke-width="7.24" stroke-linecap="round" stroke-linejoin="round"/>
<path d="M1262 68L1248.5 54.5L1235 68" stroke="white" stroke-width="7.24" stroke-linecap="round" stroke-linejoin="round"/>
<path d="M1248.49 93.5L1248.49 54.5" stroke="white" stroke-width="7.24" stroke-linecap="round" stroke-linejoin="round"/>
</svg>
