<svg width="1363" height="163" viewBox="0 0 1363 163" fill="none" xmlns="http://www.w3.org/2000/svg">
<path d="M0 15C0 6.71573 6.71573 0 15 0H37V163H15C6.71573 163 0 156.284 0 148V15Z" fill="#73B4C6"/>
<rect width="1097" height="163" transform="translate(37)" fill="#F0F0F0"/>
<path d="M101.906 53.9219L94.3945 51.2383V48.0859L104.602 52.375V54.6367L101.906 53.9219ZM94.3945 56.1719L101.918 53.4297L104.602 52.7852V55.0352L94.3945 59.3242V56.1719ZM113.074 57.4375L117.094 43.9375H121.008L115.066 61H112.488L113.074 57.4375ZM109.371 43.9375L113.379 57.4375L113.988 61H111.387L105.48 43.9375H109.371ZM127.711 61.2344C126.727 61.2344 125.844 61.0781 125.062 60.7656C124.281 60.4453 123.617 60.0039 123.07 59.4414C122.531 58.8789 122.117 58.2266 121.828 57.4844C121.539 56.7344 121.395 55.9375 121.395 55.0938V54.625C121.395 53.6641 121.531 52.7852 121.805 51.9883C122.078 51.1914 122.469 50.5 122.977 49.9141C123.492 49.3281 124.117 48.8789 124.852 48.5664C125.586 48.2461 126.414 48.0859 127.336 48.0859C128.234 48.0859 129.031 48.2344 129.727 48.5312C130.422 48.8281 131.004 49.25 131.473 49.7969C131.949 50.3438 132.309 51 132.551 51.7656C132.793 52.5234 132.914 53.3672 132.914 54.2969V55.7031H122.836V53.4531H129.598V53.1953C129.598 52.7266 129.512 52.3086 129.34 51.9414C129.176 51.5664 128.926 51.2695 128.59 51.0508C128.254 50.832 127.824 50.7227 127.301 50.7227C126.855 50.7227 126.473 50.8203 126.152 51.0156C125.832 51.2109 125.57 51.4844 125.367 51.8359C125.172 52.1875 125.023 52.6016 124.922 53.0781C124.828 53.5469 124.781 54.0625 124.781 54.625V55.0938C124.781 55.6016 124.852 56.0703 124.992 56.5C125.141 56.9297 125.348 57.3008 125.613 57.6133C125.887 57.9258 126.215 58.168 126.598 58.3398C126.988 58.5117 127.43 58.5977 127.922 58.5977C128.531 58.5977 129.098 58.4805 129.621 58.2461C130.152 58.0039 130.609 57.6406 130.992 57.1562L132.633 58.9375C132.367 59.3203 132.004 59.6875 131.543 60.0391C131.09 60.3906 130.543 60.6797 129.902 60.9062C129.262 61.125 128.531 61.2344 127.711 61.2344ZM138.211 51.0859V61H134.836V48.3203H138.012L138.211 51.0859ZM142.031 48.2383L141.973 51.3672C141.809 51.3438 141.609 51.3242 141.375 51.3086C141.148 51.2852 140.941 51.2734 140.754 51.2734C140.277 51.2734 139.863 51.3359 139.512 51.4609C139.168 51.5781 138.879 51.7539 138.645 51.9883C138.418 52.2227 138.246 52.5078 138.129 52.8438C138.02 53.1797 137.957 53.5625 137.941 53.9922L137.262 53.7812C137.262 52.9609 137.344 52.207 137.508 51.5195C137.672 50.8242 137.91 50.2188 138.223 49.7031C138.543 49.1875 138.934 48.7891 139.395 48.5078C139.855 48.2266 140.383 48.0859 140.977 48.0859C141.164 48.0859 141.355 48.1016 141.551 48.1328C141.746 48.1562 141.906 48.1914 142.031 48.2383ZM143.625 43H147V58.0938L146.66 61H143.625V43ZM155.027 54.5312V54.7773C155.027 55.7227 154.926 56.5898 154.723 57.3789C154.527 58.168 154.223 58.8516 153.809 59.4297C153.395 60 152.879 60.4453 152.262 60.7656C151.652 61.0781 150.934 61.2344 150.105 61.2344C149.332 61.2344 148.66 61.0781 148.09 60.7656C147.527 60.4531 147.055 60.0117 146.672 59.4414C146.289 58.8711 145.98 58.2031 145.746 57.4375C145.512 56.6719 145.336 55.8359 145.219 54.9297V54.3906C145.336 53.4844 145.512 52.6484 145.746 51.8828C145.98 51.1172 146.289 50.4492 146.672 49.8789C147.055 49.3086 147.527 48.8672 148.09 48.5547C148.652 48.2422 149.316 48.0859 150.082 48.0859C150.918 48.0859 151.645 48.2461 152.262 48.5664C152.887 48.8789 153.402 49.3242 153.809 49.9023C154.223 50.4727 154.527 51.1523 154.723 51.9414C154.926 52.7227 155.027 53.5859 155.027 54.5312ZM151.652 54.7773V54.5312C151.652 54.0156 151.613 53.5312 151.535 53.0781C151.465 52.6172 151.34 52.2148 151.16 51.8711C150.98 51.5195 150.734 51.2422 150.422 51.0391C150.117 50.8359 149.723 50.7344 149.238 50.7344C148.777 50.7344 148.387 50.8125 148.066 50.9688C147.746 51.125 147.48 51.3438 147.27 51.625C147.066 51.9062 146.914 52.2422 146.812 52.6328C146.711 53.0156 146.648 53.4375 146.625 53.8984V55.4336C146.648 56.0508 146.75 56.5977 146.93 57.0742C147.117 57.543 147.398 57.9141 147.773 58.1875C148.156 58.4531 148.652 58.5859 149.262 58.5859C149.738 58.5859 150.133 58.4922 150.445 58.3047C150.758 58.1172 151 57.8516 151.172 57.5078C151.352 57.1641 151.477 56.7617 151.547 56.3008C151.617 55.832 151.652 55.3242 151.652 54.7773ZM163.969 58.1406V52.4922C163.969 52.0859 163.902 51.7383 163.77 51.4492C163.637 51.1523 163.43 50.9219 163.148 50.7578C162.875 50.5938 162.52 50.5117 162.082 50.5117C161.707 50.5117 161.383 50.5781 161.109 50.7109C160.836 50.8359 160.625 51.0195 160.477 51.2617C160.328 51.4961 160.254 51.7734 160.254 52.0938H156.879C156.879 51.5547 157.004 51.043 157.254 50.5586C157.504 50.0742 157.867 49.6484 158.344 49.2812C158.82 48.9062 159.387 48.6133 160.043 48.4023C160.707 48.1914 161.449 48.0859 162.27 48.0859C163.254 48.0859 164.129 48.25 164.895 48.5781C165.66 48.9062 166.262 49.3984 166.699 50.0547C167.145 50.7109 167.367 51.5312 167.367 52.5156V57.9414C167.367 58.6367 167.41 59.207 167.496 59.6523C167.582 60.0898 167.707 60.4727 167.871 60.8008V61H164.461C164.297 60.6562 164.172 60.2266 164.086 59.7109C164.008 59.1875 163.969 58.6641 163.969 58.1406ZM164.414 53.2773L164.438 55.1875H162.551C162.105 55.1875 161.719 55.2383 161.391 55.3398C161.062 55.4414 160.793 55.5859 160.582 55.7734C160.371 55.9531 160.215 56.1641 160.113 56.4062C160.02 56.6484 159.973 56.9141 159.973 57.2031C159.973 57.4922 160.039 57.7539 160.172 57.9883C160.305 58.2148 160.496 58.3945 160.746 58.5273C160.996 58.6523 161.289 58.7148 161.625 58.7148C162.133 58.7148 162.574 58.6133 162.949 58.4102C163.324 58.207 163.613 57.957 163.816 57.6602C164.027 57.3633 164.137 57.082 164.145 56.8164L165.035 58.2461C164.91 58.5664 164.738 58.8984 164.52 59.2422C164.309 59.5859 164.039 59.9102 163.711 60.2148C163.383 60.5117 162.988 60.7578 162.527 60.9531C162.066 61.1406 161.52 61.2344 160.887 61.2344C160.082 61.2344 159.352 61.0742 158.695 60.7539C158.047 60.4258 157.531 59.9766 157.148 59.4062C156.773 58.8281 156.586 58.1719 156.586 57.4375C156.586 56.7734 156.711 56.1836 156.961 55.668C157.211 55.1523 157.578 54.7188 158.062 54.3672C158.555 54.0078 159.168 53.7383 159.902 53.5586C160.637 53.3711 161.488 53.2773 162.457 53.2773H164.414ZM173.531 43V61H170.145V43H173.531ZM183.211 53.5117H178.828L178.805 51.0977H182.484C183.133 51.0977 183.664 51.0156 184.078 50.8516C184.492 50.6797 184.801 50.4336 185.004 50.1133C185.215 49.7852 185.32 49.3867 185.32 48.918C185.32 48.3867 185.219 47.957 185.016 47.6289C184.82 47.3008 184.512 47.0625 184.09 46.9141C183.676 46.7656 183.141 46.6914 182.484 46.6914H180.047V61H176.531V43.9375H182.484C183.477 43.9375 184.363 44.0312 185.145 44.2188C185.934 44.4062 186.602 44.6914 187.148 45.0742C187.695 45.457 188.113 45.9414 188.402 46.5273C188.691 47.1055 188.836 47.793 188.836 48.5898C188.836 49.293 188.676 49.9414 188.355 50.5352C188.043 51.1289 187.547 51.6133 186.867 51.9883C186.195 52.3633 185.316 52.5703 184.23 52.6094L183.211 53.5117ZM183.059 61H177.867L179.238 58.2578H183.059C183.676 58.2578 184.18 58.1602 184.57 57.9648C184.961 57.7617 185.25 57.4883 185.438 57.1445C185.625 56.8008 185.719 56.4062 185.719 55.9609C185.719 55.4609 185.633 55.0273 185.461 54.6602C185.297 54.293 185.031 54.0117 184.664 53.8164C184.297 53.6133 183.812 53.5117 183.211 53.5117H179.824L179.848 51.0977H184.066L184.875 52.0469C185.914 52.0312 186.75 52.2148 187.383 52.5977C188.023 52.9727 188.488 53.4609 188.777 54.0625C189.074 54.6641 189.223 55.3086 189.223 55.9961C189.223 57.0898 188.984 58.0117 188.508 58.7617C188.031 59.5039 187.332 60.0625 186.41 60.4375C185.496 60.8125 184.379 61 183.059 61ZM191.109 54.7891V54.543C191.109 53.6133 191.242 52.7578 191.508 51.9766C191.773 51.1875 192.16 50.5039 192.668 49.9258C193.176 49.3477 193.801 48.8984 194.543 48.5781C195.285 48.25 196.137 48.0859 197.098 48.0859C198.059 48.0859 198.914 48.25 199.664 48.5781C200.414 48.8984 201.043 49.3477 201.551 49.9258C202.066 50.5039 202.457 51.1875 202.723 51.9766C202.988 52.7578 203.121 53.6133 203.121 54.543V54.7891C203.121 55.7109 202.988 56.5664 202.723 57.3555C202.457 58.1367 202.066 58.8203 201.551 59.4062C201.043 59.9844 200.418 60.4336 199.676 60.7539C198.934 61.0742 198.082 61.2344 197.121 61.2344C196.16 61.2344 195.305 61.0742 194.555 60.7539C193.812 60.4336 193.184 59.9844 192.668 59.4062C192.16 58.8203 191.773 58.1367 191.508 57.3555C191.242 56.5664 191.109 55.7109 191.109 54.7891ZM194.484 54.543V54.7891C194.484 55.3203 194.531 55.8164 194.625 56.2773C194.719 56.7383 194.867 57.1445 195.07 57.4961C195.281 57.8398 195.555 58.1094 195.891 58.3047C196.227 58.5 196.637 58.5977 197.121 58.5977C197.59 58.5977 197.992 58.5 198.328 58.3047C198.664 58.1094 198.934 57.8398 199.137 57.4961C199.34 57.1445 199.488 56.7383 199.582 56.2773C199.684 55.8164 199.734 55.3203 199.734 54.7891V54.543C199.734 54.0273 199.684 53.543 199.582 53.0898C199.488 52.6289 199.336 52.2227 199.125 51.8711C198.922 51.5117 198.652 51.2305 198.316 51.0273C197.98 50.8242 197.574 50.7227 197.098 50.7227C196.621 50.7227 196.215 50.8242 195.879 51.0273C195.551 51.2305 195.281 51.5117 195.07 51.8711C194.867 52.2227 194.719 52.6289 194.625 53.0898C194.531 53.543 194.484 54.0273 194.484 54.543ZM211.406 48.3203V50.7109H204.023V48.3203H211.406ZM205.852 45.1914H209.227V57.1797C209.227 57.5469 209.273 57.8281 209.367 58.0234C209.469 58.2188 209.617 58.3555 209.812 58.4336C210.008 58.5039 210.254 58.5391 210.551 58.5391C210.762 58.5391 210.949 58.5312 211.113 58.5156C211.285 58.4922 211.43 58.4688 211.547 58.4453L211.559 60.9297C211.27 61.0234 210.957 61.0977 210.621 61.1523C210.285 61.207 209.914 61.2344 209.508 61.2344C208.766 61.2344 208.117 61.1133 207.562 60.8711C207.016 60.6211 206.594 60.2227 206.297 59.6758C206 59.1289 205.852 58.4102 205.852 57.5195V45.1914ZM216.891 48.3203V61H213.504V48.3203H216.891ZM213.293 45.0156C213.293 44.5234 213.465 44.1172 213.809 43.7969C214.152 43.4766 214.613 43.3164 215.191 43.3164C215.762 43.3164 216.219 43.4766 216.562 43.7969C216.914 44.1172 217.09 44.5234 217.09 45.0156C217.09 45.5078 216.914 45.9141 216.562 46.2344C216.219 46.5547 215.762 46.7148 215.191 46.7148C214.613 46.7148 214.152 46.5547 213.809 46.2344C213.465 45.9141 213.293 45.5078 213.293 45.0156ZM224.918 58.5977C225.332 58.5977 225.699 58.5195 226.02 58.3633C226.34 58.1992 226.59 57.9727 226.77 57.6836C226.957 57.3867 227.055 57.0391 227.062 56.6406H230.238C230.23 57.5312 229.992 58.3242 229.523 59.0195C229.055 59.707 228.426 60.25 227.637 60.6484C226.848 61.0391 225.965 61.2344 224.988 61.2344C224.004 61.2344 223.145 61.0703 222.41 60.7422C221.684 60.4141 221.078 59.9609 220.594 59.3828C220.109 58.7969 219.746 58.1172 219.504 57.3438C219.262 56.5625 219.141 55.7266 219.141 54.8359V54.4961C219.141 53.5977 219.262 52.7617 219.504 51.9883C219.746 51.207 220.109 50.5273 220.594 49.9492C221.078 49.3633 221.684 48.9062 222.41 48.5781C223.137 48.25 223.988 48.0859 224.965 48.0859C226.004 48.0859 226.914 48.2852 227.695 48.6836C228.484 49.082 229.102 49.6523 229.547 50.3945C230 51.1289 230.23 52 230.238 53.0078H227.062C227.055 52.5859 226.965 52.2031 226.793 51.8594C226.629 51.5156 226.387 51.2422 226.066 51.0391C225.754 50.8281 225.367 50.7227 224.906 50.7227C224.414 50.7227 224.012 50.8281 223.699 51.0391C223.387 51.2422 223.145 51.5234 222.973 51.8828C222.801 52.2344 222.68 52.6367 222.609 53.0898C222.547 53.5352 222.516 54.0039 222.516 54.4961V54.8359C222.516 55.3281 222.547 55.8008 222.609 56.2539C222.672 56.707 222.789 57.1094 222.961 57.4609C223.141 57.8125 223.387 58.0898 223.699 58.293C224.012 58.4961 224.418 58.5977 224.918 58.5977Z" fill="#888888"/>
<path d="M110.062 92.0469L101.742 119H92.9062L105.445 84.875H111.047L110.062 92.0469ZM116.953 119L108.609 92.0469L107.531 84.875H113.203L125.812 119H116.953ZM116.625 106.273V112.625H99.1172V106.273H116.625ZM135.258 115.906L142.055 84.875H146.109L148.312 87.5234L141.07 119H136.594L135.258 115.906ZM133.453 84.875L139.195 116.141L137.719 119H132.539L125.297 84.875H133.453ZM152.039 115.977L157.734 84.875H165.867L158.625 119H153.469L152.039 115.977ZM149.039 84.875L156 116.094L154.594 119H150.117L142.711 87.4766L145.008 84.875H149.039ZM186.68 109.93C186.68 109.398 186.602 108.922 186.445 108.5C186.289 108.062 186 107.656 185.578 107.281C185.156 106.906 184.547 106.531 183.75 106.156C182.969 105.766 181.938 105.359 180.656 104.938C179.156 104.438 177.711 103.875 176.32 103.25C174.93 102.609 173.688 101.867 172.594 101.023C171.5 100.164 170.633 99.1641 169.992 98.0234C169.352 96.8672 169.031 95.5234 169.031 93.9922C169.031 92.5234 169.359 91.2031 170.016 90.0312C170.672 88.8438 171.586 87.8359 172.758 87.0078C173.945 86.1641 175.336 85.5234 176.93 85.0859C178.523 84.6328 180.266 84.4062 182.156 84.4062C184.656 84.4062 186.859 84.8438 188.766 85.7188C190.688 86.5781 192.188 87.8047 193.266 89.3984C194.359 90.9766 194.906 92.8438 194.906 95H186.727C186.727 94.1406 186.547 93.3828 186.188 92.7266C185.844 92.0703 185.32 91.5547 184.617 91.1797C183.914 90.8047 183.031 90.6172 181.969 90.6172C180.938 90.6172 180.07 90.7734 179.367 91.0859C178.664 91.3984 178.133 91.8203 177.773 92.3516C177.414 92.8672 177.234 93.4375 177.234 94.0625C177.234 94.5781 177.375 95.0469 177.656 95.4688C177.953 95.875 178.367 96.2578 178.898 96.6172C179.445 96.9766 180.102 97.3203 180.867 97.6484C181.648 97.9766 182.523 98.2969 183.492 98.6094C185.305 99.1875 186.914 99.8359 188.32 100.555C189.742 101.258 190.938 102.062 191.906 102.969C192.891 103.859 193.633 104.875 194.133 106.016C194.648 107.156 194.906 108.445 194.906 109.883C194.906 111.414 194.609 112.773 194.016 113.961C193.422 115.148 192.57 116.156 191.461 116.984C190.352 117.797 189.023 118.414 187.477 118.836C185.93 119.258 184.203 119.469 182.297 119.469C180.547 119.469 178.82 119.25 177.117 118.812C175.43 118.359 173.898 117.672 172.523 116.75C171.148 115.812 170.047 114.617 169.219 113.164C168.406 111.695 168 109.953 168 107.938H176.25C176.25 108.938 176.383 109.781 176.648 110.469C176.914 111.156 177.305 111.711 177.82 112.133C178.336 112.539 178.969 112.836 179.719 113.023C180.469 113.195 181.328 113.281 182.297 113.281C183.344 113.281 184.188 113.133 184.828 112.836C185.469 112.523 185.938 112.117 186.234 111.617C186.531 111.102 186.68 110.539 186.68 109.93ZM222.188 119H214.617L214.664 112.672H222.188C223.75 112.672 225.07 112.297 226.148 111.547C227.242 110.797 228.07 109.68 228.633 108.195C229.211 106.695 229.5 104.852 229.5 102.664V101.188C229.5 99.5469 229.336 98.1094 229.008 96.875C228.695 95.625 228.227 94.5859 227.602 93.7578C226.977 92.9141 226.195 92.2812 225.258 91.8594C224.336 91.4375 223.273 91.2266 222.07 91.2266H214.477V84.875H222.07C224.383 84.875 226.5 85.2734 228.422 86.0703C230.359 86.8516 232.031 87.9766 233.438 89.4453C234.859 90.8984 235.953 92.625 236.719 94.625C237.5 96.6094 237.891 98.8125 237.891 101.234V102.664C237.891 105.07 237.5 107.273 236.719 109.273C235.953 111.273 234.867 113 233.461 114.453C232.055 115.906 230.391 117.031 228.469 117.828C226.562 118.609 224.469 119 222.188 119ZM219.328 84.875V119H211.102V84.875H219.328ZM254.086 119.469C252.023 119.469 250.18 119.148 248.555 118.508C246.93 117.852 245.555 116.953 244.43 115.812C243.32 114.672 242.469 113.359 241.875 111.875C241.297 110.391 241.008 108.82 241.008 107.164V106.273C241.008 104.414 241.266 102.695 241.781 101.117C242.297 99.5234 243.062 98.1328 244.078 96.9453C245.094 95.7578 246.367 94.8359 247.898 94.1797C249.43 93.5078 251.211 93.1719 253.242 93.1719C255.039 93.1719 256.648 93.4609 258.07 94.0391C259.492 94.6172 260.695 95.4453 261.68 96.5234C262.68 97.6016 263.438 98.9062 263.953 100.438C264.484 101.969 264.75 103.688 264.75 105.594V108.805H244.031V103.859H257.039V103.25C257.055 102.406 256.906 101.688 256.594 101.094C256.297 100.5 255.859 100.047 255.281 99.7344C254.703 99.4219 254 99.2656 253.172 99.2656C252.312 99.2656 251.602 99.4531 251.039 99.8281C250.492 100.203 250.062 100.719 249.75 101.375C249.453 102.016 249.242 102.758 249.117 103.602C248.992 104.445 248.93 105.336 248.93 106.273V107.164C248.93 108.102 249.055 108.953 249.305 109.719C249.57 110.484 249.945 111.141 250.43 111.688C250.93 112.219 251.523 112.633 252.211 112.93C252.914 113.227 253.711 113.375 254.602 113.375C255.68 113.375 256.742 113.172 257.789 112.766C258.836 112.359 259.734 111.688 260.484 110.75L264.07 115.016C263.555 115.75 262.82 116.461 261.867 117.148C260.93 117.836 259.805 118.398 258.492 118.836C257.18 119.258 255.711 119.469 254.086 119.469ZM275.93 98.5156V128.75H268.031V93.6406H275.391L275.93 98.5156ZM291.492 106.016V106.508C291.492 108.352 291.281 110.062 290.859 111.641C290.438 113.219 289.812 114.594 288.984 115.766C288.156 116.938 287.125 117.852 285.891 118.508C284.672 119.148 283.258 119.469 281.648 119.469C280.133 119.469 278.828 119.133 277.734 118.461C276.641 117.789 275.727 116.859 274.992 115.672C274.258 114.484 273.664 113.125 273.211 111.594C272.758 110.062 272.398 108.445 272.133 106.742V106.109C272.398 104.281 272.758 102.586 273.211 101.023C273.664 99.4453 274.258 98.0703 274.992 96.8984C275.727 95.7266 276.633 94.8125 277.711 94.1562C278.805 93.5 280.109 93.1719 281.625 93.1719C283.234 93.1719 284.648 93.4766 285.867 94.0859C287.102 94.6953 288.133 95.5703 288.961 96.7109C289.805 97.8359 290.438 99.1875 290.859 100.766C291.281 102.344 291.492 104.094 291.492 106.016ZM283.594 106.508V106.016C283.594 105.031 283.523 104.133 283.383 103.32C283.242 102.492 283.016 101.773 282.703 101.164C282.406 100.555 282.008 100.086 281.508 99.7578C281.008 99.4297 280.391 99.2656 279.656 99.2656C278.812 99.2656 278.102 99.3984 277.523 99.6641C276.961 99.9141 276.508 100.305 276.164 100.836C275.836 101.352 275.602 102 275.461 102.781C275.336 103.547 275.281 104.445 275.297 105.477V107.398C275.266 108.586 275.383 109.633 275.648 110.539C275.914 111.43 276.375 112.125 277.031 112.625C277.688 113.125 278.578 113.375 279.703 113.375C280.453 113.375 281.078 113.203 281.578 112.859C282.078 112.5 282.477 112.008 282.773 111.383C283.07 110.742 283.281 110.008 283.406 109.18C283.531 108.352 283.594 107.461 283.594 106.508ZM303.352 83V119H295.43V83H303.352ZM307.242 106.578V106.086C307.242 104.227 307.508 102.516 308.039 100.953C308.57 99.375 309.352 98.0078 310.383 96.8516C311.414 95.6953 312.688 94.7969 314.203 94.1562C315.719 93.5 317.469 93.1719 319.453 93.1719C321.453 93.1719 323.211 93.5 324.727 94.1562C326.258 94.7969 327.539 95.6953 328.57 96.8516C329.602 98.0078 330.383 99.375 330.914 100.953C331.445 102.516 331.711 104.227 331.711 106.086V106.578C331.711 108.422 331.445 110.133 330.914 111.711C330.383 113.273 329.602 114.641 328.57 115.812C327.539 116.969 326.266 117.867 324.75 118.508C323.234 119.148 321.484 119.469 319.5 119.469C317.516 119.469 315.758 119.148 314.227 118.508C312.695 117.867 311.414 116.969 310.383 115.812C309.352 114.641 308.57 113.273 308.039 111.711C307.508 110.133 307.242 108.422 307.242 106.578ZM315.141 106.086V106.578C315.141 107.531 315.211 108.422 315.352 109.25C315.492 110.078 315.727 110.805 316.055 111.43C316.383 112.039 316.828 112.516 317.391 112.859C317.953 113.203 318.656 113.375 319.5 113.375C320.328 113.375 321.016 113.203 321.562 112.859C322.125 112.516 322.57 112.039 322.898 111.43C323.227 110.805 323.461 110.078 323.602 109.25C323.742 108.422 323.812 107.531 323.812 106.578V106.086C323.812 105.164 323.742 104.297 323.602 103.484C323.461 102.656 323.227 101.93 322.898 101.305C322.57 100.664 322.125 100.164 321.562 99.8047C321 99.4453 320.297 99.2656 319.453 99.2656C318.625 99.2656 317.93 99.4453 317.367 99.8047C316.82 100.164 316.383 100.664 316.055 101.305C315.727 101.93 315.492 102.656 315.352 103.484C315.211 104.297 315.141 105.164 315.141 106.086ZM342.633 116.023L349.195 93.6406H357.68L347.484 122.773C347.266 123.414 346.977 124.102 346.617 124.836C346.258 125.586 345.766 126.297 345.141 126.969C344.516 127.641 343.711 128.188 342.727 128.609C341.758 129.031 340.555 129.242 339.117 129.242C338.352 129.242 337.789 129.203 337.43 129.125C337.086 129.062 336.555 128.945 335.836 128.773V123.125C336.039 123.125 336.211 123.125 336.352 123.125C336.508 123.125 336.68 123.125 336.867 123.125C337.711 123.125 338.383 123.039 338.883 122.867C339.398 122.695 339.789 122.445 340.055 122.117C340.336 121.789 340.555 121.391 340.711 120.922L342.633 116.023ZM340.969 93.6406L345.961 111.383L346.828 119.75H341.531L332.508 93.6406H340.969ZM367.711 99.0078V119H359.812V93.6406H367.219L367.711 99.0078ZM366.75 105.453L364.945 105.5C364.945 103.719 365.156 102.078 365.578 100.578C366 99.0781 366.625 97.7734 367.453 96.6641C368.281 95.5547 369.297 94.6953 370.5 94.0859C371.719 93.4766 373.125 93.1719 374.719 93.1719C375.828 93.1719 376.836 93.3438 377.742 93.6875C378.648 94.0156 379.43 94.5391 380.086 95.2578C380.742 95.9609 381.242 96.8828 381.586 98.0234C381.945 99.1484 382.125 100.5 382.125 102.078V119H374.227V103.086C374.227 102.008 374.102 101.195 373.852 100.648C373.617 100.102 373.273 99.7344 372.82 99.5469C372.367 99.3594 371.812 99.2656 371.156 99.2656C370.469 99.2656 369.852 99.4219 369.305 99.7344C368.758 100.047 368.289 100.484 367.898 101.047C367.523 101.594 367.234 102.242 367.031 102.992C366.844 103.742 366.75 104.562 366.75 105.453ZM381.234 105.453L379.031 105.5C379.031 103.719 379.227 102.078 379.617 100.578C380.023 99.0781 380.625 97.7734 381.422 96.6641C382.234 95.5547 383.242 94.6953 384.445 94.0859C385.648 93.4766 387.047 93.1719 388.641 93.1719C389.797 93.1719 390.859 93.3438 391.828 93.6875C392.797 94.0312 393.633 94.5859 394.336 95.3516C395.039 96.1172 395.586 97.1328 395.977 98.3984C396.367 99.6484 396.562 101.195 396.562 103.039V119H388.641V103.039C388.641 101.992 388.516 101.203 388.266 100.672C388.031 100.125 387.688 99.7578 387.234 99.5703C386.781 99.3672 386.242 99.2656 385.617 99.2656C384.867 99.2656 384.219 99.4219 383.672 99.7344C383.125 100.047 382.664 100.484 382.289 101.047C381.93 101.594 381.664 102.242 381.492 102.992C381.32 103.742 381.234 104.562 381.234 105.453ZM413.367 119.469C411.305 119.469 409.461 119.148 407.836 118.508C406.211 117.852 404.836 116.953 403.711 115.812C402.602 114.672 401.75 113.359 401.156 111.875C400.578 110.391 400.289 108.82 400.289 107.164V106.273C400.289 104.414 400.547 102.695 401.062 101.117C401.578 99.5234 402.344 98.1328 403.359 96.9453C404.375 95.7578 405.648 94.8359 407.18 94.1797C408.711 93.5078 410.492 93.1719 412.523 93.1719C414.32 93.1719 415.93 93.4609 417.352 94.0391C418.773 94.6172 419.977 95.4453 420.961 96.5234C421.961 97.6016 422.719 98.9062 423.234 100.438C423.766 101.969 424.031 103.688 424.031 105.594V108.805H403.312V103.859H416.32V103.25C416.336 102.406 416.188 101.688 415.875 101.094C415.578 100.5 415.141 100.047 414.562 99.7344C413.984 99.4219 413.281 99.2656 412.453 99.2656C411.594 99.2656 410.883 99.4531 410.32 99.8281C409.773 100.203 409.344 100.719 409.031 101.375C408.734 102.016 408.523 102.758 408.398 103.602C408.273 104.445 408.211 105.336 408.211 106.273V107.164C408.211 108.102 408.336 108.953 408.586 109.719C408.852 110.484 409.227 111.141 409.711 111.688C410.211 112.219 410.805 112.633 411.492 112.93C412.195 113.227 412.992 113.375 413.883 113.375C414.961 113.375 416.023 113.172 417.07 112.766C418.117 112.359 419.016 111.688 419.766 110.75L423.352 115.016C422.836 115.75 422.102 116.461 421.148 117.148C420.211 117.836 419.086 118.398 417.773 118.836C416.461 119.258 414.992 119.469 413.367 119.469ZM435 99.0547V119H427.102V93.6406H434.508L435 99.0547ZM434.062 105.453L432.211 105.5C432.211 103.562 432.445 101.836 432.914 100.32C433.383 98.7891 434.047 97.4922 434.906 96.4297C435.766 95.3672 436.789 94.5625 437.977 94.0156C439.18 93.4531 440.516 93.1719 441.984 93.1719C443.156 93.1719 444.227 93.3438 445.195 93.6875C446.18 94.0312 447.023 94.5859 447.727 95.3516C448.445 96.1172 448.992 97.1328 449.367 98.3984C449.758 99.6484 449.953 101.195 449.953 103.039V119H442.008V103.016C442.008 102 441.867 101.227 441.586 100.695C441.305 100.148 440.898 99.7734 440.367 99.5703C439.836 99.3672 439.188 99.2656 438.422 99.2656C437.609 99.2656 436.922 99.4219 436.359 99.7344C435.797 100.047 435.344 100.484 435 101.047C434.672 101.594 434.43 102.242 434.273 102.992C434.133 103.742 434.062 104.562 434.062 105.453ZM467.695 93.6406V99.125H452.414V93.6406H467.695ZM455.625 87.3359H463.523V110.727C463.523 111.398 463.602 111.922 463.758 112.297C463.914 112.656 464.18 112.914 464.555 113.07C464.945 113.211 465.461 113.281 466.102 113.281C466.555 113.281 466.93 113.273 467.227 113.258C467.523 113.227 467.805 113.188 468.07 113.141V118.789C467.398 119.008 466.695 119.172 465.961 119.281C465.227 119.406 464.445 119.469 463.617 119.469C461.93 119.469 460.484 119.203 459.281 118.672C458.094 118.141 457.188 117.305 456.562 116.164C455.938 115.023 455.625 113.539 455.625 111.711V87.3359Z" fill="black"/>
<path d="M1134 0H1348C1356.28 0 1363 6.71573 1363 15V148C1363 156.284 1356.28 163 1348 163H1134V0Z" fill="#FFE4C4"/>
<path d="M1221.5 81.5125L1221.5 108.5L1275.5 108.5L1275.5 81.5" stroke="#73B4C6" stroke-width="7.24" stroke-linecap="round" stroke-linejoin="round"/>
<path d="M1262 68L1248.5 54.5L1235 68" stroke="#73B4C6" stroke-width="7.24" stroke-linecap="round" stroke-linejoin="round"/>
<path d="M1248.49 93.5L1248.49 54.5" stroke="#73B4C6" stroke-width="7.24" stroke-linecap="round" stroke-linejoin="round"/>
</svg>
