<svg width="1363" height="163" viewBox="0 0 1363 163" fill="none" xmlns="http://www.w3.org/2000/svg">
<path d="M0 15C0 6.71573 6.71573 0 15 0H37V163H15C6.71573 163 0 156.284 0 148V15Z" fill="#424242"/>
<rect width="1097" height="163" transform="translate(37)" fill="#F0F0F0"/>
<path d="M101.906 53.9219L94.3945 51.2383V48.0859L104.602 52.375V54.6367L101.906 53.9219ZM94.3945 56.1719L101.918 53.4297L104.602 52.7852V55.0352L94.3945 59.3242V56.1719ZM119.051 57.4375L123.07 43.9375H126.984L121.043 61H118.465L119.051 57.4375ZM115.348 43.9375L119.355 57.4375L119.965 61H117.363L111.457 43.9375H115.348ZM133.688 61.2344C132.703 61.2344 131.82 61.0781 131.039 60.7656C130.258 60.4453 129.594 60.0039 129.047 59.4414C128.508 58.8789 128.094 58.2266 127.805 57.4844C127.516 56.7344 127.371 55.9375 127.371 55.0938V54.625C127.371 53.6641 127.508 52.7852 127.781 51.9883C128.055 51.1914 128.445 50.5 128.953 49.9141C129.469 49.3281 130.094 48.8789 130.828 48.5664C131.562 48.2461 132.391 48.0859 133.312 48.0859C134.211 48.0859 135.008 48.2344 135.703 48.5312C136.398 48.8281 136.98 49.25 137.449 49.7969C137.926 50.3438 138.285 51 138.527 51.7656C138.77 52.5234 138.891 53.3672 138.891 54.2969V55.7031H128.812V53.4531H135.574V53.1953C135.574 52.7266 135.488 52.3086 135.316 51.9414C135.152 51.5664 134.902 51.2695 134.566 51.0508C134.23 50.832 133.801 50.7227 133.277 50.7227C132.832 50.7227 132.449 50.8203 132.129 51.0156C131.809 51.2109 131.547 51.4844 131.344 51.8359C131.148 52.1875 131 52.6016 130.898 53.0781C130.805 53.5469 130.758 54.0625 130.758 54.625V55.0938C130.758 55.6016 130.828 56.0703 130.969 56.5C131.117 56.9297 131.324 57.3008 131.59 57.6133C131.863 57.9258 132.191 58.168 132.574 58.3398C132.965 58.5117 133.406 58.5977 133.898 58.5977C134.508 58.5977 135.074 58.4805 135.598 58.2461C136.129 58.0039 136.586 57.6406 136.969 57.1562L138.609 58.9375C138.344 59.3203 137.98 59.6875 137.52 60.0391C137.066 60.3906 136.52 60.6797 135.879 60.9062C135.238 61.125 134.508 61.2344 133.688 61.2344ZM144.188 51.0859V61H140.812V48.3203H143.988L144.188 51.0859ZM148.008 48.2383L147.949 51.3672C147.785 51.3438 147.586 51.3242 147.352 51.3086C147.125 51.2852 146.918 51.2734 146.73 51.2734C146.254 51.2734 145.84 51.3359 145.488 51.4609C145.145 51.5781 144.855 51.7539 144.621 51.9883C144.395 52.2227 144.223 52.5078 144.105 52.8438C143.996 53.1797 143.934 53.5625 143.918 53.9922L143.238 53.7812C143.238 52.9609 143.32 52.207 143.484 51.5195C143.648 50.8242 143.887 50.2188 144.199 49.7031C144.52 49.1875 144.91 48.7891 145.371 48.5078C145.832 48.2266 146.359 48.0859 146.953 48.0859C147.141 48.0859 147.332 48.1016 147.527 48.1328C147.723 48.1562 147.883 48.1914 148.008 48.2383ZM149.602 43H152.977V58.0938L152.637 61H149.602V43ZM161.004 54.5312V54.7773C161.004 55.7227 160.902 56.5898 160.699 57.3789C160.504 58.168 160.199 58.8516 159.785 59.4297C159.371 60 158.855 60.4453 158.238 60.7656C157.629 61.0781 156.91 61.2344 156.082 61.2344C155.309 61.2344 154.637 61.0781 154.066 60.7656C153.504 60.4531 153.031 60.0117 152.648 59.4414C152.266 58.8711 151.957 58.2031 151.723 57.4375C151.488 56.6719 151.312 55.8359 151.195 54.9297V54.3906C151.312 53.4844 151.488 52.6484 151.723 51.8828C151.957 51.1172 152.266 50.4492 152.648 49.8789C153.031 49.3086 153.504 48.8672 154.066 48.5547C154.629 48.2422 155.293 48.0859 156.059 48.0859C156.895 48.0859 157.621 48.2461 158.238 48.5664C158.863 48.8789 159.379 49.3242 159.785 49.9023C160.199 50.4727 160.504 51.1523 160.699 51.9414C160.902 52.7227 161.004 53.5859 161.004 54.5312ZM157.629 54.7773V54.5312C157.629 54.0156 157.59 53.5312 157.512 53.0781C157.441 52.6172 157.316 52.2148 157.137 51.8711C156.957 51.5195 156.711 51.2422 156.398 51.0391C156.094 50.8359 155.699 50.7344 155.215 50.7344C154.754 50.7344 154.363 50.8125 154.043 50.9688C153.723 51.125 153.457 51.3438 153.246 51.625C153.043 51.9062 152.891 52.2422 152.789 52.6328C152.688 53.0156 152.625 53.4375 152.602 53.8984V55.4336C152.625 56.0508 152.727 56.5977 152.906 57.0742C153.094 57.543 153.375 57.9141 153.75 58.1875C154.133 58.4531 154.629 58.5859 155.238 58.5859C155.715 58.5859 156.109 58.4922 156.422 58.3047C156.734 58.1172 156.977 57.8516 157.148 57.5078C157.328 57.1641 157.453 56.7617 157.523 56.3008C157.594 55.832 157.629 55.3242 157.629 54.7773ZM169.945 58.1406V52.4922C169.945 52.0859 169.879 51.7383 169.746 51.4492C169.613 51.1523 169.406 50.9219 169.125 50.7578C168.852 50.5938 168.496 50.5117 168.059 50.5117C167.684 50.5117 167.359 50.5781 167.086 50.7109C166.812 50.8359 166.602 51.0195 166.453 51.2617C166.305 51.4961 166.23 51.7734 166.23 52.0938H162.855C162.855 51.5547 162.98 51.043 163.23 50.5586C163.48 50.0742 163.844 49.6484 164.32 49.2812C164.797 48.9062 165.363 48.6133 166.02 48.4023C166.684 48.1914 167.426 48.0859 168.246 48.0859C169.23 48.0859 170.105 48.25 170.871 48.5781C171.637 48.9062 172.238 49.3984 172.676 50.0547C173.121 50.7109 173.344 51.5312 173.344 52.5156V57.9414C173.344 58.6367 173.387 59.207 173.473 59.6523C173.559 60.0898 173.684 60.4727 173.848 60.8008V61H170.438C170.273 60.6562 170.148 60.2266 170.062 59.7109C169.984 59.1875 169.945 58.6641 169.945 58.1406ZM170.391 53.2773L170.414 55.1875H168.527C168.082 55.1875 167.695 55.2383 167.367 55.3398C167.039 55.4414 166.77 55.5859 166.559 55.7734C166.348 55.9531 166.191 56.1641 166.09 56.4062C165.996 56.6484 165.949 56.9141 165.949 57.2031C165.949 57.4922 166.016 57.7539 166.148 57.9883C166.281 58.2148 166.473 58.3945 166.723 58.5273C166.973 58.6523 167.266 58.7148 167.602 58.7148C168.109 58.7148 168.551 58.6133 168.926 58.4102C169.301 58.207 169.59 57.957 169.793 57.6602C170.004 57.3633 170.113 57.082 170.121 56.8164L171.012 58.2461C170.887 58.5664 170.715 58.8984 170.496 59.2422C170.285 59.5859 170.016 59.9102 169.688 60.2148C169.359 60.5117 168.965 60.7578 168.504 60.9531C168.043 61.1406 167.496 61.2344 166.863 61.2344C166.059 61.2344 165.328 61.0742 164.672 60.7539C164.023 60.4258 163.508 59.9766 163.125 59.4062C162.75 58.8281 162.562 58.1719 162.562 57.4375C162.562 56.7734 162.688 56.1836 162.938 55.668C163.188 55.1523 163.555 54.7188 164.039 54.3672C164.531 54.0078 165.145 53.7383 165.879 53.5586C166.613 53.3711 167.465 53.2773 168.434 53.2773H170.391ZM179.508 43V61H176.121V43H179.508ZM189.188 53.5117H184.805L184.781 51.0977H188.461C189.109 51.0977 189.641 51.0156 190.055 50.8516C190.469 50.6797 190.777 50.4336 190.98 50.1133C191.191 49.7852 191.297 49.3867 191.297 48.918C191.297 48.3867 191.195 47.957 190.992 47.6289C190.797 47.3008 190.488 47.0625 190.066 46.9141C189.652 46.7656 189.117 46.6914 188.461 46.6914H186.023V61H182.508V43.9375H188.461C189.453 43.9375 190.34 44.0312 191.121 44.2188C191.91 44.4062 192.578 44.6914 193.125 45.0742C193.672 45.457 194.09 45.9414 194.379 46.5273C194.668 47.1055 194.812 47.793 194.812 48.5898C194.812 49.293 194.652 49.9414 194.332 50.5352C194.02 51.1289 193.523 51.6133 192.844 51.9883C192.172 52.3633 191.293 52.5703 190.207 52.6094L189.188 53.5117ZM189.035 61H183.844L185.215 58.2578H189.035C189.652 58.2578 190.156 58.1602 190.547 57.9648C190.938 57.7617 191.227 57.4883 191.414 57.1445C191.602 56.8008 191.695 56.4062 191.695 55.9609C191.695 55.4609 191.609 55.0273 191.438 54.6602C191.273 54.293 191.008 54.0117 190.641 53.8164C190.273 53.6133 189.789 53.5117 189.188 53.5117H185.801L185.824 51.0977H190.043L190.852 52.0469C191.891 52.0312 192.727 52.2148 193.359 52.5977C194 52.9727 194.465 53.4609 194.754 54.0625C195.051 54.6641 195.199 55.3086 195.199 55.9961C195.199 57.0898 194.961 58.0117 194.484 58.7617C194.008 59.5039 193.309 60.0625 192.387 60.4375C191.473 60.8125 190.355 61 189.035 61ZM197.086 54.7891V54.543C197.086 53.6133 197.219 52.7578 197.484 51.9766C197.75 51.1875 198.137 50.5039 198.645 49.9258C199.152 49.3477 199.777 48.8984 200.52 48.5781C201.262 48.25 202.113 48.0859 203.074 48.0859C204.035 48.0859 204.891 48.25 205.641 48.5781C206.391 48.8984 207.02 49.3477 207.527 49.9258C208.043 50.5039 208.434 51.1875 208.699 51.9766C208.965 52.7578 209.098 53.6133 209.098 54.543V54.7891C209.098 55.7109 208.965 56.5664 208.699 57.3555C208.434 58.1367 208.043 58.8203 207.527 59.4062C207.02 59.9844 206.395 60.4336 205.652 60.7539C204.91 61.0742 204.059 61.2344 203.098 61.2344C202.137 61.2344 201.281 61.0742 200.531 60.7539C199.789 60.4336 199.16 59.9844 198.645 59.4062C198.137 58.8203 197.75 58.1367 197.484 57.3555C197.219 56.5664 197.086 55.7109 197.086 54.7891ZM200.461 54.543V54.7891C200.461 55.3203 200.508 55.8164 200.602 56.2773C200.695 56.7383 200.844 57.1445 201.047 57.4961C201.258 57.8398 201.531 58.1094 201.867 58.3047C202.203 58.5 202.613 58.5977 203.098 58.5977C203.566 58.5977 203.969 58.5 204.305 58.3047C204.641 58.1094 204.91 57.8398 205.113 57.4961C205.316 57.1445 205.465 56.7383 205.559 56.2773C205.66 55.8164 205.711 55.3203 205.711 54.7891V54.543C205.711 54.0273 205.66 53.543 205.559 53.0898C205.465 52.6289 205.312 52.2227 205.102 51.8711C204.898 51.5117 204.629 51.2305 204.293 51.0273C203.957 50.8242 203.551 50.7227 203.074 50.7227C202.598 50.7227 202.191 50.8242 201.855 51.0273C201.527 51.2305 201.258 51.5117 201.047 51.8711C200.844 52.2227 200.695 52.6289 200.602 53.0898C200.508 53.543 200.461 54.0273 200.461 54.543ZM217.383 48.3203V50.7109H210V48.3203H217.383ZM211.828 45.1914H215.203V57.1797C215.203 57.5469 215.25 57.8281 215.344 58.0234C215.445 58.2188 215.594 58.3555 215.789 58.4336C215.984 58.5039 216.23 58.5391 216.527 58.5391C216.738 58.5391 216.926 58.5312 217.09 58.5156C217.262 58.4922 217.406 58.4688 217.523 58.4453L217.535 60.9297C217.246 61.0234 216.934 61.0977 216.598 61.1523C216.262 61.207 215.891 61.2344 215.484 61.2344C214.742 61.2344 214.094 61.1133 213.539 60.8711C212.992 60.6211 212.57 60.2227 212.273 59.6758C211.977 59.1289 211.828 58.4102 211.828 57.5195V45.1914ZM222.867 48.3203V61H219.48V48.3203H222.867ZM219.27 45.0156C219.27 44.5234 219.441 44.1172 219.785 43.7969C220.129 43.4766 220.59 43.3164 221.168 43.3164C221.738 43.3164 222.195 43.4766 222.539 43.7969C222.891 44.1172 223.066 44.5234 223.066 45.0156C223.066 45.5078 222.891 45.9141 222.539 46.2344C222.195 46.5547 221.738 46.7148 221.168 46.7148C220.59 46.7148 220.129 46.5547 219.785 46.2344C219.441 45.9141 219.27 45.5078 219.27 45.0156ZM230.895 58.5977C231.309 58.5977 231.676 58.5195 231.996 58.3633C232.316 58.1992 232.566 57.9727 232.746 57.6836C232.934 57.3867 233.031 57.0391 233.039 56.6406H236.215C236.207 57.5312 235.969 58.3242 235.5 59.0195C235.031 59.707 234.402 60.25 233.613 60.6484C232.824 61.0391 231.941 61.2344 230.965 61.2344C229.98 61.2344 229.121 61.0703 228.387 60.7422C227.66 60.4141 227.055 59.9609 226.57 59.3828C226.086 58.7969 225.723 58.1172 225.48 57.3438C225.238 56.5625 225.117 55.7266 225.117 54.8359V54.4961C225.117 53.5977 225.238 52.7617 225.48 51.9883C225.723 51.207 226.086 50.5273 226.57 49.9492C227.055 49.3633 227.66 48.9062 228.387 48.5781C229.113 48.25 229.965 48.0859 230.941 48.0859C231.98 48.0859 232.891 48.2852 233.672 48.6836C234.461 49.082 235.078 49.6523 235.523 50.3945C235.977 51.1289 236.207 52 236.215 53.0078H233.039C233.031 52.5859 232.941 52.2031 232.77 51.8594C232.605 51.5156 232.363 51.2422 232.043 51.0391C231.73 50.8281 231.344 50.7227 230.883 50.7227C230.391 50.7227 229.988 50.8281 229.676 51.0391C229.363 51.2422 229.121 51.5234 228.949 51.8828C228.777 52.2344 228.656 52.6367 228.586 53.0898C228.523 53.5352 228.492 54.0039 228.492 54.4961V54.8359C228.492 55.3281 228.523 55.8008 228.586 56.2539C228.648 56.707 228.766 57.1094 228.938 57.4609C229.117 57.8125 229.363 58.0898 229.676 58.293C229.988 58.4961 230.395 58.5977 230.895 58.5977Z" fill="#888888"/>
<path d="M112.125 84.875V119H103.898V84.875H112.125ZM122.391 84.875V91.2266H93.8672V84.875H122.391ZM135.68 119.469C133.617 119.469 131.773 119.148 130.148 118.508C128.523 117.852 127.148 116.953 126.023 115.812C124.914 114.672 124.062 113.359 123.469 111.875C122.891 110.391 122.602 108.82 122.602 107.164V106.273C122.602 104.414 122.859 102.695 123.375 101.117C123.891 99.5234 124.656 98.1328 125.672 96.9453C126.688 95.7578 127.961 94.8359 129.492 94.1797C131.023 93.5078 132.805 93.1719 134.836 93.1719C136.633 93.1719 138.242 93.4609 139.664 94.0391C141.086 94.6172 142.289 95.4453 143.273 96.5234C144.273 97.6016 145.031 98.9062 145.547 100.438C146.078 101.969 146.344 103.688 146.344 105.594V108.805H125.625V103.859H138.633V103.25C138.648 102.406 138.5 101.688 138.188 101.094C137.891 100.5 137.453 100.047 136.875 99.7344C136.297 99.4219 135.594 99.2656 134.766 99.2656C133.906 99.2656 133.195 99.4531 132.633 99.8281C132.086 100.203 131.656 100.719 131.344 101.375C131.047 102.016 130.836 102.758 130.711 103.602C130.586 104.445 130.523 105.336 130.523 106.273V107.164C130.523 108.102 130.648 108.953 130.898 109.719C131.164 110.484 131.539 111.141 132.023 111.688C132.523 112.219 133.117 112.633 133.805 112.93C134.508 113.227 135.305 113.375 136.195 113.375C137.273 113.375 138.336 113.172 139.383 112.766C140.43 112.359 141.328 111.688 142.078 110.75L145.664 115.016C145.148 115.75 144.414 116.461 143.461 117.148C142.523 117.836 141.398 118.398 140.086 118.836C138.773 119.258 137.305 119.469 135.68 119.469ZM160.266 113.375C161 113.375 161.625 113.242 162.141 112.977C162.672 112.695 163.07 112.305 163.336 111.805C163.617 111.289 163.75 110.672 163.734 109.953H171.164C171.18 111.859 170.711 113.531 169.758 114.969C168.82 116.391 167.539 117.5 165.914 118.297C164.305 119.078 162.484 119.469 160.453 119.469C158.469 119.469 156.734 119.148 155.25 118.508C153.766 117.852 152.523 116.945 151.523 115.789C150.539 114.617 149.797 113.25 149.297 111.688C148.812 110.125 148.57 108.43 148.57 106.602V106.062C148.57 104.234 148.812 102.539 149.297 100.977C149.797 99.3984 150.539 98.0312 151.523 96.875C152.523 95.7031 153.758 94.7969 155.227 94.1562C156.711 93.5 158.438 93.1719 160.406 93.1719C162.516 93.1719 164.375 93.5703 165.984 94.3672C167.609 95.1641 168.883 96.3203 169.805 97.8359C170.727 99.3516 171.18 101.188 171.164 103.344H163.734C163.75 102.578 163.633 101.891 163.383 101.281C163.133 100.672 162.742 100.188 162.211 99.8281C161.695 99.4531 161.031 99.2656 160.219 99.2656C159.406 99.2656 158.75 99.4453 158.25 99.8047C157.75 100.164 157.367 100.664 157.102 101.305C156.852 101.93 156.68 102.648 156.586 103.461C156.508 104.273 156.469 105.141 156.469 106.062V106.602C156.469 107.539 156.508 108.422 156.586 109.25C156.68 110.062 156.859 110.781 157.125 111.406C157.391 112.016 157.773 112.5 158.273 112.859C158.773 113.203 159.438 113.375 160.266 113.375ZM182.273 83V119H174.375V83H182.273ZM181.336 105.453L179.484 105.5C179.484 103.719 179.703 102.078 180.141 100.578C180.578 99.0781 181.203 97.7734 182.016 96.6641C182.828 95.5547 183.805 94.6953 184.945 94.0859C186.086 93.4766 187.352 93.1719 188.742 93.1719C189.992 93.1719 191.133 93.3516 192.164 93.7109C193.211 94.0703 194.109 94.6484 194.859 95.4453C195.625 96.2422 196.211 97.2812 196.617 98.5625C197.039 99.8438 197.25 101.406 197.25 103.25V119H189.305V103.203C189.305 102.172 189.156 101.375 188.859 100.812C188.578 100.234 188.172 99.8359 187.641 99.6172C187.109 99.3828 186.461 99.2656 185.695 99.2656C184.773 99.2656 184.023 99.4219 183.445 99.7344C182.867 100.047 182.422 100.484 182.109 101.047C181.812 101.594 181.609 102.242 181.5 102.992C181.391 103.742 181.336 104.562 181.336 105.453ZM231.539 109.93C231.539 109.398 231.461 108.922 231.305 108.5C231.148 108.062 230.859 107.656 230.438 107.281C230.016 106.906 229.406 106.531 228.609 106.156C227.828 105.766 226.797 105.359 225.516 104.938C224.016 104.438 222.57 103.875 221.18 103.25C219.789 102.609 218.547 101.867 217.453 101.023C216.359 100.164 215.492 99.1641 214.852 98.0234C214.211 96.8672 213.891 95.5234 213.891 93.9922C213.891 92.5234 214.219 91.2031 214.875 90.0312C215.531 88.8438 216.445 87.8359 217.617 87.0078C218.805 86.1641 220.195 85.5234 221.789 85.0859C223.383 84.6328 225.125 84.4062 227.016 84.4062C229.516 84.4062 231.719 84.8438 233.625 85.7188C235.547 86.5781 237.047 87.8047 238.125 89.3984C239.219 90.9766 239.766 92.8438 239.766 95H231.586C231.586 94.1406 231.406 93.3828 231.047 92.7266C230.703 92.0703 230.18 91.5547 229.477 91.1797C228.773 90.8047 227.891 90.6172 226.828 90.6172C225.797 90.6172 224.93 90.7734 224.227 91.0859C223.523 91.3984 222.992 91.8203 222.633 92.3516C222.273 92.8672 222.094 93.4375 222.094 94.0625C222.094 94.5781 222.234 95.0469 222.516 95.4688C222.812 95.875 223.227 96.2578 223.758 96.6172C224.305 96.9766 224.961 97.3203 225.727 97.6484C226.508 97.9766 227.383 98.2969 228.352 98.6094C230.164 99.1875 231.773 99.8359 233.18 100.555C234.602 101.258 235.797 102.062 236.766 102.969C237.75 103.859 238.492 104.875 238.992 106.016C239.508 107.156 239.766 108.445 239.766 109.883C239.766 111.414 239.469 112.773 238.875 113.961C238.281 115.148 237.43 116.156 236.32 116.984C235.211 117.797 233.883 118.414 232.336 118.836C230.789 119.258 229.062 119.469 227.156 119.469C225.406 119.469 223.68 119.25 221.977 118.812C220.289 118.359 218.758 117.672 217.383 116.75C216.008 115.812 214.906 114.617 214.078 113.164C213.266 111.695 212.859 109.953 212.859 107.938H221.109C221.109 108.938 221.242 109.781 221.508 110.469C221.773 111.156 222.164 111.711 222.68 112.133C223.195 112.539 223.828 112.836 224.578 113.023C225.328 113.195 226.188 113.281 227.156 113.281C228.203 113.281 229.047 113.133 229.688 112.836C230.328 112.523 230.797 112.117 231.094 111.617C231.391 111.102 231.539 110.539 231.539 109.93ZM256.992 93.6406V99.125H241.711V93.6406H256.992ZM244.922 87.3359H252.82V110.727C252.82 111.398 252.898 111.922 253.055 112.297C253.211 112.656 253.477 112.914 253.852 113.07C254.242 113.211 254.758 113.281 255.398 113.281C255.852 113.281 256.227 113.273 256.523 113.258C256.82 113.227 257.102 113.188 257.367 113.141V118.789C256.695 119.008 255.992 119.172 255.258 119.281C254.523 119.406 253.742 119.469 252.914 119.469C251.227 119.469 249.781 119.203 248.578 118.672C247.391 118.141 246.484 117.305 245.859 116.164C245.234 115.023 244.922 113.539 244.922 111.711V87.3359ZM273.305 112.625V102.172C273.305 101.453 273.203 100.836 273 100.32C272.797 99.8047 272.477 99.4062 272.039 99.125C271.602 98.8281 271.016 98.6797 270.281 98.6797C269.688 98.6797 269.18 98.7812 268.758 98.9844C268.336 99.1875 268.016 99.4922 267.797 99.8984C267.578 100.305 267.469 100.82 267.469 101.445H259.57C259.57 100.273 259.828 99.1875 260.344 98.1875C260.875 97.1719 261.625 96.2891 262.594 95.5391C263.578 94.7891 264.75 94.2109 266.109 93.8047C267.484 93.3828 269.016 93.1719 270.703 93.1719C272.719 93.1719 274.516 93.5078 276.094 94.1797C277.688 94.8516 278.945 95.8594 279.867 97.2031C280.789 98.5312 281.25 100.203 281.25 102.219V112.602C281.25 114.258 281.344 115.516 281.531 116.375C281.719 117.219 281.984 117.961 282.328 118.602V119H274.406C274.031 118.219 273.75 117.266 273.562 116.141C273.391 115 273.305 113.828 273.305 112.625ZM274.266 103.508L274.312 107.727H270.82C270.086 107.727 269.461 107.828 268.945 108.031C268.445 108.234 268.039 108.516 267.727 108.875C267.43 109.219 267.211 109.609 267.07 110.047C266.945 110.484 266.883 110.945 266.883 111.43C266.883 111.898 266.992 112.32 267.211 112.695C267.445 113.055 267.758 113.336 268.148 113.539C268.539 113.742 268.977 113.844 269.461 113.844C270.336 113.844 271.078 113.68 271.688 113.352C272.312 113.008 272.789 112.594 273.117 112.109C273.445 111.625 273.609 111.172 273.609 110.75L275.344 113.984C275.031 114.609 274.672 115.242 274.266 115.883C273.875 116.523 273.383 117.117 272.789 117.664C272.211 118.195 271.5 118.633 270.656 118.977C269.812 119.305 268.789 119.469 267.586 119.469C266.023 119.469 264.586 119.148 263.273 118.508C261.977 117.867 260.938 116.977 260.156 115.836C259.375 114.68 258.984 113.352 258.984 111.852C258.984 110.539 259.219 109.367 259.688 108.336C260.172 107.305 260.898 106.43 261.867 105.711C262.836 104.992 264.07 104.445 265.57 104.07C267.07 103.695 268.836 103.508 270.867 103.508H274.266ZM296.344 113.375C297.078 113.375 297.703 113.242 298.219 112.977C298.75 112.695 299.148 112.305 299.414 111.805C299.695 111.289 299.828 110.672 299.812 109.953H307.242C307.258 111.859 306.789 113.531 305.836 114.969C304.898 116.391 303.617 117.5 301.992 118.297C300.383 119.078 298.562 119.469 296.531 119.469C294.547 119.469 292.812 119.148 291.328 118.508C289.844 117.852 288.602 116.945 287.602 115.789C286.617 114.617 285.875 113.25 285.375 111.688C284.891 110.125 284.648 108.43 284.648 106.602V106.062C284.648 104.234 284.891 102.539 285.375 100.977C285.875 99.3984 286.617 98.0312 287.602 96.875C288.602 95.7031 289.836 94.7969 291.305 94.1562C292.789 93.5 294.516 93.1719 296.484 93.1719C298.594 93.1719 300.453 93.5703 302.062 94.3672C303.688 95.1641 304.961 96.3203 305.883 97.8359C306.805 99.3516 307.258 101.188 307.242 103.344H299.812C299.828 102.578 299.711 101.891 299.461 101.281C299.211 100.672 298.82 100.188 298.289 99.8281C297.773 99.4531 297.109 99.2656 296.297 99.2656C295.484 99.2656 294.828 99.4453 294.328 99.8047C293.828 100.164 293.445 100.664 293.18 101.305C292.93 101.93 292.758 102.648 292.664 103.461C292.586 104.273 292.547 105.141 292.547 106.062V106.602C292.547 107.539 292.586 108.422 292.664 109.25C292.758 110.062 292.938 110.781 293.203 111.406C293.469 112.016 293.852 112.5 294.352 112.859C294.852 113.203 295.516 113.375 296.344 113.375ZM318.586 82.9766V119H310.688V82.9766H318.586ZM334.805 93.6406L323.789 106.555L318.023 112.32L314.578 107.305L319.383 101.047L325.336 93.6406H334.805ZM326.344 119L319.57 107.445L325.406 103.297L335.391 119H326.344ZM350.156 111.875C350.156 111.438 350.008 111.062 349.711 110.75C349.43 110.422 348.93 110.125 348.211 109.859C347.492 109.578 346.484 109.297 345.188 109.016C343.953 108.75 342.789 108.398 341.695 107.961C340.617 107.523 339.672 106.992 338.859 106.367C338.047 105.742 337.406 105 336.938 104.141C336.484 103.281 336.258 102.297 336.258 101.188C336.258 100.109 336.484 99.0938 336.938 98.1406C337.406 97.1719 338.086 96.3203 338.977 95.5859C339.883 94.8359 340.984 94.25 342.281 93.8281C343.578 93.3906 345.055 93.1719 346.711 93.1719C348.992 93.1719 350.961 93.5234 352.617 94.2266C354.273 94.9141 355.547 95.8828 356.438 97.1328C357.344 98.3672 357.797 99.7969 357.797 101.422H349.898C349.898 100.781 349.789 100.234 349.57 99.7812C349.367 99.3281 349.031 98.9844 348.562 98.75C348.094 98.5 347.469 98.375 346.688 98.375C346.141 98.375 345.641 98.4766 345.188 98.6797C344.75 98.8828 344.398 99.1641 344.133 99.5234C343.867 99.8828 343.734 100.305 343.734 100.789C343.734 101.133 343.812 101.445 343.969 101.727C344.141 101.992 344.398 102.242 344.742 102.477C345.086 102.695 345.523 102.898 346.055 103.086C346.586 103.258 347.227 103.414 347.977 103.555C349.68 103.867 351.273 104.312 352.758 104.891C354.242 105.469 355.445 106.289 356.367 107.352C357.305 108.414 357.773 109.844 357.773 111.641C357.773 112.766 357.516 113.805 357 114.758C356.484 115.695 355.742 116.523 354.773 117.242C353.805 117.945 352.641 118.492 351.281 118.883C349.922 119.273 348.391 119.469 346.688 119.469C344.266 119.469 342.219 119.039 340.547 118.18C338.875 117.305 337.609 116.211 336.75 114.898C335.906 113.57 335.484 112.227 335.484 110.867H342.844C342.875 111.648 343.062 112.289 343.406 112.789C343.766 113.289 344.242 113.656 344.836 113.891C345.43 114.125 346.117 114.242 346.898 114.242C347.617 114.242 348.211 114.141 348.68 113.938C349.164 113.734 349.531 113.461 349.781 113.117C350.031 112.758 350.156 112.344 350.156 111.875Z" fill="black"/>
<path d="M1134 0H1348C1356.28 0 1363 6.71573 1363 15V148C1363 156.284 1356.28 163 1348 163H1134V0Z" fill="#E4F2FD"/>
<path fill-rule="evenodd" clip-rule="evenodd" d="M1219.98 53C1219.85 53 1219.73 53.0527 1219.64 53.1464C1219.55 53.2402 1219.5 53.3674 1219.5 53.5V109.5C1219.5 109.633 1219.55 109.76 1219.64 109.854C1219.73 109.947 1219.85 110 1219.98 110H1277.02C1277.15 110 1277.27 109.947 1277.36 109.854C1277.45 109.76 1277.5 109.633 1277.5 109.5V64C1277.5 63.8674 1277.45 63.7402 1277.36 63.6464C1277.27 63.5527 1277.15 63.5 1277.02 63.5H1248.5C1247.65 63.5 1246.84 63.1045 1246.29 62.4206L1238.77 53H1219.98ZM1215.58 48.9038C1216.74 47.6848 1218.33 47 1219.98 47H1240.11C1240.97 47 1241.77 47.3955 1242.32 48.0794L1249.85 57.5H1277.02C1278.67 57.5 1280.26 58.1848 1281.42 59.4038C1282.59 60.6228 1283.25 62.2761 1283.25 64V109.5C1283.25 111.224 1282.59 112.877 1281.42 114.096C1280.26 115.315 1278.67 116 1277.02 116H1219.98C1218.33 116 1216.74 115.315 1215.58 114.096C1214.41 112.877 1213.75 111.224 1213.75 109.5V53.5C1213.75 51.7761 1214.41 50.1228 1215.58 48.9038Z" fill="white"/>
<path fill-rule="evenodd" clip-rule="evenodd" d="M1244.16 75.5251C1245.47 76.892 1245.47 79.108 1244.16 80.4749L1238.15 86.75L1244.16 93.0251C1245.47 94.392 1245.47 96.608 1244.16 97.9749C1242.85 99.3417 1240.73 99.3417 1239.42 97.9749L1231.03 89.2249C1229.72 87.858 1229.72 85.642 1231.03 84.2751L1239.42 75.5251C1240.73 74.1583 1242.85 74.1583 1244.16 75.5251Z" fill="white"/>
<path fill-rule="evenodd" clip-rule="evenodd" d="M1252.12 97.9749C1250.81 96.608 1250.81 94.392 1252.12 93.0251L1258.13 86.75L1252.12 80.4749C1250.81 79.108 1250.81 76.892 1252.12 75.5251C1253.43 74.1583 1255.55 74.1583 1256.86 75.5251L1265.25 84.2751C1266.56 85.642 1266.56 87.858 1265.25 89.2249L1256.86 97.9749C1255.55 99.3417 1253.43 99.3417 1252.12 97.9749Z" fill="white"/>
</svg>
