<svg width="1363" height="163" viewBox="0 0 1363 163" fill="none" xmlns="http://www.w3.org/2000/svg">
<path d="M0 15C0 6.71573 6.71573 0 15 0H37V163H15C6.71573 163 0 156.284 0 148V15Z" fill="#424242"/>
<rect width="1097" height="163" transform="translate(37)" fill="#F0F0F0"/>
<path d="M101.906 53.9219L94.3945 51.2383V48.0859L104.602 52.375V54.6367L101.906 53.9219ZM94.3945 56.1719L101.918 53.4297L104.602 52.7852V55.0352L94.3945 59.3242V56.1719ZM119.051 57.4375L123.07 43.9375H126.984L121.043 61H118.465L119.051 57.4375ZM115.348 43.9375L119.355 57.4375L119.965 61H117.363L111.457 43.9375H115.348ZM133.688 61.2344C132.703 61.2344 131.82 61.0781 131.039 60.7656C130.258 60.4453 129.594 60.0039 129.047 59.4414C128.508 58.8789 128.094 58.2266 127.805 57.4844C127.516 56.7344 127.371 55.9375 127.371 55.0938V54.625C127.371 53.6641 127.508 52.7852 127.781 51.9883C128.055 51.1914 128.445 50.5 128.953 49.9141C129.469 49.3281 130.094 48.8789 130.828 48.5664C131.562 48.2461 132.391 48.0859 133.312 48.0859C134.211 48.0859 135.008 48.2344 135.703 48.5312C136.398 48.8281 136.98 49.25 137.449 49.7969C137.926 50.3438 138.285 51 138.527 51.7656C138.77 52.5234 138.891 53.3672 138.891 54.2969V55.7031H128.812V53.4531H135.574V53.1953C135.574 52.7266 135.488 52.3086 135.316 51.9414C135.152 51.5664 134.902 51.2695 134.566 51.0508C134.23 50.832 133.801 50.7227 133.277 50.7227C132.832 50.7227 132.449 50.8203 132.129 51.0156C131.809 51.2109 131.547 51.4844 131.344 51.8359C131.148 52.1875 131 52.6016 130.898 53.0781C130.805 53.5469 130.758 54.0625 130.758 54.625V55.0938C130.758 55.6016 130.828 56.0703 130.969 56.5C131.117 56.9297 131.324 57.3008 131.59 57.6133C131.863 57.9258 132.191 58.168 132.574 58.3398C132.965 58.5117 133.406 58.5977 133.898 58.5977C134.508 58.5977 135.074 58.4805 135.598 58.2461C136.129 58.0039 136.586 57.6406 136.969 57.1562L138.609 58.9375C138.344 59.3203 137.98 59.6875 137.52 60.0391C137.066 60.3906 136.52 60.6797 135.879 60.9062C135.238 61.125 134.508 61.2344 133.688 61.2344ZM144.188 51.0859V61H140.812V48.3203H143.988L144.188 51.0859ZM148.008 48.2383L147.949 51.3672C147.785 51.3438 147.586 51.3242 147.352 51.3086C147.125 51.2852 146.918 51.2734 146.73 51.2734C146.254 51.2734 145.84 51.3359 145.488 51.4609C145.145 51.5781 144.855 51.7539 144.621 51.9883C144.395 52.2227 144.223 52.5078 144.105 52.8438C143.996 53.1797 143.934 53.5625 143.918 53.9922L143.238 53.7812C143.238 52.9609 143.32 52.207 143.484 51.5195C143.648 50.8242 143.887 50.2188 144.199 49.7031C144.52 49.1875 144.91 48.7891 145.371 48.5078C145.832 48.2266 146.359 48.0859 146.953 48.0859C147.141 48.0859 147.332 48.1016 147.527 48.1328C147.723 48.1562 147.883 48.1914 148.008 48.2383ZM149.602 43H152.977V58.0938L152.637 61H149.602V43ZM161.004 54.5312V54.7773C161.004 55.7227 160.902 56.5898 160.699 57.3789C160.504 58.168 160.199 58.8516 159.785 59.4297C159.371 60 158.855 60.4453 158.238 60.7656C157.629 61.0781 156.91 61.2344 156.082 61.2344C155.309 61.2344 154.637 61.0781 154.066 60.7656C153.504 60.4531 153.031 60.0117 152.648 59.4414C152.266 58.8711 151.957 58.2031 151.723 57.4375C151.488 56.6719 151.312 55.8359 151.195 54.9297V54.3906C151.312 53.4844 151.488 52.6484 151.723 51.8828C151.957 51.1172 152.266 50.4492 152.648 49.8789C153.031 49.3086 153.504 48.8672 154.066 48.5547C154.629 48.2422 155.293 48.0859 156.059 48.0859C156.895 48.0859 157.621 48.2461 158.238 48.5664C158.863 48.8789 159.379 49.3242 159.785 49.9023C160.199 50.4727 160.504 51.1523 160.699 51.9414C160.902 52.7227 161.004 53.5859 161.004 54.5312ZM157.629 54.7773V54.5312C157.629 54.0156 157.59 53.5312 157.512 53.0781C157.441 52.6172 157.316 52.2148 157.137 51.8711C156.957 51.5195 156.711 51.2422 156.398 51.0391C156.094 50.8359 155.699 50.7344 155.215 50.7344C154.754 50.7344 154.363 50.8125 154.043 50.9688C153.723 51.125 153.457 51.3438 153.246 51.625C153.043 51.9062 152.891 52.2422 152.789 52.6328C152.688 53.0156 152.625 53.4375 152.602 53.8984V55.4336C152.625 56.0508 152.727 56.5977 152.906 57.0742C153.094 57.543 153.375 57.9141 153.75 58.1875C154.133 58.4531 154.629 58.5859 155.238 58.5859C155.715 58.5859 156.109 58.4922 156.422 58.3047C156.734 58.1172 156.977 57.8516 157.148 57.5078C157.328 57.1641 157.453 56.7617 157.523 56.3008C157.594 55.832 157.629 55.3242 157.629 54.7773ZM169.945 58.1406V52.4922C169.945 52.0859 169.879 51.7383 169.746 51.4492C169.613 51.1523 169.406 50.9219 169.125 50.7578C168.852 50.5938 168.496 50.5117 168.059 50.5117C167.684 50.5117 167.359 50.5781 167.086 50.7109C166.812 50.8359 166.602 51.0195 166.453 51.2617C166.305 51.4961 166.23 51.7734 166.23 52.0938H162.855C162.855 51.5547 162.98 51.043 163.23 50.5586C163.48 50.0742 163.844 49.6484 164.32 49.2812C164.797 48.9062 165.363 48.6133 166.02 48.4023C166.684 48.1914 167.426 48.0859 168.246 48.0859C169.23 48.0859 170.105 48.25 170.871 48.5781C171.637 48.9062 172.238 49.3984 172.676 50.0547C173.121 50.7109 173.344 51.5312 173.344 52.5156V57.9414C173.344 58.6367 173.387 59.207 173.473 59.6523C173.559 60.0898 173.684 60.4727 173.848 60.8008V61H170.438C170.273 60.6562 170.148 60.2266 170.062 59.7109C169.984 59.1875 169.945 58.6641 169.945 58.1406ZM170.391 53.2773L170.414 55.1875H168.527C168.082 55.1875 167.695 55.2383 167.367 55.3398C167.039 55.4414 166.77 55.5859 166.559 55.7734C166.348 55.9531 166.191 56.1641 166.09 56.4062C165.996 56.6484 165.949 56.9141 165.949 57.2031C165.949 57.4922 166.016 57.7539 166.148 57.9883C166.281 58.2148 166.473 58.3945 166.723 58.5273C166.973 58.6523 167.266 58.7148 167.602 58.7148C168.109 58.7148 168.551 58.6133 168.926 58.4102C169.301 58.207 169.59 57.957 169.793 57.6602C170.004 57.3633 170.113 57.082 170.121 56.8164L171.012 58.2461C170.887 58.5664 170.715 58.8984 170.496 59.2422C170.285 59.5859 170.016 59.9102 169.688 60.2148C169.359 60.5117 168.965 60.7578 168.504 60.9531C168.043 61.1406 167.496 61.2344 166.863 61.2344C166.059 61.2344 165.328 61.0742 164.672 60.7539C164.023 60.4258 163.508 59.9766 163.125 59.4062C162.75 58.8281 162.562 58.1719 162.562 57.4375C162.562 56.7734 162.688 56.1836 162.938 55.668C163.188 55.1523 163.555 54.7188 164.039 54.3672C164.531 54.0078 165.145 53.7383 165.879 53.5586C166.613 53.3711 167.465 53.2773 168.434 53.2773H170.391ZM179.508 43V61H176.121V43H179.508ZM189.188 53.5117H184.805L184.781 51.0977H188.461C189.109 51.0977 189.641 51.0156 190.055 50.8516C190.469 50.6797 190.777 50.4336 190.98 50.1133C191.191 49.7852 191.297 49.3867 191.297 48.918C191.297 48.3867 191.195 47.957 190.992 47.6289C190.797 47.3008 190.488 47.0625 190.066 46.9141C189.652 46.7656 189.117 46.6914 188.461 46.6914H186.023V61H182.508V43.9375H188.461C189.453 43.9375 190.34 44.0312 191.121 44.2188C191.91 44.4062 192.578 44.6914 193.125 45.0742C193.672 45.457 194.09 45.9414 194.379 46.5273C194.668 47.1055 194.812 47.793 194.812 48.5898C194.812 49.293 194.652 49.9414 194.332 50.5352C194.02 51.1289 193.523 51.6133 192.844 51.9883C192.172 52.3633 191.293 52.5703 190.207 52.6094L189.188 53.5117ZM189.035 61H183.844L185.215 58.2578H189.035C189.652 58.2578 190.156 58.1602 190.547 57.9648C190.938 57.7617 191.227 57.4883 191.414 57.1445C191.602 56.8008 191.695 56.4062 191.695 55.9609C191.695 55.4609 191.609 55.0273 191.438 54.6602C191.273 54.293 191.008 54.0117 190.641 53.8164C190.273 53.6133 189.789 53.5117 189.188 53.5117H185.801L185.824 51.0977H190.043L190.852 52.0469C191.891 52.0312 192.727 52.2148 193.359 52.5977C194 52.9727 194.465 53.4609 194.754 54.0625C195.051 54.6641 195.199 55.3086 195.199 55.9961C195.199 57.0898 194.961 58.0117 194.484 58.7617C194.008 59.5039 193.309 60.0625 192.387 60.4375C191.473 60.8125 190.355 61 189.035 61ZM197.086 54.7891V54.543C197.086 53.6133 197.219 52.7578 197.484 51.9766C197.75 51.1875 198.137 50.5039 198.645 49.9258C199.152 49.3477 199.777 48.8984 200.52 48.5781C201.262 48.25 202.113 48.0859 203.074 48.0859C204.035 48.0859 204.891 48.25 205.641 48.5781C206.391 48.8984 207.02 49.3477 207.527 49.9258C208.043 50.5039 208.434 51.1875 208.699 51.9766C208.965 52.7578 209.098 53.6133 209.098 54.543V54.7891C209.098 55.7109 208.965 56.5664 208.699 57.3555C208.434 58.1367 208.043 58.8203 207.527 59.4062C207.02 59.9844 206.395 60.4336 205.652 60.7539C204.91 61.0742 204.059 61.2344 203.098 61.2344C202.137 61.2344 201.281 61.0742 200.531 60.7539C199.789 60.4336 199.16 59.9844 198.645 59.4062C198.137 58.8203 197.75 58.1367 197.484 57.3555C197.219 56.5664 197.086 55.7109 197.086 54.7891ZM200.461 54.543V54.7891C200.461 55.3203 200.508 55.8164 200.602 56.2773C200.695 56.7383 200.844 57.1445 201.047 57.4961C201.258 57.8398 201.531 58.1094 201.867 58.3047C202.203 58.5 202.613 58.5977 203.098 58.5977C203.566 58.5977 203.969 58.5 204.305 58.3047C204.641 58.1094 204.91 57.8398 205.113 57.4961C205.316 57.1445 205.465 56.7383 205.559 56.2773C205.66 55.8164 205.711 55.3203 205.711 54.7891V54.543C205.711 54.0273 205.66 53.543 205.559 53.0898C205.465 52.6289 205.312 52.2227 205.102 51.8711C204.898 51.5117 204.629 51.2305 204.293 51.0273C203.957 50.8242 203.551 50.7227 203.074 50.7227C202.598 50.7227 202.191 50.8242 201.855 51.0273C201.527 51.2305 201.258 51.5117 201.047 51.8711C200.844 52.2227 200.695 52.6289 200.602 53.0898C200.508 53.543 200.461 54.0273 200.461 54.543ZM217.383 48.3203V50.7109H210V48.3203H217.383ZM211.828 45.1914H215.203V57.1797C215.203 57.5469 215.25 57.8281 215.344 58.0234C215.445 58.2188 215.594 58.3555 215.789 58.4336C215.984 58.5039 216.23 58.5391 216.527 58.5391C216.738 58.5391 216.926 58.5312 217.09 58.5156C217.262 58.4922 217.406 58.4688 217.523 58.4453L217.535 60.9297C217.246 61.0234 216.934 61.0977 216.598 61.1523C216.262 61.207 215.891 61.2344 215.484 61.2344C214.742 61.2344 214.094 61.1133 213.539 60.8711C212.992 60.6211 212.57 60.2227 212.273 59.6758C211.977 59.1289 211.828 58.4102 211.828 57.5195V45.1914ZM222.867 48.3203V61H219.48V48.3203H222.867ZM219.27 45.0156C219.27 44.5234 219.441 44.1172 219.785 43.7969C220.129 43.4766 220.59 43.3164 221.168 43.3164C221.738 43.3164 222.195 43.4766 222.539 43.7969C222.891 44.1172 223.066 44.5234 223.066 45.0156C223.066 45.5078 222.891 45.9141 222.539 46.2344C222.195 46.5547 221.738 46.7148 221.168 46.7148C220.59 46.7148 220.129 46.5547 219.785 46.2344C219.441 45.9141 219.27 45.5078 219.27 45.0156ZM230.895 58.5977C231.309 58.5977 231.676 58.5195 231.996 58.3633C232.316 58.1992 232.566 57.9727 232.746 57.6836C232.934 57.3867 233.031 57.0391 233.039 56.6406H236.215C236.207 57.5312 235.969 58.3242 235.5 59.0195C235.031 59.707 234.402 60.25 233.613 60.6484C232.824 61.0391 231.941 61.2344 230.965 61.2344C229.98 61.2344 229.121 61.0703 228.387 60.7422C227.66 60.4141 227.055 59.9609 226.57 59.3828C226.086 58.7969 225.723 58.1172 225.48 57.3438C225.238 56.5625 225.117 55.7266 225.117 54.8359V54.4961C225.117 53.5977 225.238 52.7617 225.48 51.9883C225.723 51.207 226.086 50.5273 226.57 49.9492C227.055 49.3633 227.66 48.9062 228.387 48.5781C229.113 48.25 229.965 48.0859 230.941 48.0859C231.98 48.0859 232.891 48.2852 233.672 48.6836C234.461 49.082 235.078 49.6523 235.523 50.3945C235.977 51.1289 236.207 52 236.215 53.0078H233.039C233.031 52.5859 232.941 52.2031 232.77 51.8594C232.605 51.5156 232.363 51.2422 232.043 51.0391C231.73 50.8281 231.344 50.7227 230.883 50.7227C230.391 50.7227 229.988 50.8281 229.676 51.0391C229.363 51.2422 229.121 51.5234 228.949 51.8828C228.777 52.2344 228.656 52.6367 228.586 53.0898C228.523 53.5352 228.492 54.0039 228.492 54.4961V54.8359C228.492 55.3281 228.523 55.8008 228.586 56.2539C228.648 56.707 228.766 57.1094 228.938 57.4609C229.117 57.8125 229.363 58.0898 229.676 58.293C229.988 58.4961 230.395 58.5977 230.895 58.5977Z" fill="#888888"/>
<path d="M118.594 98.4219V104.75H101.086V98.4219H118.594ZM103.828 84.875V119H95.6016V84.875H103.828ZM124.125 84.875V119H115.922V84.875H124.125ZM127.992 106.578V106.086C127.992 104.227 128.258 102.516 128.789 100.953C129.32 99.375 130.102 98.0078 131.133 96.8516C132.164 95.6953 133.438 94.7969 134.953 94.1562C136.469 93.5 138.219 93.1719 140.203 93.1719C142.203 93.1719 143.961 93.5 145.477 94.1562C147.008 94.7969 148.289 95.6953 149.32 96.8516C150.352 98.0078 151.133 99.375 151.664 100.953C152.195 102.516 152.461 104.227 152.461 106.086V106.578C152.461 108.422 152.195 110.133 151.664 111.711C151.133 113.273 150.352 114.641 149.32 115.812C148.289 116.969 147.016 117.867 145.5 118.508C143.984 119.148 142.234 119.469 140.25 119.469C138.266 119.469 136.508 119.148 134.977 118.508C133.445 117.867 132.164 116.969 131.133 115.812C130.102 114.641 129.32 113.273 128.789 111.711C128.258 110.133 127.992 108.422 127.992 106.578ZM135.891 106.086V106.578C135.891 107.531 135.961 108.422 136.102 109.25C136.242 110.078 136.477 110.805 136.805 111.43C137.133 112.039 137.578 112.516 138.141 112.859C138.703 113.203 139.406 113.375 140.25 113.375C141.078 113.375 141.766 113.203 142.312 112.859C142.875 112.516 143.32 112.039 143.648 111.43C143.977 110.805 144.211 110.078 144.352 109.25C144.492 108.422 144.562 107.531 144.562 106.578V106.086C144.562 105.164 144.492 104.297 144.352 103.484C144.211 102.656 143.977 101.93 143.648 101.305C143.32 100.664 142.875 100.164 142.312 99.8047C141.75 99.4453 141.047 99.2656 140.203 99.2656C139.375 99.2656 138.68 99.4453 138.117 99.8047C137.57 100.164 137.133 100.664 136.805 101.305C136.477 101.93 136.242 102.656 136.102 103.484C135.961 104.297 135.891 105.164 135.891 106.086ZM163.688 111.453L168.375 93.6406H173.32L171.562 102.57L166.922 119H162.961L163.688 111.453ZM161.836 93.6406L164.742 111.312L165.07 119H160.266L154.266 93.6406H161.836ZM177.492 110.938L180.422 93.6406H187.992L182.039 119H177.234L177.492 110.938ZM173.883 93.6406L178.617 111.406L179.344 119H175.336L170.789 102.617L169.102 93.6406H173.883ZM218.297 84.875V119H210.07V84.875H218.297ZM228.562 84.875V91.2266H200.039V84.875H228.562ZM225.773 106.578V106.086C225.773 104.227 226.039 102.516 226.57 100.953C227.102 99.375 227.883 98.0078 228.914 96.8516C229.945 95.6953 231.219 94.7969 232.734 94.1562C234.25 93.5 236 93.1719 237.984 93.1719C239.984 93.1719 241.742 93.5 243.258 94.1562C244.789 94.7969 246.07 95.6953 247.102 96.8516C248.133 98.0078 248.914 99.375 249.445 100.953C249.977 102.516 250.242 104.227 250.242 106.086V106.578C250.242 108.422 249.977 110.133 249.445 111.711C248.914 113.273 248.133 114.641 247.102 115.812C246.07 116.969 244.797 117.867 243.281 118.508C241.766 119.148 240.016 119.469 238.031 119.469C236.047 119.469 234.289 119.148 232.758 118.508C231.227 117.867 229.945 116.969 228.914 115.812C227.883 114.641 227.102 113.273 226.57 111.711C226.039 110.133 225.773 108.422 225.773 106.578ZM233.672 106.086V106.578C233.672 107.531 233.742 108.422 233.883 109.25C234.023 110.078 234.258 110.805 234.586 111.43C234.914 112.039 235.359 112.516 235.922 112.859C236.484 113.203 237.188 113.375 238.031 113.375C238.859 113.375 239.547 113.203 240.094 112.859C240.656 112.516 241.102 112.039 241.43 111.43C241.758 110.805 241.992 110.078 242.133 109.25C242.273 108.422 242.344 107.531 242.344 106.578V106.086C242.344 105.164 242.273 104.297 242.133 103.484C241.992 102.656 241.758 101.93 241.43 101.305C241.102 100.664 240.656 100.164 240.094 99.8047C239.531 99.4453 238.828 99.2656 237.984 99.2656C237.156 99.2656 236.461 99.4453 235.898 99.8047C235.352 100.164 234.914 100.664 234.586 101.305C234.258 101.93 234.023 102.656 233.883 103.484C233.742 104.297 233.672 105.164 233.672 106.086ZM266.086 84.875H279.516C282.141 84.875 284.422 85.2656 286.359 86.0469C288.297 86.8281 289.789 87.9844 290.836 89.5156C291.898 91.0469 292.43 92.9375 292.43 95.1875C292.43 97.1406 292.125 98.7734 291.516 100.086C290.906 101.398 290.055 102.484 288.961 103.344C287.883 104.188 286.625 104.883 285.188 105.43L282.492 106.953H271.219L271.172 100.602H279.516C280.562 100.602 281.43 100.414 282.117 100.039C282.805 99.6641 283.32 99.1328 283.664 98.4453C284.023 97.7422 284.203 96.9062 284.203 95.9375C284.203 94.9531 284.023 94.1094 283.664 93.4062C283.305 92.7031 282.773 92.1641 282.07 91.7891C281.383 91.4141 280.531 91.2266 279.516 91.2266H274.312V119H266.086V84.875ZM284.766 119L277.219 103.906L285.938 103.859L293.578 118.648V119H284.766ZM311.836 112.836V93.6406H319.758V119H312.352L311.836 112.836ZM312.586 107.68L314.648 107.633C314.648 109.336 314.445 110.914 314.039 112.367C313.633 113.805 313.031 115.055 312.234 116.117C311.453 117.18 310.484 118.008 309.328 118.602C308.188 119.18 306.867 119.469 305.367 119.469C304.117 119.469 302.969 119.297 301.922 118.953C300.891 118.594 300 118.039 299.25 117.289C298.5 116.523 297.914 115.547 297.492 114.359C297.086 113.156 296.883 111.719 296.883 110.047V93.6406H304.781V110.094C304.781 110.656 304.852 111.141 304.992 111.547C305.133 111.953 305.336 112.297 305.602 112.578C305.867 112.844 306.195 113.047 306.586 113.188C306.992 113.312 307.453 113.375 307.969 113.375C309.156 113.375 310.086 113.125 310.758 112.625C311.43 112.125 311.898 111.445 312.164 110.586C312.445 109.727 312.586 108.758 312.586 107.68ZM331.875 99.0547V119H323.977V93.6406H331.383L331.875 99.0547ZM330.938 105.453L329.086 105.5C329.086 103.562 329.32 101.836 329.789 100.32C330.258 98.7891 330.922 97.4922 331.781 96.4297C332.641 95.3672 333.664 94.5625 334.852 94.0156C336.055 93.4531 337.391 93.1719 338.859 93.1719C340.031 93.1719 341.102 93.3438 342.07 93.6875C343.055 94.0312 343.898 94.5859 344.602 95.3516C345.32 96.1172 345.867 97.1328 346.242 98.3984C346.633 99.6484 346.828 101.195 346.828 103.039V119H338.883V103.016C338.883 102 338.742 101.227 338.461 100.695C338.18 100.148 337.773 99.7734 337.242 99.5703C336.711 99.3672 336.062 99.2656 335.297 99.2656C334.484 99.2656 333.797 99.4219 333.234 99.7344C332.672 100.047 332.219 100.484 331.875 101.047C331.547 101.594 331.305 102.242 331.148 102.992C331.008 103.742 330.938 104.562 330.938 105.453ZM363.773 108.195H357.047C357.047 106.82 357.141 105.609 357.328 104.562C357.531 103.5 357.875 102.547 358.359 101.703C358.844 100.859 359.5 100.078 360.328 99.3594C361.062 98.75 361.695 98.1641 362.227 97.6016C362.758 97.0391 363.164 96.4688 363.445 95.8906C363.727 95.3125 363.867 94.6953 363.867 94.0391C363.867 93.2266 363.75 92.5625 363.516 92.0469C363.297 91.5312 362.961 91.1484 362.508 90.8984C362.07 90.6328 361.516 90.5 360.844 90.5C360.297 90.5 359.781 90.6328 359.297 90.8984C358.828 91.1641 358.445 91.5781 358.148 92.1406C357.852 92.6875 357.688 93.4141 357.656 94.3203H349.711C349.758 91.9922 350.273 90.1016 351.258 88.6484C352.258 87.1797 353.586 86.1094 355.242 85.4375C356.914 84.75 358.781 84.4062 360.844 84.4062C363.125 84.4062 365.086 84.7578 366.727 85.4609C368.367 86.1641 369.625 87.2109 370.5 88.6016C371.375 89.9766 371.812 91.6719 371.812 93.6875C371.812 95.0312 371.555 96.2031 371.039 97.2031C370.539 98.1875 369.859 99.1094 369 99.9688C368.156 100.812 367.211 101.719 366.164 102.688C365.258 103.484 364.641 104.297 364.312 105.125C363.984 105.938 363.805 106.961 363.773 108.195ZM356.086 115.32C356.086 114.195 356.492 113.258 357.305 112.508C358.117 111.742 359.172 111.359 360.469 111.359C361.766 111.359 362.82 111.742 363.633 112.508C364.445 113.258 364.852 114.195 364.852 115.32C364.852 116.445 364.445 117.391 363.633 118.156C362.82 118.906 361.766 119.281 360.469 119.281C359.172 119.281 358.117 118.906 357.305 118.156C356.492 117.391 356.086 116.445 356.086 115.32Z" fill="black"/>
<path d="M1134 0H1348C1356.28 0 1363 6.71573 1363 15V148C1363 156.284 1356.28 163 1348 163H1134V0Z" fill="#FFE4C4"/>
<path d="M1260.62 78.8847C1263.81 78.8847 1266.93 79.805 1269.59 81.5293C1272.25 83.2536 1274.32 85.7044 1275.54 88.5718C1276.76 91.4391 1277.08 94.5943 1276.46 97.6383C1275.84 100.682 1274.3 103.478 1272.04 105.673C1269.78 107.868 1266.9 109.362 1263.77 109.968C1260.63 110.573 1257.39 110.262 1254.43 109.075C1251.48 107.887 1248.96 105.876 1247.18 103.295C1245.41 100.714 1244.46 97.6806 1244.46 94.5769C1244.46 90.4151 1246.16 86.4237 1249.19 83.4808C1252.22 80.538 1256.33 78.8847 1260.62 78.8847ZM1260.62 73.6539C1256.36 73.6539 1252.19 74.881 1248.65 77.1801C1245.11 79.4791 1242.35 82.7469 1240.72 86.57C1239.09 90.3932 1238.66 94.6001 1239.49 98.6588C1240.32 102.717 1242.37 106.446 1245.39 109.372C1248.4 112.298 1252.24 114.291 1256.41 115.098C1260.59 115.905 1264.92 115.491 1268.86 113.907C1272.79 112.324 1276.16 109.642 1278.52 106.201C1280.89 102.76 1282.15 98.7151 1282.15 94.5769C1282.15 89.0278 1279.88 83.706 1275.85 79.7821C1271.81 75.8583 1266.33 73.6539 1260.62 73.6539Z" fill="white"/>
<path d="M1274.08 47.5H1220.23C1218.8 47.5 1217.43 48.0511 1216.42 49.0321C1215.41 50.013 1214.85 51.3435 1214.85 52.7307V105.038C1214.85 106.426 1215.41 107.756 1216.42 108.737C1217.43 109.718 1218.8 110.269 1220.23 110.269H1231V105.038H1220.23V68.423H1279.46V52.7307C1279.46 51.3435 1278.89 50.013 1277.88 49.0321C1276.87 48.0511 1275.5 47.5 1274.08 47.5ZM1220.23 63.1922V52.7307H1274.08V63.1922H1220.23Z" fill="white"/>
<path d="M1255.23 86.731V102.423L1268.69 94.5771L1255.23 86.731Z" fill="white"/>
</svg>
