<svg width="1363" height="163" viewBox="0 0 1363 163" fill="none" xmlns="http://www.w3.org/2000/svg">
<path d="M0 15C0 6.71573 6.71573 0 15 0H37V163H15C6.71573 163 0 156.284 0 148V15Z" fill="#424242"/>
<rect width="1097" height="163" transform="translate(37)" fill="#F0F0F0"/>
<path d="M101.906 53.9219L94.3945 51.2383V48.0859L104.602 52.375V54.6367L101.906 53.9219ZM94.3945 56.1719L101.918 53.4297L104.602 52.7852V55.0352L94.3945 59.3242V56.1719ZM119.051 57.4375L123.07 43.9375H126.984L121.043 61H118.465L119.051 57.4375ZM115.348 43.9375L119.355 57.4375L119.965 61H117.363L111.457 43.9375H115.348ZM133.688 61.2344C132.703 61.2344 131.82 61.0781 131.039 60.7656C130.258 60.4453 129.594 60.0039 129.047 59.4414C128.508 58.8789 128.094 58.2266 127.805 57.4844C127.516 56.7344 127.371 55.9375 127.371 55.0938V54.625C127.371 53.6641 127.508 52.7852 127.781 51.9883C128.055 51.1914 128.445 50.5 128.953 49.9141C129.469 49.3281 130.094 48.8789 130.828 48.5664C131.562 48.2461 132.391 48.0859 133.312 48.0859C134.211 48.0859 135.008 48.2344 135.703 48.5312C136.398 48.8281 136.98 49.25 137.449 49.7969C137.926 50.3438 138.285 51 138.527 51.7656C138.77 52.5234 138.891 53.3672 138.891 54.2969V55.7031H128.812V53.4531H135.574V53.1953C135.574 52.7266 135.488 52.3086 135.316 51.9414C135.152 51.5664 134.902 51.2695 134.566 51.0508C134.23 50.832 133.801 50.7227 133.277 50.7227C132.832 50.7227 132.449 50.8203 132.129 51.0156C131.809 51.2109 131.547 51.4844 131.344 51.8359C131.148 52.1875 131 52.6016 130.898 53.0781C130.805 53.5469 130.758 54.0625 130.758 54.625V55.0938C130.758 55.6016 130.828 56.0703 130.969 56.5C131.117 56.9297 131.324 57.3008 131.59 57.6133C131.863 57.9258 132.191 58.168 132.574 58.3398C132.965 58.5117 133.406 58.5977 133.898 58.5977C134.508 58.5977 135.074 58.4805 135.598 58.2461C136.129 58.0039 136.586 57.6406 136.969 57.1562L138.609 58.9375C138.344 59.3203 137.98 59.6875 137.52 60.0391C137.066 60.3906 136.52 60.6797 135.879 60.9062C135.238 61.125 134.508 61.2344 133.688 61.2344ZM144.188 51.0859V61H140.812V48.3203H143.988L144.188 51.0859ZM148.008 48.2383L147.949 51.3672C147.785 51.3438 147.586 51.3242 147.352 51.3086C147.125 51.2852 146.918 51.2734 146.73 51.2734C146.254 51.2734 145.84 51.3359 145.488 51.4609C145.145 51.5781 144.855 51.7539 144.621 51.9883C144.395 52.2227 144.223 52.5078 144.105 52.8438C143.996 53.1797 143.934 53.5625 143.918 53.9922L143.238 53.7812C143.238 52.9609 143.32 52.207 143.484 51.5195C143.648 50.8242 143.887 50.2188 144.199 49.7031C144.52 49.1875 144.91 48.7891 145.371 48.5078C145.832 48.2266 146.359 48.0859 146.953 48.0859C147.141 48.0859 147.332 48.1016 147.527 48.1328C147.723 48.1562 147.883 48.1914 148.008 48.2383ZM149.602 43H152.977V58.0938L152.637 61H149.602V43ZM161.004 54.5312V54.7773C161.004 55.7227 160.902 56.5898 160.699 57.3789C160.504 58.168 160.199 58.8516 159.785 59.4297C159.371 60 158.855 60.4453 158.238 60.7656C157.629 61.0781 156.91 61.2344 156.082 61.2344C155.309 61.2344 154.637 61.0781 154.066 60.7656C153.504 60.4531 153.031 60.0117 152.648 59.4414C152.266 58.8711 151.957 58.2031 151.723 57.4375C151.488 56.6719 151.312 55.8359 151.195 54.9297V54.3906C151.312 53.4844 151.488 52.6484 151.723 51.8828C151.957 51.1172 152.266 50.4492 152.648 49.8789C153.031 49.3086 153.504 48.8672 154.066 48.5547C154.629 48.2422 155.293 48.0859 156.059 48.0859C156.895 48.0859 157.621 48.2461 158.238 48.5664C158.863 48.8789 159.379 49.3242 159.785 49.9023C160.199 50.4727 160.504 51.1523 160.699 51.9414C160.902 52.7227 161.004 53.5859 161.004 54.5312ZM157.629 54.7773V54.5312C157.629 54.0156 157.59 53.5312 157.512 53.0781C157.441 52.6172 157.316 52.2148 157.137 51.8711C156.957 51.5195 156.711 51.2422 156.398 51.0391C156.094 50.8359 155.699 50.7344 155.215 50.7344C154.754 50.7344 154.363 50.8125 154.043 50.9688C153.723 51.125 153.457 51.3438 153.246 51.625C153.043 51.9062 152.891 52.2422 152.789 52.6328C152.688 53.0156 152.625 53.4375 152.602 53.8984V55.4336C152.625 56.0508 152.727 56.5977 152.906 57.0742C153.094 57.543 153.375 57.9141 153.75 58.1875C154.133 58.4531 154.629 58.5859 155.238 58.5859C155.715 58.5859 156.109 58.4922 156.422 58.3047C156.734 58.1172 156.977 57.8516 157.148 57.5078C157.328 57.1641 157.453 56.7617 157.523 56.3008C157.594 55.832 157.629 55.3242 157.629 54.7773ZM169.945 58.1406V52.4922C169.945 52.0859 169.879 51.7383 169.746 51.4492C169.613 51.1523 169.406 50.9219 169.125 50.7578C168.852 50.5938 168.496 50.5117 168.059 50.5117C167.684 50.5117 167.359 50.5781 167.086 50.7109C166.812 50.8359 166.602 51.0195 166.453 51.2617C166.305 51.4961 166.23 51.7734 166.23 52.0938H162.855C162.855 51.5547 162.98 51.043 163.23 50.5586C163.48 50.0742 163.844 49.6484 164.32 49.2812C164.797 48.9062 165.363 48.6133 166.02 48.4023C166.684 48.1914 167.426 48.0859 168.246 48.0859C169.23 48.0859 170.105 48.25 170.871 48.5781C171.637 48.9062 172.238 49.3984 172.676 50.0547C173.121 50.7109 173.344 51.5312 173.344 52.5156V57.9414C173.344 58.6367 173.387 59.207 173.473 59.6523C173.559 60.0898 173.684 60.4727 173.848 60.8008V61H170.438C170.273 60.6562 170.148 60.2266 170.062 59.7109C169.984 59.1875 169.945 58.6641 169.945 58.1406ZM170.391 53.2773L170.414 55.1875H168.527C168.082 55.1875 167.695 55.2383 167.367 55.3398C167.039 55.4414 166.77 55.5859 166.559 55.7734C166.348 55.9531 166.191 56.1641 166.09 56.4062C165.996 56.6484 165.949 56.9141 165.949 57.2031C165.949 57.4922 166.016 57.7539 166.148 57.9883C166.281 58.2148 166.473 58.3945 166.723 58.5273C166.973 58.6523 167.266 58.7148 167.602 58.7148C168.109 58.7148 168.551 58.6133 168.926 58.4102C169.301 58.207 169.59 57.957 169.793 57.6602C170.004 57.3633 170.113 57.082 170.121 56.8164L171.012 58.2461C170.887 58.5664 170.715 58.8984 170.496 59.2422C170.285 59.5859 170.016 59.9102 169.688 60.2148C169.359 60.5117 168.965 60.7578 168.504 60.9531C168.043 61.1406 167.496 61.2344 166.863 61.2344C166.059 61.2344 165.328 61.0742 164.672 60.7539C164.023 60.4258 163.508 59.9766 163.125 59.4062C162.75 58.8281 162.562 58.1719 162.562 57.4375C162.562 56.7734 162.688 56.1836 162.938 55.668C163.188 55.1523 163.555 54.7188 164.039 54.3672C164.531 54.0078 165.145 53.7383 165.879 53.5586C166.613 53.3711 167.465 53.2773 168.434 53.2773H170.391ZM179.508 43V61H176.121V43H179.508ZM189.188 53.5117H184.805L184.781 51.0977H188.461C189.109 51.0977 189.641 51.0156 190.055 50.8516C190.469 50.6797 190.777 50.4336 190.98 50.1133C191.191 49.7852 191.297 49.3867 191.297 48.918C191.297 48.3867 191.195 47.957 190.992 47.6289C190.797 47.3008 190.488 47.0625 190.066 46.9141C189.652 46.7656 189.117 46.6914 188.461 46.6914H186.023V61H182.508V43.9375H188.461C189.453 43.9375 190.34 44.0312 191.121 44.2188C191.91 44.4062 192.578 44.6914 193.125 45.0742C193.672 45.457 194.09 45.9414 194.379 46.5273C194.668 47.1055 194.812 47.793 194.812 48.5898C194.812 49.293 194.652 49.9414 194.332 50.5352C194.02 51.1289 193.523 51.6133 192.844 51.9883C192.172 52.3633 191.293 52.5703 190.207 52.6094L189.188 53.5117ZM189.035 61H183.844L185.215 58.2578H189.035C189.652 58.2578 190.156 58.1602 190.547 57.9648C190.938 57.7617 191.227 57.4883 191.414 57.1445C191.602 56.8008 191.695 56.4062 191.695 55.9609C191.695 55.4609 191.609 55.0273 191.438 54.6602C191.273 54.293 191.008 54.0117 190.641 53.8164C190.273 53.6133 189.789 53.5117 189.188 53.5117H185.801L185.824 51.0977H190.043L190.852 52.0469C191.891 52.0312 192.727 52.2148 193.359 52.5977C194 52.9727 194.465 53.4609 194.754 54.0625C195.051 54.6641 195.199 55.3086 195.199 55.9961C195.199 57.0898 194.961 58.0117 194.484 58.7617C194.008 59.5039 193.309 60.0625 192.387 60.4375C191.473 60.8125 190.355 61 189.035 61ZM197.086 54.7891V54.543C197.086 53.6133 197.219 52.7578 197.484 51.9766C197.75 51.1875 198.137 50.5039 198.645 49.9258C199.152 49.3477 199.777 48.8984 200.52 48.5781C201.262 48.25 202.113 48.0859 203.074 48.0859C204.035 48.0859 204.891 48.25 205.641 48.5781C206.391 48.8984 207.02 49.3477 207.527 49.9258C208.043 50.5039 208.434 51.1875 208.699 51.9766C208.965 52.7578 209.098 53.6133 209.098 54.543V54.7891C209.098 55.7109 208.965 56.5664 208.699 57.3555C208.434 58.1367 208.043 58.8203 207.527 59.4062C207.02 59.9844 206.395 60.4336 205.652 60.7539C204.91 61.0742 204.059 61.2344 203.098 61.2344C202.137 61.2344 201.281 61.0742 200.531 60.7539C199.789 60.4336 199.16 59.9844 198.645 59.4062C198.137 58.8203 197.75 58.1367 197.484 57.3555C197.219 56.5664 197.086 55.7109 197.086 54.7891ZM200.461 54.543V54.7891C200.461 55.3203 200.508 55.8164 200.602 56.2773C200.695 56.7383 200.844 57.1445 201.047 57.4961C201.258 57.8398 201.531 58.1094 201.867 58.3047C202.203 58.5 202.613 58.5977 203.098 58.5977C203.566 58.5977 203.969 58.5 204.305 58.3047C204.641 58.1094 204.91 57.8398 205.113 57.4961C205.316 57.1445 205.465 56.7383 205.559 56.2773C205.66 55.8164 205.711 55.3203 205.711 54.7891V54.543C205.711 54.0273 205.66 53.543 205.559 53.0898C205.465 52.6289 205.312 52.2227 205.102 51.8711C204.898 51.5117 204.629 51.2305 204.293 51.0273C203.957 50.8242 203.551 50.7227 203.074 50.7227C202.598 50.7227 202.191 50.8242 201.855 51.0273C201.527 51.2305 201.258 51.5117 201.047 51.8711C200.844 52.2227 200.695 52.6289 200.602 53.0898C200.508 53.543 200.461 54.0273 200.461 54.543ZM217.383 48.3203V50.7109H210V48.3203H217.383ZM211.828 45.1914H215.203V57.1797C215.203 57.5469 215.25 57.8281 215.344 58.0234C215.445 58.2188 215.594 58.3555 215.789 58.4336C215.984 58.5039 216.23 58.5391 216.527 58.5391C216.738 58.5391 216.926 58.5312 217.09 58.5156C217.262 58.4922 217.406 58.4688 217.523 58.4453L217.535 60.9297C217.246 61.0234 216.934 61.0977 216.598 61.1523C216.262 61.207 215.891 61.2344 215.484 61.2344C214.742 61.2344 214.094 61.1133 213.539 60.8711C212.992 60.6211 212.57 60.2227 212.273 59.6758C211.977 59.1289 211.828 58.4102 211.828 57.5195V45.1914ZM222.867 48.3203V61H219.48V48.3203H222.867ZM219.27 45.0156C219.27 44.5234 219.441 44.1172 219.785 43.7969C220.129 43.4766 220.59 43.3164 221.168 43.3164C221.738 43.3164 222.195 43.4766 222.539 43.7969C222.891 44.1172 223.066 44.5234 223.066 45.0156C223.066 45.5078 222.891 45.9141 222.539 46.2344C222.195 46.5547 221.738 46.7148 221.168 46.7148C220.59 46.7148 220.129 46.5547 219.785 46.2344C219.441 45.9141 219.27 45.5078 219.27 45.0156ZM230.895 58.5977C231.309 58.5977 231.676 58.5195 231.996 58.3633C232.316 58.1992 232.566 57.9727 232.746 57.6836C232.934 57.3867 233.031 57.0391 233.039 56.6406H236.215C236.207 57.5312 235.969 58.3242 235.5 59.0195C235.031 59.707 234.402 60.25 233.613 60.6484C232.824 61.0391 231.941 61.2344 230.965 61.2344C229.98 61.2344 229.121 61.0703 228.387 60.7422C227.66 60.4141 227.055 59.9609 226.57 59.3828C226.086 58.7969 225.723 58.1172 225.48 57.3438C225.238 56.5625 225.117 55.7266 225.117 54.8359V54.4961C225.117 53.5977 225.238 52.7617 225.48 51.9883C225.723 51.207 226.086 50.5273 226.57 49.9492C227.055 49.3633 227.66 48.9062 228.387 48.5781C229.113 48.25 229.965 48.0859 230.941 48.0859C231.98 48.0859 232.891 48.2852 233.672 48.6836C234.461 49.082 235.078 49.6523 235.523 50.3945C235.977 51.1289 236.207 52 236.215 53.0078H233.039C233.031 52.5859 232.941 52.2031 232.77 51.8594C232.605 51.5156 232.363 51.2422 232.043 51.0391C231.73 50.8281 231.344 50.7227 230.883 50.7227C230.391 50.7227 229.988 50.8281 229.676 51.0391C229.363 51.2422 229.121 51.5234 228.949 51.8828C228.777 52.2344 228.656 52.6367 228.586 53.0898C228.523 53.5352 228.492 54.0039 228.492 54.4961V54.8359C228.492 55.3281 228.523 55.8008 228.586 56.2539C228.648 56.707 228.766 57.1094 228.938 57.4609C229.117 57.8125 229.363 58.0898 229.676 58.293C229.988 58.4961 230.395 58.5977 230.895 58.5977Z" fill="#888888"/>
<path d="M114.117 84.875H122.344V107.164C122.344 109.82 121.789 112.07 120.68 113.914C119.57 115.742 118.016 117.125 116.016 118.062C114.016 119 111.664 119.469 108.961 119.469C106.289 119.469 103.938 119 101.906 118.062C99.8906 117.125 98.3125 115.742 97.1719 113.914C96.0469 112.07 95.4844 109.82 95.4844 107.164V84.875H103.734V107.164C103.734 108.57 103.938 109.719 104.344 110.609C104.75 111.484 105.344 112.125 106.125 112.531C106.906 112.938 107.852 113.141 108.961 113.141C110.086 113.141 111.031 112.938 111.797 112.531C112.562 112.125 113.141 111.484 113.531 110.609C113.922 109.719 114.117 108.57 114.117 107.164V84.875ZM136.266 84.875V119H128.062V84.875H136.266ZM172.523 84.875H180.75V107.164C180.75 109.82 180.195 112.07 179.086 113.914C177.977 115.742 176.422 117.125 174.422 118.062C172.422 119 170.07 119.469 167.367 119.469C164.695 119.469 162.344 119 160.312 118.062C158.297 117.125 156.719 115.742 155.578 113.914C154.453 112.07 153.891 109.82 153.891 107.164V84.875H162.141V107.164C162.141 108.57 162.344 109.719 162.75 110.609C163.156 111.484 163.75 112.125 164.531 112.531C165.312 112.938 166.258 113.141 167.367 113.141C168.492 113.141 169.438 112.938 170.203 112.531C170.969 112.125 171.547 111.484 171.938 110.609C172.328 109.719 172.523 108.57 172.523 107.164V84.875ZM193.078 84.875L198.656 96.2188L204.234 84.875H213.609L204.094 101.797L213.867 119H204.398L198.656 107.445L192.914 119H183.422L193.219 101.797L183.68 84.875H193.078Z" fill="black"/>
<path d="M1134 0H1348C1356.28 0 1363 6.71573 1363 15V148C1363 156.284 1356.28 163 1348 163H1134V0Z" fill="#FFE4C4"/>
<path d="M1248.5 111.917C1244.51 111.917 1240.55 111.13 1236.86 109.601C1233.17 108.073 1229.82 105.832 1226.99 103.008C1221.29 97.3036 1218.08 89.567 1218.08 81.5C1218.08 73.433 1221.29 65.6964 1226.99 59.9922C1232.7 54.2879 1240.43 51.0833 1248.5 51.0833C1265.23 51.0833 1278.92 63.25 1278.92 78.4583C1278.92 83.2985 1276.99 87.9405 1273.57 91.363C1270.15 94.7856 1265.51 96.7083 1260.67 96.7083H1255.19C1254.28 96.7083 1253.67 97.3167 1253.67 98.2292C1253.67 98.5333 1253.97 98.8375 1253.97 99.1417C1255.19 100.662 1255.8 102.487 1255.8 104.312C1256.1 108.571 1252.76 111.917 1248.5 111.917ZM1248.5 57.1667C1242.05 57.1667 1235.86 59.7303 1231.29 64.2937C1226.73 68.8571 1224.17 75.0464 1224.17 81.5C1224.17 87.9536 1226.73 94.1429 1231.29 98.7063C1235.86 103.27 1242.05 105.833 1248.5 105.833C1249.41 105.833 1250.02 105.225 1250.02 104.312C1250.02 103.704 1249.72 103.4 1249.72 103.096C1248.5 101.575 1247.89 100.054 1247.89 98.2292C1247.89 93.9708 1251.24 90.625 1255.5 90.625H1260.67C1263.89 90.625 1266.99 89.3432 1269.27 87.0615C1271.55 84.7798 1272.83 81.6851 1272.83 78.4583C1272.83 66.5958 1261.88 57.1667 1248.5 57.1667ZM1231.77 75.4167C1234.2 75.4167 1236.33 77.5458 1236.33 79.9792C1236.33 82.4125 1234.2 84.5417 1231.77 84.5417C1229.34 84.5417 1227.21 82.4125 1227.21 79.9792C1227.21 77.5458 1229.34 75.4167 1231.77 75.4167ZM1240.9 63.25C1243.33 63.25 1245.46 65.3792 1245.46 67.8125C1245.46 70.2458 1243.33 72.375 1240.9 72.375C1238.46 72.375 1236.33 70.2458 1236.33 67.8125C1236.33 65.3792 1238.46 63.25 1240.9 63.25ZM1256.1 63.25C1258.54 63.25 1260.67 65.3792 1260.67 67.8125C1260.67 70.2458 1258.54 72.375 1256.1 72.375C1253.67 72.375 1251.54 70.2458 1251.54 67.8125C1251.54 65.3792 1253.67 63.25 1256.1 63.25ZM1265.23 75.4167C1267.66 75.4167 1269.79 77.5458 1269.79 79.9792C1269.79 82.4125 1267.66 84.5417 1265.23 84.5417C1262.8 84.5417 1260.67 82.4125 1260.67 79.9792C1260.67 77.5458 1262.8 75.4167 1265.23 75.4167Z" fill="white"/>
</svg>
